CascadiaEU.glyphspackage
{
glyphname = AE;
layers = (
{
anchors = (
{
name = bottom;
position = "{640, 0}";
},
{
name = ogonek;
position = "{1054, 10}";
},
{
name = top;
position = "{640, 1420}";
}
);
layerId = master01;
paths = (
{
closed = 1;
nodes = (
"153 0 LINE",
"621 1330 LINE",
"695 1330 LINE",
"695 1420 LINE",
"565 1420 LINE",
"68 0 LINE"
);
},
{
closed = 1;
nodes = (
"700 283 LINE",
"700 373 LINE",
"232 373 LINE",
"232 283 LINE"
);
},
{
closed = 1;
nodes = (
"1074 0 LINE",
"1074 90 LINE",
"638 90 LINE",
"638 0 LINE"
);
},
{
closed = 1;
nodes = (
"732 0 LINE",
"732 1420 LINE",
"638 1420 LINE",
"638 0 LINE"
);
},
{
closed = 1;
nodes = (
"1014 666 LINE",
"1014 756 LINE",
"638 756 LINE",
"638 666 LINE"
);
},
{
closed = 1;
nodes = (
"1074 1330 LINE",
"1074 1420 LINE",
"638 1420 LINE",
"638 1330 LINE"
);
}
);
width = 1200;
},
{
anchors = (
{
name = bottom;
position = "{640, 0}";
},
{
name = ogonek;
position = "{1054, 10}";
},
{
name = top;
position = "{640, 1420}";
}
);
layerId = "1F90C004-9C90-48FA-B407-176B3E9F1E65";
paths = (
{
closed = 1;
nodes = (
"232 0 LINE",
"573 1248 LINE",
"707 1248 LINE",
"707 1420 LINE",
"432 1420 LINE",
"42 0 LINE"
);
},
{
closed = 1;
nodes = (
"702 241 LINE",
"702 416 LINE",
"232 416 LINE",
"232 241 LINE"
);
},
{
closed = 1;
nodes = (
"1100 0 LINE",
"1100 190 LINE",
"590 190 LINE",
"590 0 LINE"
);
},
{
closed = 1;
nodes = (
"780 0 LINE",
"780 1420 LINE",
"590 1420 LINE",
"590 0 LINE"
);
},
{
closed = 1;
nodes = (
"1040 616 LINE",
"1040 806 LINE",
"600 806 LINE",
"600 616 LINE"
);
},
{
closed = 1;
nodes = (
"1100 1230 LINE",
"1100 1420 LINE",
"590 1420 LINE",
"590 1230 LINE"
);
}
);
width = 1200;
},
{
anchors = (
{
name = bottom;
position = "{640, 0}";
},
{
name = ogonek;
position = "{1054, 10}";
},
{
name = top;
position = "{640, 1420}";
}
);
layerId = "8E053A5E-67DA-4970-A6F5-068DBFE5AD21";
paths = (
{
closed = 1;
nodes = (
"293 0 LINE",
"533 1186 LINE",
"725 1186 LINE",
"725 1420 LINE",
"359 1420 LINE",
"28 0 LINE"
);
},
{
closed = 1;
nodes = (
"710 164 LINE",
"710 403 LINE",
"232 403 LINE",
"232 164 LINE"
);
},
{
closed = 1;
nodes = (
"1117 0 LINE",
"1117 242 LINE",
"575 242 LINE",
"575 0 LINE"
);
},
{
closed = 1;
nodes = (
"813 0 LINE",
"813 1420 LINE",
"575 1420 LINE",
"575 0 LINE"
);
},
{
closed = 1;
nodes = (
"1057 590 LINE",
"1057 832 LINE",
"575 832 LINE",
"575 590 LINE"
);
},
{
closed = 1;
nodes = (
"1117 1178 LINE",
"1117 1420 LINE",
"575 1420 LINE",
"575 1178 LINE"
);
}
);
width = 1200;
}
);
unicode = 00C6;
}
{
glyphname = Eth;
layers = (
{
components = (
{
name = D;
}
);
layerId = master01;
paths = (
{
closed = 1;
nodes = (
"651 662 LINE",
"651 752 LINE",
"12 752 LINE",
"12 662 LINE"
);
}
);
width = 1200;
},
{
components = (
{
name = D;
}
);
layerId = "1F90C004-9C90-48FA-B407-176B3E9F1E65";
paths = (
{
closed = 1;
nodes = (
"651 612 LINE",
"651 802 LINE",
"12 802 LINE",
"12 612 LINE"
);
}
);
width = 1200;
},
{
components = (
{
alignment = -1;
name = D;
}
);
layerId = "8E053A5E-67DA-4970-A6F5-068DBFE5AD21";
paths = (
{
closed = 1;
nodes = (
"651 585 LINE",
"651 829 LINE",
"12 829 LINE",
"12 585 LINE"
);
}
);
width = 1200;
}
);
unicode = 00D0;
}
{
glyphname = Oslash;
layers = (
{
components = (
{
name = O;
}
);
layerId = master01;
paths = (
{
closed = 1;
nodes = (
"1059 1487 LINE",
"989 1532 LINE",
"121 -89 LINE",
"191 -134 LINE"
);
}
);
width = 1200;
},
{
components = (
{
name = O;
}
);
layerId = "1F90C004-9C90-48FA-B407-176B3E9F1E65";
paths = (
{
closed = 1;
nodes = (
"1114 1457 LINE",
"979 1532 LINE",
"66 -59 LINE",
"201 -134 LINE"
);
}
);
width = 1200;
},
{
components = (
{
alignment = -1;
name = O;
}
);
layerId = "8E053A5E-67DA-4970-A6F5-068DBFE5AD21";
paths = (
{
closed = 1;
nodes = (
"1114 1457 LINE",
"929 1532 LINE",
"66 -59 LINE",
"251 -134 LINE"
);
}
);
width = 1200;
}
);
unicode = 00D8;
}
{
glyphname = Thorn;
layers = (
{
anchors = (
{
name = bottom;
position = "{560, 0}";
},
{
name = top;
position = "{560, 1420}";
}
);
layerId = master01;
paths = (
{
closed = 1;
nodes = (
"598 243 LINE SMOOTH",
"915 243 OFFCURVE",
"1096 413 OFFCURVE",
"1096 710 CURVE SMOOTH",
"1096 1007 OFFCURVE",
"915 1177 OFFCURVE",
"598 1177 CURVE SMOOTH",
"258 1177 LINE",
"258 1085 LINE",
"598 1085 LINE SMOOTH",
"856 1085 OFFCURVE",
"1004 949 OFFCURVE",
"1004 710 CURVE SMOOTH",
"1004 471 OFFCURVE",
"856 335 OFFCURVE",
"598 335 CURVE SMOOTH",
"254 335 LINE",
"254 243 LINE"
);
},
{
closed = 1;
nodes = (
"278 0 LINE",
"278 1420 LINE",
"184 1420 LINE",
"184 0 LINE"
);
}
);
width = 1200;
},
{
anchors = (
{
name = bottom;
position = "{560, 0}";
},
{
name = top;
position = "{560, 1420}";
}
);
layerId = "1F90C004-9C90-48FA-B407-176B3E9F1E65";
paths = (
{
closed = 1;
nodes = (
"578 220 LINE SMOOTH",
"922 220 OFFCURVE",
"1120 398 OFFCURVE",
"1120 710 CURVE SMOOTH",
"1120 1022 OFFCURVE",
"922 1200 OFFCURVE",
"578 1200 CURVE SMOOTH",
"348 1200 LINE",
"348 1010 LINE",
"578 1010 LINE SMOOTH",
"789 1010 OFFCURVE",
"910 902 OFFCURVE",
"910 710 CURVE SMOOTH",
"910 520 OFFCURVE",
"789 410 OFFCURVE",
"578 410 CURVE SMOOTH",
"344 410 LINE",
"344 220 LINE"
);
},
{
closed = 1;
nodes = (
"368 0 LINE",
"368 1420 LINE",
"160 1420 LINE",
"160 0 LINE"
);
}
);
width = 1200;
},
{
anchors = (
{
name = bottom;
position = "{560, 0}";
},
{
name = top;
position = "{560, 1420}";
}
);
layerId = "8E053A5E-67DA-4970-A6F5-068DBFE5AD21";
paths = (
{
closed = 1;
nodes = (
"578 208 LINE SMOOTH",
"934 208 OFFCURVE",
"1137 398 OFFCURVE",
"1137 731 CURVE SMOOTH",
"1137 1042 OFFCURVE",
"934 1221 OFFCURVE",
"578 1221 CURVE SMOOTH",
"387 1221 LINE",
"387 978 LINE",
"578 978 LINE SMOOTH",
"752 978 OFFCURVE",
"852 882 OFFCURVE",
"852 714 CURVE SMOOTH",
"852 548 OFFCURVE",
"752 451 OFFCURVE",
"578 451 CURVE SMOOTH",
"383 451 LINE",
"383 208 LINE"
);
},
{
closed = 1;
nodes = (
"407 0 LINE",
"407 1420 LINE",
"143 1420 LINE",
"143 0 LINE"
);
}
);
width = 1200;
}
);
unicode = 00DE;
}
{
glyphname = ae;
layers = (
{
anchors = (
{
name = bottom;
position = "{600, 0}";
},
{
name = top;
position = "{600, 1060}";
}
);
layerId = master01;
paths = (
{
closed = 1;
nodes = (
"472 -20 OFFCURVE",
"577 95 OFFCURVE",
"597 294 CURVE",
"581 274 LINE",
"654 274 LINE",
"539 496 LINE",
"539 371 LINE",
"539 191 OFFCURVE",
"451 72 OFFCURVE",
"317 72 CURVE SMOOTH",
"199 72 OFFCURVE",
"130 143 OFFCURVE",
"130 271 CURVE SMOOTH",
"130 430 OFFCURVE",
"209 509 OFFCURVE",
"370 509 CURVE SMOOTH",
"452 509 OFFCURVE",
"553 509 OFFCURVE",
"611 476 CURVE",
"620 562 LINE",
"572 589 OFFCURVE",
"477 601 OFFCURVE",
"375 601 CURVE SMOOTH",
"147 601 OFFCURVE",
"34 491 OFFCURVE",
"34 271 CURVE SMOOTH",
"34 86 OFFCURVE",
"137 -20 OFFCURVE",
"317 -20 CURVE SMOOTH"
);
},
{
closed = 1;
nodes = (
"607 310 LINE",
"607 634 LINE SMOOTH",
"607 901 OFFCURVE",
"471 1057 OFFCURVE",
"234 1067 CURVE SMOOTH",
"164 1070 LINE",
"144 978 LINE",
"214 975 LINE SMOOTH",
"421 966 OFFCURVE",
"539 855 OFFCURVE",
"539 666 CURVE SMOOTH",
"539 392 LINE",
"539 310 LINE"
);
},
{
closed = 1;
nodes = (
"995 -20 OFFCURVE",
"1049 -10 OFFCURVE",
"1088 5 CURVE",
"1073 97 LINE",
"1039 81 OFFCURVE",
"999 72 OFFCURVE",
"967 72 CURVE SMOOTH",
"757 72 OFFCURVE",
"636 245 OFFCURVE",
"636 542 CURVE SMOOTH",
"636 825 OFFCURVE",
"721 988 OFFCURVE",
"867 988 CURVE SMOOTH",
"985 988 OFFCURVE",
"1044 845 OFFCURVE",
"1044 558 CURVE",
"613 558 LINE",
"613 468 LINE",
"1134 468 LINE",
"1138 494 OFFCURVE",
"1140 527 OFFCURVE",
"1140 556 CURVE SMOOTH",
"1140 906 OFFCURVE",
"1049 1080 OFFCURVE",
"865 1080 CURVE SMOOTH",
"678 1080 OFFCURVE",
"570 885 OFFCURVE",
"570 544 CURVE SMOOTH",
"570 176 OFFCURVE",
"706 -20 OFFCURVE",
"943 -20 CURVE SMOOTH"
);
}
);
width = 1200;
},
{
anchors = (
{
name = bottom;
position = "{600, 0}";
},
{
name = top;
position = "{600, 1060}";
}
);
layerId = "1F90C004-9C90-48FA-B407-176B3E9F1E65";
paths = (
{
closed = 1;
nodes = (
"486 -20 OFFCURVE",
"571 77 OFFCURVE",
"593 246 CURVE",
"509 224 LINE",
"673 224 LINE",
"521 556 LINE",
"521 380 LINE",
"521 234 OFFCURVE",
"459 150 OFFCURVE",
"353 150 CURVE SMOOTH",
"268 150 OFFCURVE",
"211 208 OFFCURVE",
"211 296 CURVE SMOOTH",
"211 403 OFFCURVE",
"281 474 OFFCURVE",
"387 474 CURVE SMOOTH",
"462 474 OFFCURVE",
"524 474 OFFCURVE",
"559 444 CURVE",
"603 598 LINE",
"554 621 OFFCURVE",
"477 634 OFFCURVE",
"391 634 CURVE SMOOTH",
"169 634 OFFCURVE",
"21 495 OFFCURVE",
"21 286 CURVE SMOOTH",
"21 102 OFFCURVE",
"132 -20 OFFCURVE",
"299 -20 CURVE SMOOTH"
);
},
{
closed = 1;
nodes = (
"673 310 LINE",
"673 634 LINE SMOOTH",
"673 902 OFFCURVE",
"517 1058 OFFCURVE",
"245 1067 CURVE SMOOTH",
"151 1070 LINE",
"131 888 LINE",
"225 885 LINE SMOOTH",
"412 879 OFFCURVE",
"521 798 OFFCURVE",
"521 666 CURVE SMOOTH",
"521 392 LINE",
"521 310 LINE"
);
},
{
closed = 1;
nodes = (
"1018 -20 OFFCURVE",
"1080 -13 OFFCURVE",
"1133 -2 CURVE",
"1107 183 LINE",
"1068 175 OFFCURVE",
"1024 170 OFFCURVE",
"987 170 CURVE SMOOTH",
"807 170 OFFCURVE",
"703 306 OFFCURVE",
"703 542 CURVE SMOOTH",
"703 789 OFFCURVE",
"749 894 OFFCURVE",
"852 894 CURVE SMOOTH",
"944 894 OFFCURVE",
"983 803 OFFCURVE",
"983 588 CURVE",
"685 588 LINE",
"685 436 LINE",
"1169 436 LINE",
"1173 476 OFFCURVE",
"1175 526 OFFCURVE",
"1175 572 CURVE SMOOTH",
"1175 895 OFFCURVE",
"1064 1080 OFFCURVE",
"870 1080 CURVE SMOOTH",
"672 1080 OFFCURVE",
"557 880 OFFCURVE",
"557 532 CURVE SMOOTH",
"557 171 OFFCURVE",
"705 -20 OFFCURVE",
"963 -20 CURVE SMOOTH"
);
}
);
width = 1200;
},
{
anchors = (
{
name = bottom;
position = "{600, 0}";
},
{
name = top;
position = "{600, 1060}";
}
);
layerId = "8E053A5E-67DA-4970-A6F5-068DBFE5AD21";
paths = (
{
closed = 1;
nodes = (
"486 -20 OFFCURVE",
"572 92 OFFCURVE",
"593 288 CURVE",
"509 266 LINE",
"673 266 LINE",
"496 556 LINE",
"479 380 LINE",
"479 271 OFFCURVE",
"432 208 OFFCURVE",
"351 208 CURVE SMOOTH",
"294 208 OFFCURVE",
"261 246 OFFCURVE",
"261 313 CURVE SMOOTH",
"261 393 OFFCURVE",
"319 441 OFFCURVE",
"420 441 CURVE SMOOTH",
"495 441 OFFCURVE",
"557 441 OFFCURVE",
"592 411 CURVE",
"603 598 LINE",
"554 621 OFFCURVE",
"477 634 OFFCURVE",
"391 634 CURVE SMOOTH",
"145 634 OFFCURVE",
"4 507 OFFCURVE",
"4 286 CURVE SMOOTH",
"4 91 OFFCURVE",
"111 -20 OFFCURVE",
"299 -20 CURVE SMOOTH"
);
},
{
closed = 1;
nodes = (
"640 310 LINE",
"640 634 LINE SMOOTH",
"640 902 OFFCURVE",
"496 1061 OFFCURVE",
"245 1067 CURVE SMOOTH",
"134 1070 LINE",
"114 815 LINE",
"225 812 LINE SMOOTH",
"385 807 OFFCURVE",
"479 741 OFFCURVE",
"479 633 CURVE SMOOTH",
"479 375 LINE",
"496 310 LINE"
);
},
{
closed = 1;
nodes = (
"1023 -20 OFFCURVE",
"1092 -13 OFFCURVE",
"1150 -2 CURVE",
"1124 247 LINE",
"1080 239 OFFCURVE",
"1029 234 OFFCURVE",
"987 234 CURVE SMOOTH",
"823 234 OFFCURVE",
"728 347 OFFCURVE",
"728 542 CURVE SMOOTH",
"728 740 OFFCURVE",
"762 824 OFFCURVE",
"839 824 CURVE SMOOTH",
"913 824 OFFCURVE",
"945 761 OFFCURVE",
"945 610 CURVE",
"710 610 LINE",
"710 423 LINE",
"1186 423 LINE",
"1190 467 OFFCURVE",
"1192 522 OFFCURVE",
"1192 572 CURVE SMOOTH",
"1192 895 OFFCURVE",
"1081 1080 OFFCURVE",
"887 1080 CURVE SMOOTH",
"689 1080 OFFCURVE",
"574 880 OFFCURVE",
"574 532 CURVE SMOOTH",
"574 171 OFFCURVE",
"716 -20 OFFCURVE",
"963 -20 CURVE SMOOTH"
);
}
);
width = 1200;
}
);
unicode = 00E6;
}
{
glyphname = baht;
production = uni0E3F;
layers = (
{
components = (
{
name = B;
}
);
layerId = master01;
paths = (
{
closed = 1;
nodes = (
"630 -320 LINE",
"630 1740 LINE",
"536 1740 LINE",
"536 -320 LINE"
);
}
);
width = 1200;
},
{
associatedMasterId = master01;
components = (
{
name = B;
}
);
layerId = "1DDF591E-5D5D-44F8-B6D7-C7AA55A50A7F";
name = "[600]";
paths = (
{
closed = 1;
nodes = (
"628 1371 LINE",
"628 1740 LINE",
"538 1740 LINE",
"538 1371 LINE"
);
},
{
closed = 1;
nodes = (
"628 -320 LINE",
"628 42 LINE",
"538 42 LINE",
"538 -320 LINE"
);
}
);
width = 1200;
},
{
components = (
{
name = B;
}
);
layerId = "1F90C004-9C90-48FA-B407-176B3E9F1E65";
paths = (
{
closed = 1;
nodes = (
"652 -320 LINE",
"652 1740 LINE",
"514 1740 LINE",
"514 -320 LINE"
);
}
);
width = 1200;
},
{
associatedMasterId = "1F90C004-9C90-48FA-B407-176B3E9F1E65";
components = (
{
name = B;
}
);
layerId = "68BD545B-4C08-4592-B9A1-591747B3473C";
name = "[600]";
paths = (
{
closed = 1;
nodes = (
"652 1324 LINE",
"652 1740 LINE",
"514 1740 LINE",
"514 1324 LINE"
);
},
{
closed = 1;
nodes = (
"652 -320 LINE",
"652 69 LINE",
"514 69 LINE",
"514 -320 LINE"
);
}
);
width = 1200;
},
{
components = (
{
alignment = -1;
name = B;
}
);
layerId = "8E053A5E-67DA-4970-A6F5-068DBFE5AD21";
paths = (
{
closed = 1;
nodes = (
"710 -320 LINE",
"710 1740 LINE",
"457 1740 LINE",
"457 -320 LINE"
);
}
);
width = 1200;
},
{
associatedMasterId = "8E053A5E-67DA-4970-A6F5-068DBFE5AD21";
components = (
{
alignment = -1;
name = B;
}
);
layerId = "A09C1630-ECEB-4E45-96FF-9D596D456C02";
name = "[600]";
paths = (
{
closed = 1;
nodes = (
"710 1281 LINE",
"710 1740 LINE",
"457 1740 LINE",
"457 1281 LINE"
);
},
{
closed = 1;
nodes = (
"710 -320 LINE",
"710 131 LINE",
"457 131 LINE",
"457 -320 LINE"
);
}
);
width = 1200;
}
);
unicode = 0E3F;
}
{
glyphname = brokenbar;
layers = (
{
layerId = master01;
paths = (
{
closed = 1;
nodes = (
"647 870 LINE",
"647 1730 LINE",
"553 1730 LINE",
"553 870 LINE"
);
},
{
closed = 1;
nodes = (
"647 -310 LINE",
"647 550 LINE",
"553 550 LINE",
"553 -310 LINE"
);
}
);
width = 1200;
},
{
layerId = "1F90C004-9C90-48FA-B407-176B3E9F1E65";
paths = (
{
closed = 1;
nodes = (
"704 870 LINE",
"704 1730 LINE",
"496 1730 LINE",
"496 870 LINE"
);
},
{
closed = 1;
nodes = (
"704 -310 LINE",
"704 550 LINE",
"496 550 LINE",
"496 -310 LINE"
);
}
);
width = 1200;
},
{
layerId = "8E053A5E-67DA-4970-A6F5-068DBFE5AD21";
paths = (
{
closed = 1;
nodes = (
"732 870 LINE",
"732 1730 LINE",
"468 1730 LINE",
"468 870 LINE"
);
},
{
closed = 1;
nodes = (
"732 -310 LINE",
"732 550 LINE",
"468 550 LINE",
"468 -310 LINE"
);
}
);
width = 1200;
}
);
unicode = 00A6;
}
{
glyphname = currency;
layers = (
{
layerId = master01;
paths = (
{
closed = 1;
nodes = (
"845 300 OFFCURVE",
"1003 459 OFFCURVE",
"1003 700 CURVE SMOOTH",
"1003 941 OFFCURVE",
"845 1100 OFFCURVE",
"603 1100 CURVE SMOOTH",
"361 1100 OFFCURVE",
"203 941 OFFCURVE",
"203 700 CURVE SMOOTH",
"203 459 OFFCURVE",
"361 300 OFFCURVE",
"603 300 CURVE SMOOTH"
);
},
{
closed = 1;
nodes = (
"372 404 LINE",
"279 450 LINE",
"96 263 LINE",
"172 189 LINE"
);
},
{
closed = 1;
nodes = (
"1104 263 LINE",
"902 471 LINE",
"824 410 LINE",
"1028 189 LINE"
);
},
{
closed = 1;
nodes = (
"419 390 OFFCURVE",
"299 513 OFFCURVE",
"299 700 CURVE SMOOTH",
"299 887 OFFCURVE",
"419 1010 OFFCURVE",
"603 1010 CURVE SMOOTH",
"787 1010 OFFCURVE",
"907 887 OFFCURVE",
"907 700 CURVE SMOOTH",
"907 513 OFFCURVE",
"787 390 OFFCURVE",
"603 390 CURVE SMOOTH"
);
},
{
closed = 1;
nodes = (
"379 988 LINE",
"172 1201 LINE",
"96 1135 LINE",
"282 946 LINE"
);
},
{
closed = 1;
nodes = (
"1104 1135 LINE",
"1028 1201 LINE",
"826 994 LINE",
"919 946 LINE"
);
}
);
width = 1200;
},
{
layerId = "1F90C004-9C90-48FA-B407-176B3E9F1E65";
paths = (
{
closed = 1;
nodes = (
"859 300 OFFCURVE",
"1027 459 OFFCURVE",
"1027 700 CURVE SMOOTH",
"1027 941 OFFCURVE",
"859 1100 OFFCURVE",
"603 1100 CURVE SMOOTH",
"347 1100 OFFCURVE",
"179 941 OFFCURVE",
"179 700 CURVE SMOOTH",
"179 459 OFFCURVE",
"347 300 OFFCURVE",
"603 300 CURVE SMOOTH"
);
},
{
closed = 1;
nodes = (
"412 384 LINE",
"269 470 LINE",
"72 263 LINE",
"188 141 LINE"
);
},
{
closed = 1;
nodes = (
"1128 263 LINE",
"912 491 LINE",
"784 390 LINE",
"1012 141 LINE"
);
},
{
closed = 1;
nodes = (
"480 490 OFFCURVE",
"399 573 OFFCURVE",
"399 700 CURVE SMOOTH",
"399 827 OFFCURVE",
"480 910 OFFCURVE",
"603 910 CURVE SMOOTH",
"726 910 OFFCURVE",
"807 827 OFFCURVE",
"807 700 CURVE SMOOTH",
"807 573 OFFCURVE",
"726 490 OFFCURVE",
"603 490 CURVE SMOOTH"
);
},
{
closed = 1;
nodes = (
"419 1008 LINE",
"199 1259 LINE",
"72 1135 LINE",
"272 926 LINE"
);
},
{
closed = 1;
nodes = (
"1128 1135 LINE",
"1001 1259 LINE",
"786 1014 LINE",
"929 926 LINE"
);
}
);
width = 1200;
},
{
layerId = "8E053A5E-67DA-4970-A6F5-068DBFE5AD21";
paths = (
{
closed = 1;
nodes = (
"869 283 OFFCURVE",
"1044 449 OFFCURVE",
"1044 700 CURVE SMOOTH",
"1044 951 OFFCURVE",
"869 1117 OFFCURVE",
"603 1117 CURVE SMOOTH",
"337 1117 OFFCURVE",
"162 951 OFFCURVE",
"162 700 CURVE SMOOTH",
"162 449 OFFCURVE",
"337 283 OFFCURVE",
"603 283 CURVE SMOOTH"
);
},
{
closed = 1;
nodes = (
"429 351 LINE",
"252 470 LINE",
"56 281 LINE",
"206 116 LINE"
);
},
{
closed = 1;
nodes = (
"1145 279 LINE",
"929 491 LINE",
"767 357 LINE",
"995 114 LINE"
);
},
{
closed = 1;
nodes = (
"498 520 OFFCURVE",
"428 591 OFFCURVE",
"428 700 CURVE SMOOTH",
"428 809 OFFCURVE",
"498 880 OFFCURVE",
"603 880 CURVE SMOOTH",
"709 880 OFFCURVE",
"778 809 OFFCURVE",
"778 700 CURVE SMOOTH",
"778 591 OFFCURVE",
"709 520 OFFCURVE",
"603 520 CURVE SMOOTH"
);
},
{
closed = 1;
nodes = (
"436 1041 LINE",
"217 1274 LINE",
"56 1117 LINE",
"255 926 LINE"
);
},
{
closed = 1;
nodes = (
"1146 1118 LINE",
"985 1276 LINE",
"769 1047 LINE",
"946 926 LINE"
);
}
);
width = 1200;
}
);
unicode = 00A4;
}
{
glyphname = eth;
layers = (
{
anchors = (
{
name = bottom;
position = "{600, 0}";
},
{
name = top;
position = "{600, 1460}";
}
);
layerId = master01;
paths = (
{
closed = 1;
nodes = (
"1055 456 LINE",
"1055 574 LINE SMOOTH",
"1055 1087 OFFCURVE",
"854 1358 OFFCURVE",
"383 1516 CURVE",
"343 1437 LINE",
"775 1298 OFFCURVE",
"958 1068 OFFCURVE",
"958 666 CURVE SMOOTH",
"958 272 LINE"
);
},
{
closed = 1;
nodes = (
"361 72 OFFCURVE",
"233 209 OFFCURVE",
"233 440 CURVE SMOOTH",
"233 689 OFFCURVE",
"360 828 OFFCURVE",
"591 828 CURVE SMOOTH",
"826 828 OFFCURVE",
"959 688 OFFCURVE",
"959 440 CURVE SMOOTH",
"959 209 OFFCURVE",
"817 72 OFFCURVE",
"577 72 CURVE SMOOTH"
);
},
{
closed = 1;
nodes = (
"878 -20 OFFCURVE",
"1055 157 OFFCURVE",
"1055 456 CURVE",
"993 408 LINE",
"993 708 LINE",
"949 708 LINE",
"904 843 OFFCURVE",
"763 920 OFFCURVE",
"571 920 CURVE SMOOTH",
"294 920 OFFCURVE",
"137 745 OFFCURVE",
"137 440 CURVE SMOOTH",
"137 151 OFFCURVE",
"301 -20 OFFCURVE",
"579 -20 CURVE SMOOTH"
);
},
{
closed = 1;
nodes = (
"1079 1327 LINE",
"1059 1412 LINE",
"243 1122 LINE",
"265 1037 LINE"
);
}
);
width = 1200;
},
{
anchors = (
{
name = bottom;
position = "{600, 0}";
},
{
name = top;
position = "{600, 1460}";
}
);
layerId = "1F90C004-9C90-48FA-B407-176B3E9F1E65";
paths = (
{
closed = 1;
nodes = (
"1079 526 LINE",
"1079 574 LINE SMOOTH",
"1079 1087 OFFCURVE",
"871 1368 OFFCURVE",
"383 1516 CURVE",
"333 1416 LINE",
"701 1281 OFFCURVE",
"857 1057 OFFCURVE",
"857 666 CURVE SMOOTH",
"857 272 LINE"
);
},
{
closed = 1;
nodes = (
"425 164 OFFCURVE",
"327 270 OFFCURVE",
"327 450 CURVE SMOOTH",
"327 630 OFFCURVE",
"425 736 OFFCURVE",
"591 736 CURVE SMOOTH",
"758 736 OFFCURVE",
"857 630 OFFCURVE",
"857 450 CURVE SMOOTH",
"857 270 OFFCURVE",
"758 164 OFFCURVE",
"591 164 CURVE SMOOTH"
);
},
{
closed = 1;
nodes = (
"899 -20 OFFCURVE",
"1079 178 OFFCURVE",
"1079 526 CURVE",
"913 408 LINE",
"913 708 LINE",
"839 708 LINE",
"803 843 OFFCURVE",
"688 920 OFFCURVE",
"531 920 CURVE SMOOTH",
"264 920 OFFCURVE",
"113 749 OFFCURVE",
"113 450 CURVE SMOOTH",
"113 152 OFFCURVE",
"281 -20 OFFCURVE",
"579 -20 CURVE SMOOTH"
);
},
{
closed = 1;
nodes = (
"1099 1237 LINE",
"1059 1412 LINE",
"233 1172 LINE",
"273 997 LINE"
);
}
);
width = 1200;
},
{
anchors = (
{
name = bottom;
position = "{600, 0}";
},
{
name = top;
position = "{600, 1460}";
}
);
layerId = "8E053A5E-67DA-4970-A6F5-068DBFE5AD21";
paths = (
{
closed = 1;
nodes = (
"1096 559 LINE",
"1096 607 LINE SMOOTH",
"1096 1102 OFFCURVE",
"883 1373 OFFCURVE",
"383 1516 CURVE",
"325 1358 LINE",
"671 1234 OFFCURVE",
"821 1027 OFFCURVE",
"819 666 CURVE SMOOTH",
"817 272 LINE"
);
},
{
closed = 1;
nodes = (
"457 236 OFFCURVE",
"373 312 OFFCURVE",
"373 440 CURVE SMOOTH",
"373 581 OFFCURVE",
"457 664 OFFCURVE",
"599 664 CURVE SMOOTH",
"737 664 OFFCURVE",
"819 582 OFFCURVE",
"819 443 CURVE SMOOTH",
"819 313 OFFCURVE",
"737 236 OFFCURVE",
"599 236 CURVE SMOOTH"
);
},
{
closed = 1;
nodes = (
"912 -20 OFFCURVE",
"1096 191 OFFCURVE",
"1096 559 CURVE",
"863 408 LINE",
"865 708 LINE",
"784 708 LINE",
"751 843 OFFCURVE",
"645 920 OFFCURVE",
"501 920 CURVE SMOOTH",
"242 920 OFFCURVE",
"96 746 OFFCURVE",
"96 440 CURVE SMOOTH",
"96 149 OFFCURVE",
"274 -20 OFFCURVE",
"587 -20 CURVE SMOOTH"
);
},
{
closed = 1;
nodes = (
"1107 1204 LINE",
"1055 1429 LINE",
"229 1197 LINE",
"281 972 LINE"
);
}
);
width = 1200;
}
);
unicode = 00F0;
}
{
glyphname = exclamdown;
layers = (
{
components = (
{
name = period;
transform = "{1, 0, 0, -1, 0, 1060}";
}
);
layerId = master01;
paths = (
{
closed = 1;
nodes = (
"650 -370 LINE",
"644 704 LINE",
"552 704 LINE",
"550 -370 LINE"
);
}
);
width = 1200;
},
{
components = (
{
name = period;
transform = "{1, 0, 0, -1, 0, 1060}";
}
);
layerId = "1F90C004-9C90-48FA-B407-176B3E9F1E65";
paths = (
{
closed = 1;
nodes = (
"704 -370 LINE",
"684 604 LINE",
"512 604 LINE",
"496 -370 LINE"
);
}
);
width = 1200;
},
{
components = (
{
alignment = -1;
name = period;
transform = "{1, 0, 0, -1, 0, 1060}";
}
);
layerId = "8E053A5E-67DA-4970-A6F5-068DBFE5AD21";
paths = (
{
closed = 1;
nodes = (
"754 -370 LINE",
"717 504 LINE",
"479 504 LINE",
"446 -370 LINE"
);
}
);
width = 1200;
}
);
unicode = 00A1;
}
{
glyphname = germandbls;
layers = (
{
anchors = (
{
name = bottom;
position = "{600, 0}";
},
{
name = top;
position = "{658, 1520}";
}
);
layerId = master01;
paths = (
{
closed = 1;
nodes = (
"1023 -20 OFFCURVE",
"1140 91 OFFCURVE",
"1140 286 CURVE SMOOTH",
"1140 428 OFFCURVE",
"1042 514 OFFCURVE",
"956 599 CURVE SMOOTH",
"896 658 OFFCURVE",
"848 715 OFFCURVE",
"848 780 CURVE SMOOTH",
"848 856 OFFCURVE",
"876 901 OFFCURVE",
"904 946 CURVE SMOOTH",
"950 1020 OFFCURVE",
"1005 1069 OFFCURVE",
"1005 1210 CURVE SMOOTH",
"1005 1407 OFFCURVE",
"881 1520 OFFCURVE",
"664 1520 CURVE SMOOTH",
"398 1520 OFFCURVE",
"246 1356 OFFCURVE",
"246 1070 CURVE SMOOTH",
"246 0 LINE",
"340 0 LINE",
"340 1080 LINE SMOOTH",
"340 1301 OFFCURVE",
"455 1428 OFFCURVE",
"658 1428 CURVE SMOOTH",
"818 1425 OFFCURVE",
"909 1344 OFFCURVE",
"909 1210 CURVE SMOOTH",
"909 1113 OFFCURVE",
"870 1055 OFFCURVE",
"827 991 CURVE SMOOTH",
"789 934 OFFCURVE",
"752 869 OFFCURVE",
"752 780 CURVE SMOOTH",
"752 633 OFFCURVE",
"841 576 OFFCURVE",
"921 494 CURVE SMOOTH",
"981 433 OFFCURVE",
"1044 381 OFFCURVE",
"1044 282 CURVE SMOOTH",
"1044 149 OFFCURVE",
"961 72 OFFCURVE",
"818 72 CURVE SMOOTH",
"760 72 OFFCURVE",
"687 84 OFFCURVE",
"590 104 CURVE",
"566 10 LINE",
"631 -9 OFFCURVE",
"712 -20 OFFCURVE",
"818 -20 CURVE SMOOTH"
);
},
{
closed = 1;
nodes = (
"308 687 LINE",
"308 777 LINE",
"92 777 LINE",
"92 687 LINE"
);
}
);
width = 1200;
},
{
anchors = (
{
name = bottom;
position = "{600, 0}";
},
{
name = top;
position = "{658, 1520}";
}
);
layerId = "1F90C004-9C90-48FA-B407-176B3E9F1E65";
paths = (
{
closed = 1;
nodes = (
"1038 -20 OFFCURVE",
"1164 91 OFFCURVE",
"1164 286 CURVE SMOOTH",
"1164 428 OFFCURVE",
"1066 519 OFFCURVE",
"980 599 CURVE SMOOTH",
"923 661 OFFCURVE",
"872 715 OFFCURVE",
"872 780 CURVE SMOOTH",
"872 856 OFFCURVE",
"903 898 OFFCURVE",
"928 946 CURVE SMOOTH",
"974 1015 OFFCURVE",
"1029 1069 OFFCURVE",
"1029 1210 CURVE SMOOTH",
"1029 1407 OFFCURVE",
"900 1520 OFFCURVE",
"674 1520 CURVE SMOOTH",
"387 1520 OFFCURVE",
"222 1356 OFFCURVE",
"222 1070 CURVE SMOOTH",
"222 0 LINE",
"434 0 LINE",
"434 1080 LINE SMOOTH",
"434 1239 OFFCURVE",
"519 1330 OFFCURVE",
"668 1330 CURVE SMOOTH",
"758 1328 OFFCURVE",
"809 1284 OFFCURVE",
"809 1210 CURVE SMOOTH",
"809 1113 OFFCURVE",
"765 1050 OFFCURVE",
"727 991 CURVE SMOOTH",
"694 929 OFFCURVE",
"652 863 OFFCURVE",
"652 770 CURVE SMOOTH",
"652 626 OFFCURVE",
"741 559 OFFCURVE",
"821 489 CURVE SMOOTH",
"887 437 OFFCURVE",
"944 379 OFFCURVE",
"944 282 CURVE SMOOTH",
"944 211 OFFCURVE",
"898 170 OFFCURVE",
"818 170 CURVE SMOOTH",
"760 170 OFFCURVE",
"687 182 OFFCURVE",
"590 202 CURVE",
"566 10 LINE",
"631 -9 OFFCURVE",
"712 -20 OFFCURVE",
"818 -20 CURVE SMOOTH"
);
},
{
closed = 1;
nodes = (
"368 644 LINE",
"368 820 LINE",
"68 820 LINE",
"68 644 LINE"
);
}
);
width = 1200;
},
{
anchors = (
{
name = bottom;
position = "{600, 0}";
},
{
name = top;
position = "{658, 1520}";
}
);
layerId = "8E053A5E-67DA-4970-A6F5-068DBFE5AD21";
paths = (
{
closed = 1;
nodes = (
"1059 -20 OFFCURVE",
"1181 83 OFFCURVE",
"1181 286 CURVE SMOOTH",
"1181 389 OFFCURVE",
"1114 491 OFFCURVE",
"997 599 CURVE SMOOTH",
"944 658 OFFCURVE",
"906 715 OFFCURVE",
"906 780 CURVE SMOOTH",
"906 856 OFFCURVE",
"918 904 OFFCURVE",
"945 946 CURVE SMOOTH",
"1007 1041 OFFCURVE",
"1046 1119 OFFCURVE",
"1046 1203 CURVE SMOOTH",
"1046 1405 OFFCURVE",
"898 1520 OFFCURVE",
"641 1520 CURVE SMOOTH",
"356 1520 OFFCURVE",
"193 1362 OFFCURVE",
"193 1087 CURVE SMOOTH",
"193 0 LINE",
"463 0 LINE",
"463 1038 LINE SMOOTH",
"463 1182 OFFCURVE",
"526 1263 OFFCURVE",
"635 1263 CURVE SMOOTH",
"720 1261 OFFCURVE",
"769 1224 OFFCURVE",
"769 1160 CURVE SMOOTH",
"769 1099 OFFCURVE",
"728 1055 OFFCURVE",
"683 983 CURVE SMOOTH",
"642 915 OFFCURVE",
"629 849 OFFCURVE",
"629 770 CURVE SMOOTH",
"629 677 OFFCURVE",
"679 577 OFFCURVE",
"771 489 CURVE SMOOTH",
"848 417 OFFCURVE",
"904 372 OFFCURVE",
"904 324 CURVE SMOOTH",
"904 266 OFFCURVE",
"875 237 OFFCURVE",
"818 237 CURVE SMOOTH",
"768 237 OFFCURVE",
"693 248 OFFCURVE",
"590 269 CURVE",
"566 10 LINE",
"634 -10 OFFCURVE",
"717 -20 OFFCURVE",
"818 -20 CURVE SMOOTH"
);
},
{
closed = 1;
nodes = (
"368 607 LINE",
"368 857 LINE",
"51 857 LINE",
"51 607 LINE"
);
}
);
width = 1200;
}
);
unicode = 00DF;
}
{
glyphname = logicalnot;
layers = (
{
layerId = master01;
paths = (
{
closed = 1;
nodes = (
"1076 813 LINE",
"1076 903 LINE",
"124 903 LINE",
"124 813 LINE"
);
},
{
closed = 1;
nodes = (
"1076 350 LINE",
"1076 867 LINE",
"982 867 LINE",
"982 350 LINE"
);
}
);
width = 1200;
},
{
layerId = "1F90C004-9C90-48FA-B407-176B3E9F1E65";
paths = (
{
closed = 1;
nodes = (
"1100 707 LINE",
"1100 903 LINE",
"100 903 LINE",
"100 707 LINE"
);
},
{
closed = 1;
nodes = (
"1100 350 LINE",
"1100 817 LINE",
"892 817 LINE",
"892 350 LINE"
);
}
);
width = 1200;
},
{
layerId = "8E053A5E-67DA-4970-A6F5-068DBFE5AD21";
paths = (
{
closed = 1;
nodes = (
"1117 689 LINE",
"1117 931 LINE",
"83 931 LINE",
"83 689 LINE"
);
},
{
closed = 1;
nodes = (
"1117 350 LINE",
"1117 817 LINE",
"855 817 LINE",
"855 350 LINE"
);
}
);
width = 1200;
}
);
unicode = 00AC;
}
{
glyphname = onehalf;
layers = (
{
components = (
{
name = onesuperior;
transform = "{1, 0, 0, 1, -260, 0}";
},
{
name = twoinferior;
transform = "{1, 0, 0, 1, 270, 0}";
}
);
layerId = master01;
paths = (
{
closed = 1;
nodes = (
"1078 1020 LINE",
"1024 1096 LINE",
"132 372 LINE",
"186 296 LINE"
);
}
);
width = 1200;
},
{
components = (
{
name = onesuperior;
transform = "{1, 0, 0, 1, -260, 0}";
},
{
name = twoinferior;
transform = "{1, 0, 0, 1, 270, 0}";
}
);
layerId = "1F90C004-9C90-48FA-B407-176B3E9F1E65";
paths = (
{
closed = 1;
nodes = (
"1116 966 LINE",
"1024 1096 LINE",
"94 432 LINE",
"186 296 LINE"
);
}
);
width = 1200;
},
{
components = (
{
alignment = -1;
name = onesuperior;
transform = "{1, 0, 0, 1, -260, 0}";
},
{
alignment = -1;
name = twoinferior;
transform = "{1, 0, 0, 1, 270, 0}";
}
);
layerId = "8E053A5E-67DA-4970-A6F5-068DBFE5AD21";
paths = (
{
closed = 1;
nodes = (
"1121 969 LINE",
"989 1143 LINE",
"79 449 LINE",
"211 269 LINE"
);
}
);
width = 1200;
},
{
associatedMasterId = master01;
components = (
{
name = onesuperior;
transform = "{1, 0, 0, 1, -260, 0}";
},
{
name = twoinferior;
transform = "{1, 0, 0, 1, 270, 0}";
}
);
layerId = "AA15FB90-02A4-46B1-90A9-5B9B7146AC20";
name = "[500]";
paths = (
{
closed = 1;
nodes = (
"601 639 LINE",
"547 714 LINE",
"132 372 LINE",
"186 296 LINE"
);
},
{
closed = 1;
nodes = (
"1078 1020 LINE",
"1024 1096 LINE",
"599 754 LINE",
"653 678 LINE"
);
}
);
width = 1200;
},
{
associatedMasterId = "1F90C004-9C90-48FA-B407-176B3E9F1E65";
components = (
{
name = onesuperior;
transform = "{1, 0, 0, 1, -260, 0}";
},
{
name = twoinferior;
transform = "{1, 0, 0, 1, 270, 0}";
}
);
layerId = "3C13B723-BBDB-4899-AB1C-AF64A9619B76";
name = "[500]";
paths = (
{
closed = 1;
nodes = (
"582 610 LINE",
"520 706 LINE",
"94 432 LINE",
"186 296 LINE"
);
},
{
closed = 1;
nodes = (
"1116 966 LINE",
"1024 1096 LINE",
"634 779 LINE",
"696 689 LINE"
);
}
);
width = 1200;
},
{
associatedMasterId = "8E053A5E-67DA-4970-A6F5-068DBFE5AD21";
components = (
{
alignment = -1;
name = onesuperior;
transform = "{1, 0, 0, 1, -260, 0}";
},
{
alignment = -1;
name = twoinferior;
transform = "{1, 0, 0, 1, 270, 0}";
}
);
layerId = "497973CC-CCE1-407F-8CCF-3BC6B0471905";
name = "[500]";
paths = (
{
closed = 1;
nodes = (
"577 593 LINE",
"484 715 LINE",
"79 449 LINE",
"211 269 LINE"
);
},
{
closed = 1;
nodes = (
"1121 969 LINE",
"989 1143 LINE",
"617 814 LINE",
"710 692 LINE"
);
}
);
width = 1200;
}
);
unicode = 00BD;
}
{
glyphname = onequarter;
layers = (
{
components = (
{
name = foursuperior;
transform = "{1, 0, 0, 1, 240, -802}";
},
{
name = onesuperior;
transform = "{1, 0, 0, 1, -260, 0}";
}
);
layerId = master01;
paths = (
{
closed = 1;
nodes = (
"1078 1020 LINE",
"1024 1096 LINE",
"132 372 LINE",
"186 296 LINE"
);
}
);
width = 1200;
},
{
components = (
{
name = foursuperior;
transform = "{1, 0, 0, 1, 240, -802}";
},
{
name = onesuperior;
transform = "{1, 0, 0, 1, -260, 0}";
}
);
layerId = "1F90C004-9C90-48FA-B407-176B3E9F1E65";
paths = (
{
closed = 1;
nodes = (
"1116 966 LINE",
"1024 1096 LINE",
"94 432 LINE",
"186 296 LINE"
);
}
);
width = 1200;
},
{
components = (
{
alignment = -1;
name = foursuperior;
transform = "{1, 0, 0, 1, 240, -802}";
},
{
alignment = -1;
name = onesuperior;
transform = "{1, 0, 0, 1, -260, 0}";
}
);
layerId = "8E053A5E-67DA-4970-A6F5-068DBFE5AD21";
paths = (
{
closed = 1;
nodes = (
"1121 969 LINE",
"989 1143 LINE",
"79 449 LINE",
"211 269 LINE"
);
}
);
width = 1200;
},
{
associatedMasterId = master01;
components = (
{
name = foursuperior;
transform = "{1, 0, 0, 1, 240, -802}";
},
{
name = onesuperior;
transform = "{1, 0, 0, 1, -260, 0}";
}
);
layerId = "FBBF8ED3-8261-4AAD-A4F8-5B14BF14CD17";
name = "[500]";
paths = (
{
closed = 1;
nodes = (
"601 639 LINE",
"547 714 LINE",
"132 372 LINE",
"186 296 LINE"
);
},
{
closed = 1;
nodes = (
"1078 1020 LINE",
"1024 1096 LINE",
"599 754 LINE",
"653 678 LINE"
);
}
);
width = 1200;
},
{
associatedMasterId = "1F90C004-9C90-48FA-B407-176B3E9F1E65";
components = (
{
name = foursuperior;
transform = "{1, 0, 0, 1, 240, -802}";
},
{
name = onesuperior;
transform = "{1, 0, 0, 1, -260, 0}";
}
);
layerId = "6B119282-2F0C-4A0A-BE7B-02474A3458B9";
name = "[500]";
paths = (
{
closed = 1;
nodes = (
"582 610 LINE",
"520 706 LINE",
"94 432 LINE",
"186 296 LINE"
);
},
{
closed = 1;
nodes = (
"1116 966 LINE",
"1024 1096 LINE",
"634 779 LINE",
"696 689 LINE"
);
}
);
width = 1200;
},
{
associatedMasterId = "8E053A5E-67DA-4970-A6F5-068DBFE5AD21";
components = (
{
alignment = -1;
name = foursuperior;
transform = "{1, 0, 0, 1, 240, -802}";
},
{
alignment = -1;
name = onesuperior;
transform = "{1, 0, 0, 1, -260, 0}";
}
);
layerId = "FFDAD734-F17F-45FB-A13A-39E60855C537";
name = "[500]";
paths = (
{
closed = 1;
nodes = (
"577 593 LINE",
"484 715 LINE",
"79 449 LINE",
"211 269 LINE"
);
},
{
closed = 1;
nodes = (
"1121 969 LINE",
"989 1143 LINE",
"617 814 LINE",
"710 692 LINE"
);
}
);
width = 1200;
}
);
unicode = 00BC;
}
{
glyphname = onesuperior;
production = uni00B9;
layers = (
{
layerId = master01;
paths = (
{
closed = 1;
nodes = (
"665 802 LINE",
"665 1420 LINE",
"571 1420 LINE",
"571 802 LINE"
);
},
{
closed = 1;
nodes = (
"579 802 LINE",
"579 892 LINE",
"365 892 LINE",
"365 802 LINE"
);
},
{
closed = 1;
nodes = (
"835 802 LINE",
"835 892 LINE",
"656 892 LINE",
"656 802 LINE"
);
},
{
closed = 1;
nodes = (
"571 1325 LINE",
"571 1420 LINE",
"374 1367 LINE",
"374 1274 LINE"
);
}
);
width = 1200;
},
{
layerId = "1F90C004-9C90-48FA-B407-176B3E9F1E65";
paths = (
{
closed = 1;
nodes = (
"696 800 LINE",
"696 1420 LINE",
"540 1420 LINE",
"540 800 LINE"
);
},
{
closed = 1;
nodes = (
"548 800 LINE",
"548 941 LINE",
"341 941 LINE",
"341 800 LINE"
);
},
{
closed = 1;
nodes = (
"859 800 LINE",
"859 941 LINE",
"687 941 LINE",
"687 800 LINE"
);
},
{
closed = 1;
nodes = (
"540 1260 LINE",
"540 1420 LINE",
"350 1367 LINE",
"350 1209 LINE"
);
}
);
width = 1200;
},
{
layerId = "8E053A5E-67DA-4970-A6F5-068DBFE5AD21";
paths = (
{
closed = 1;
nodes = (
"721 802 LINE",
"721 1420 LINE",
"515 1420 LINE",
"515 802 LINE"
);
},
{
closed = 1;
nodes = (
"523 802 LINE",
"523 1009 LINE",
"324 1009 LINE",
"324 802 LINE"
);
},
{
closed = 1;
nodes = (
"876 802 LINE",
"876 1009 LINE",
"712 1009 LINE",
"712 802 LINE"
);
},
{
closed = 1;
nodes = (
"515 1206 LINE",
"515 1420 LINE",
"333 1367 LINE",
"333 1155 LINE"
);
}
);
width = 1200;
}
);
unicode = 00B9;
}
{
glyphname = ordfeminine;
layers = (
{
layerId = master01;
paths = (
{
closed = 1;
nodes = (
"920 785 LINE",
"920 857 LINE",
"813 870 LINE",
"813 1159 LINE SMOOTH",
"813 1340 OFFCURVE",
"724 1438 OFFCURVE",
"484 1439 CURVE SMOOTH",
"346 1440 LINE",
"335 1348 LINE",
"496 1348 LINE SMOOTH",
"645 1348 OFFCURVE",
"721 1286 OFFCURVE",
"721 1178 CURVE SMOOTH",
"721 963 LINE",
"737 964 LINE",
"745 779 LINE"
);
},
{
closed = 1;
nodes = (
"630 773 OFFCURVE",
"688 823 OFFCURVE",
"726 921 CURVE",
"706 914 LINE",
"757 914 LINE",
"721 1078 LINE",
"721 1039 LINE",
"721 955 OFFCURVE",
"645 863 OFFCURVE",
"495 863 CURVE SMOOTH",
"401 863 OFFCURVE",
"354 902 OFFCURVE",
"354 973 CURVE SMOOTH",
"354 1059 OFFCURVE",
"412 1103 OFFCURVE",
"523 1103 CURVE SMOOTH",
"601 1103 OFFCURVE",
"676 1103 OFFCURVE",
"755 1087 CURVE",
"781 1157 LINE",
"727 1175 OFFCURVE",
"629 1183 OFFCURVE",
"519 1183 CURVE SMOOTH",
"352 1183 OFFCURVE",
"258 1105 OFFCURVE",
"258 966 CURVE SMOOTH",
"258 843 OFFCURVE",
"340 773 OFFCURVE",
"481 773 CURVE SMOOTH"
);
}
);
width = 1200;
},
{
layerId = "1F90C004-9C90-48FA-B407-176B3E9F1E65";
paths = (
{
closed = 1;
nodes = (
"939 785 LINE",
"939 897 LINE",
"832 910 LINE",
"832 1159 LINE SMOOTH",
"832 1340 OFFCURVE",
"719 1438 OFFCURVE",
"479 1439 CURVE SMOOTH",
"317 1440 LINE",
"306 1294 LINE",
"491 1294 LINE SMOOTH",
"607 1294 OFFCURVE",
"666 1252 OFFCURVE",
"666 1178 CURVE SMOOTH",
"666 963 LINE",
"682 964 LINE",
"690 779 LINE"
);
},
{
closed = 1;
nodes = (
"577 773 OFFCURVE",
"628 823 OFFCURVE",
"661 921 CURVE",
"641 914 LINE",
"702 914 LINE",
"666 1078 LINE",
"666 1039 LINE",
"666 977 OFFCURVE",
"607 909 OFFCURVE",
"490 909 CURVE SMOOTH",
"433 909 OFFCURVE",
"404 935 OFFCURVE",
"404 983 CURVE SMOOTH",
"404 1033 OFFCURVE",
"443 1059 OFFCURVE",
"518 1059 CURVE SMOOTH",
"579 1059 OFFCURVE",
"638 1059 OFFCURVE",
"700 1049 CURVE",
"726 1157 LINE",
"672 1175 OFFCURVE",
"603 1183 OFFCURVE",
"514 1183 CURVE SMOOTH",
"332 1183 OFFCURVE",
"229 1105 OFFCURVE",
"229 966 CURVE SMOOTH",
"229 843 OFFCURVE",
"309 773 OFFCURVE",
"446 773 CURVE SMOOTH"
);
}
);
width = 1200;
},
{
layerId = "8E053A5E-67DA-4970-A6F5-068DBFE5AD21";
paths = (
{
closed = 1;
nodes = (
"951 785 LINE",
"951 955 LINE",
"844 968 LINE",
"844 1159 LINE SMOOTH",
"844 1341 OFFCURVE",
"726 1438 OFFCURVE",
"474 1439 CURVE SMOOTH",
"295 1440 LINE",
"284 1261 LINE",
"486 1261 LINE SMOOTH",
"575 1261 OFFCURVE",
"619 1230 OFFCURVE",
"619 1178 CURVE SMOOTH",
"619 963 LINE",
"627 964 LINE",
"635 779 LINE"
);
},
{
closed = 1;
nodes = (
"509 771 OFFCURVE",
"569 821 OFFCURVE",
"598 921 CURVE",
"569 914 LINE",
"647 914 LINE",
"619 1078 LINE",
"619 1039 LINE",
"619 989 OFFCURVE",
"577 934 OFFCURVE",
"493 934 CURVE SMOOTH",
"448 934 OFFCURVE",
"425 953 OFFCURVE",
"425 987 CURVE SMOOTH",
"425 1024 OFFCURVE",
"455 1042 OFFCURVE",
"513 1042 CURVE SMOOTH",
"557 1042 OFFCURVE",
"601 1042 OFFCURVE",
"645 1024 CURVE",
"671 1157 LINE",
"606 1175 OFFCURVE",
"548 1183 OFFCURVE",
"459 1183 CURVE SMOOTH",
"299 1183 OFFCURVE",
"207 1105 OFFCURVE",
"207 966 CURVE SMOOTH",
"207 841 OFFCURVE",
"281 771 OFFCURVE",
"408 771 CURVE SMOOTH"
);
}
);
width = 1200;
}
);
unicode = 00AA;
}
{
glyphname = ordmasculine;
layers = (
{
layerId = master01;
paths = (
{
closed = 1;
nodes = (
"792 770 OFFCURVE",
"918 903 OFFCURVE",
"918 1105 CURVE SMOOTH",
"918 1307 OFFCURVE",
"792 1440 OFFCURVE",
"600 1440 CURVE SMOOTH",
"408 1440 OFFCURVE",
"282 1307 OFFCURVE",
"282 1105 CURVE SMOOTH",
"282 903 OFFCURVE",
"408 770 OFFCURVE",
"600 770 CURVE SMOOTH"
);
},
{
closed = 1;
nodes = (
"466 862 OFFCURVE",
"378 959 OFFCURVE",
"378 1105 CURVE SMOOTH",
"378 1252 OFFCURVE",
"466 1348 OFFCURVE",
"600 1348 CURVE SMOOTH",
"734 1348 OFFCURVE",
"822 1252 OFFCURVE",
"822 1105 CURVE SMOOTH",
"822 959 OFFCURVE",
"734 862 OFFCURVE",
"600 862 CURVE SMOOTH"
);
}
);
width = 1200;
},
{
layerId = "1F90C004-9C90-48FA-B407-176B3E9F1E65";
paths = (
{
closed = 1;
nodes = (
"806 770 OFFCURVE",
"942 903 OFFCURVE",
"942 1105 CURVE SMOOTH",
"942 1307 OFFCURVE",
"806 1440 OFFCURVE",
"600 1440 CURVE SMOOTH",
"394 1440 OFFCURVE",
"258 1307 OFFCURVE",
"258 1105 CURVE SMOOTH",
"258 903 OFFCURVE",
"394 770 OFFCURVE",
"600 770 CURVE SMOOTH"
);
},
{
closed = 1;
nodes = (
"505 920 OFFCURVE",
"443 994 OFFCURVE",
"443 1105 CURVE SMOOTH",
"443 1216 OFFCURVE",
"505 1290 OFFCURVE",
"600 1290 CURVE SMOOTH",
"695 1290 OFFCURVE",
"757 1216 OFFCURVE",
"757 1105 CURVE SMOOTH",
"757 994 OFFCURVE",
"695 920 OFFCURVE",
"600 920 CURVE SMOOTH"
);
}
);
width = 1200;
},
{
layerId = "8E053A5E-67DA-4970-A6F5-068DBFE5AD21";
paths = (
{
closed = 1;
nodes = (
"816 770 OFFCURVE",
"959 903 OFFCURVE",
"959 1105 CURVE SMOOTH",
"959 1307 OFFCURVE",
"816 1440 OFFCURVE",
"600 1440 CURVE SMOOTH",
"384 1440 OFFCURVE",
"241 1307 OFFCURVE",
"241 1105 CURVE SMOOTH",
"241 903 OFFCURVE",
"384 770 OFFCURVE",
"600 770 CURVE SMOOTH"
);
},
{
closed = 1;
nodes = (
"535 970 OFFCURVE",
"493 1024 OFFCURVE",
"493 1105 CURVE SMOOTH",
"493 1186 OFFCURVE",
"535 1240 OFFCURVE",
"600 1240 CURVE SMOOTH",
"665 1240 OFFCURVE",
"707 1186 OFFCURVE",
"707 1105 CURVE SMOOTH",
"707 1024 OFFCURVE",
"665 970 OFFCURVE",
"600 970 CURVE SMOOTH"
);
}
);
width = 1200;
}
);
unicode = 00BA;
}
{
glyphname = oslash;
layers = (
{
components = (
{
name = o;
}
);
layerId = master01;
paths = (
{
closed = 1;
nodes = (
"981 1158 LINE",
"896 1198 LINE",
"226 -84 LINE",
"301 -134 LINE"
);
}
);
width = 1200;
},
{
components = (
{
name = o;
}
);
layerId = "1F90C004-9C90-48FA-B407-176B3E9F1E65";
paths = (
{
closed = 1;
nodes = (
"1011 1133 LINE",
"896 1198 LINE",
"196 -59 LINE",
"301 -134 LINE"
);
}
);
width = 1200;
},
{
components = (
{
alignment = -1;
name = o;
}
);
layerId = "8E053A5E-67DA-4970-A6F5-068DBFE5AD21";
paths = (
{
closed = 1;
nodes = (
"1036 1116 LINE",
"896 1198 LINE",
"171 -42 LINE",
"301 -134 LINE"
);
}
);
width = 1200;
}
);
unicode = 00F8;
}
{
glyphname = paragraph;
layers = (
{
layerId = master01;
paths = (
{
closed = 1;
nodes = (
"524 1420 LINE",
"226 1420 OFFCURVE",
"60 1284 OFFCURVE",
"60 1052 CURVE SMOOTH",
"60 824 OFFCURVE",
"224 700 OFFCURVE",
"512 700 CURVE"
);
},
{
closed = 1;
nodes = (
"571 0 LINE",
"571 1386 LINE",
"477 1386 LINE",
"477 0 LINE"
);
},
{
closed = 1;
nodes = (
"939 0 LINE",
"939 1420 LINE",
"845 1420 LINE",
"845 0 LINE"
);
},
{
closed = 1;
nodes = (
"1136 1330 LINE",
"1136 1420 LINE",
"524 1420 LINE",
"504 1330 LINE"
);
}
);
width = 1200;
},
{
layerId = "1F90C004-9C90-48FA-B407-176B3E9F1E65";
paths = (
{
closed = 1;
nodes = (
"524 1420 LINE",
"211 1420 OFFCURVE",
"36 1273 OFFCURVE",
"36 1022 CURVE SMOOTH",
"36 775 OFFCURVE",
"209 640 OFFCURVE",
"512 640 CURVE"
);
},
{
closed = 1;
nodes = (
"622 0 LINE",
"622 1286 LINE",
"422 1286 LINE",
"422 0 LINE"
);
},
{
closed = 1;
nodes = (
"992 0 LINE",
"992 1420 LINE",
"792 1420 LINE",
"792 0 LINE"
);
},
{
closed = 1;
nodes = (
"1160 1230 LINE",
"1160 1420 LINE",
"524 1420 LINE",
"504 1230 LINE"
);
}
);
width = 1200;
},
{
layerId = "8E053A5E-67DA-4970-A6F5-068DBFE5AD21";
paths = (
{
closed = 1;
nodes = (
"524 1420 LINE",
"200 1420 OFFCURVE",
"19 1255 OFFCURVE",
"19 972 CURVE SMOOTH",
"19 693 OFFCURVE",
"198 540 OFFCURVE",
"512 540 CURVE"
);
},
{
closed = 1;
nodes = (
"685 0 LINE",
"685 1286 LINE",
"422 1286 LINE",
"422 0 LINE"
);
},
{
closed = 1;
nodes = (
"1075 0 LINE",
"1075 1420 LINE",
"812 1420 LINE",
"812 0 LINE"
);
},
{
closed = 1;
nodes = (
"1177 1177 LINE",
"1177 1420 LINE",
"507 1420 LINE",
"504 1177 LINE"
);
}
);
width = 1200;
}
);
unicode = 00B6;
}
{
glyphname = plusminus;
layers = (
{
components = (
{
name = minus;
transform = "{1, 0, 0, 1, 0, -430}";
}
);
layerId = master01;
paths = (
{
closed = 1;
nodes = (
"647 246 LINE",
"647 1224 LINE",
"553 1224 LINE",
"553 246 LINE"
);
},
{
closed = 1;
nodes = (
"1076 731 LINE",
"1076 821 LINE",
"124 821 LINE",
"124 731 LINE"
);
}
);
width = 1200;
},
{
components = (
{
name = minus;
transform = "{1, 0, 0, 1, 0, -430}";
}
);
layerId = "1F90C004-9C90-48FA-B407-176B3E9F1E65";
paths = (
{
closed = 1;
nodes = (
"704 246 LINE",
"704 1224 LINE",
"496 1224 LINE",
"496 246 LINE"
);
},
{
closed = 1;
nodes = (
"1100 683 LINE",
"1100 869 LINE",
"100 869 LINE",
"100 683 LINE"
);
}
);
width = 1200;
},
{
components = (
{
alignment = -1;
name = minus;
transform = "{1, 0, 0, 1, 0, -430}";
}
);
layerId = "8E053A5E-67DA-4970-A6F5-068DBFE5AD21";
paths = (
{
closed = 1;
nodes = (
"731 246 LINE",
"731 1224 LINE",
"469 1224 LINE",
"469 246 LINE"
);
},
{
closed = 1;
nodes = (
"1100 651 LINE",
"1100 901 LINE",
"100 901 LINE",
"100 651 LINE"
);
}
);
width = 1200;
}
);
unicode = 00B1;
}
{
glyphname = questiondown;
layers = (
{
components = (
{
name = period;
transform = "{-1, 0, 0, -1, 1238, 1060}";
}
);
layerId = master01;
paths = (
{
closed = 1;
nodes = (
"606 -290 LINE",
"421 -290 OFFCURVE",
"314 -192 OFFCURVE",
"314 -22 CURVE SMOOTH",
"314 100 OFFCURVE",
"370 193 OFFCURVE",
"503 286 CURVE SMOOTH",
"633 377 OFFCURVE",
"689 466 OFFCURVE",
"689 588 CURVE SMOOTH",
"689 704 LINE",
"595 704 LINE",
"595 602 LINE SMOOTH",
"595 502 OFFCURVE",
"555 429 OFFCURVE",
"459 362 CURVE SMOOTH",
"290 242 OFFCURVE",
"218 125 OFFCURVE",
"218 -32 CURVE SMOOTH",
"218 -253 OFFCURVE",
"359 -380 OFFCURVE",
"604 -380 CURVE"
);
},
{
closed = 1;
nodes = (
"776 -380 OFFCURVE",
"912 -327 OFFCURVE",
"1060 -201 CURVE",
"1001 -138 LINE",
"864 -245 OFFCURVE",
"746 -290 OFFCURVE",
"606 -290 CURVE",
"604 -380 LINE"
);
}
);
width = 1200;
},
{
components = (
{
name = period;
transform = "{-1, 0, 0, -1, 1238, 1060}";
}
);
layerId = "1F90C004-9C90-48FA-B407-176B3E9F1E65";
paths = (
{
closed = 1;
nodes = (
"606 -190 LINE",
"484 -190 OFFCURVE",
"414 -132 OFFCURVE",
"414 -32 CURVE SMOOTH",
"414 60 OFFCURVE",
"468 139 OFFCURVE",
"576 206 CURVE SMOOTH",
"686 276 OFFCURVE",
"740 376 OFFCURVE",
"740 508 CURVE SMOOTH",
"740 604 LINE",
"544 604 LINE",
"544 522 LINE SMOOTH",
"544 444 OFFCURVE",
"502 378 OFFCURVE",
"416 322 CURVE SMOOTH",
"268 227 OFFCURVE",
"194 106 OFFCURVE",
"194 -42 CURVE SMOOTH",
"194 -256 OFFCURVE",
"344 -380 OFFCURVE",
"604 -380 CURVE"
);
},
{
closed = 1;
nodes = (
"805 -380 OFFCURVE",
"991 -293 OFFCURVE",
"1084 -161 CURVE",
"946 -18 LINE",
"861 -122 OFFCURVE",
"731 -190 OFFCURVE",
"606 -190 CURVE",
"604 -380 LINE"
);
}
);
width = 1200;
},
{
components = (
{
alignment = -1;
name = period;
transform = "{-1, 0, 0, -1, 1238, 1060}";
}
);
layerId = "8E053A5E-67DA-4970-A6F5-068DBFE5AD21";
paths = (
{
closed = 1;
nodes = (
"623 -128 LINE",
"522 -128 OFFCURVE",
"464 -84 OFFCURVE",
"464 -7 CURVE SMOOTH",
"464 62 OFFCURVE",
"504 126 OFFCURVE",
"576 173 CURVE SMOOTH",
"709 261 OFFCURVE",
"773 350 OFFCURVE",
"773 487 CURVE SMOOTH",
"773 571 LINE",
"511 571 LINE",
"511 535 LINE SMOOTH",
"511 452 OFFCURVE",
"482 398 OFFCURVE",
"416 355 CURVE SMOOTH",
"256 253 OFFCURVE",
"177 119 OFFCURVE",
"177 -42 CURVE SMOOTH",
"177 -256 OFFCURVE",
"333 -380 OFFCURVE",
"604 -380 CURVE"
);
},
{
closed = 1;
nodes = (
"816 -380 OFFCURVE",
"1011 -286 OFFCURVE",
"1109 -144 CURVE",
"963 45 LINE",
"878 -60 OFFCURVE",
"748 -128 OFFCURVE",
"623 -128 CURVE",
"604 -380 LINE"
);
}
);
width = 1200;
}
);
unicode = 00BF;
}
{
glyphname = registered;
layers = (
{
layerId = master01;
paths = (
{
closed = 1;
nodes = (
"950 15 OFFCURVE",
"1150 263 OFFCURVE",
"1150 695 CURVE SMOOTH",
"1150 1146 OFFCURVE",
"950 1405 OFFCURVE",
"600 1405 CURVE SMOOTH",
"250 1405 OFFCURVE",
"50 1146 OFFCURVE",
"50 695 CURVE SMOOTH",
"50 263 OFFCURVE",
"250 15 OFFCURVE",
"600 15 CURVE SMOOTH"
);
},
{
closed = 1;
nodes = (
"475 396 LINE",
"475 1010 LINE",
"381 1010 LINE",
"381 396 LINE"
);
},
{
closed = 1;
nodes = (
"880 396 LINE",
"757 655 LINE",
"673 628 LINE",
"782 396 LINE"
);
},
{
closed = 1;
nodes = (
"309 105 OFFCURVE",
"142 320 OFFCURVE",
"142 695 CURVE SMOOTH",
"142 1087 OFFCURVE",
"309 1313 OFFCURVE",
"600 1313 CURVE SMOOTH",
"891 1313 OFFCURVE",
"1058 1087 OFFCURVE",
"1058 695 CURVE SMOOTH",
"1058 320 OFFCURVE",
"891 105 OFFCURVE",
"600 105 CURVE SMOOTH"
);
},
{
closed = 1;
nodes = (
"648 620 LINE SMOOTH",
"787 620 OFFCURVE",
"866 695 OFFCURVE",
"866 825 CURVE SMOOTH",
"866 942 OFFCURVE",
"787 1010 OFFCURVE",
"648 1010 CURVE SMOOTH",
"441 1010 LINE",
"441 920 LINE",
"648 920 LINE SMOOTH",
"725 920 OFFCURVE",
"770 882 OFFCURVE",
"770 815 CURVE SMOOTH",
"770 748 OFFCURVE",
"725 710 OFFCURVE",
"648 710 CURVE SMOOTH",
"461 710 LINE",
"461 620 LINE"
);
}
);
width = 1200;
},
{
layerId = "1F90C004-9C90-48FA-B407-176B3E9F1E65";
paths = (
{
closed = 1;
nodes = (
"965 15 OFFCURVE",
"1174 263 OFFCURVE",
"1174 695 CURVE SMOOTH",
"1174 1146 OFFCURVE",
"965 1405 OFFCURVE",
"600 1405 CURVE SMOOTH",
"235 1405 OFFCURVE",
"26 1146 OFFCURVE",
"26 695 CURVE SMOOTH",
"26 263 OFFCURVE",
"235 15 OFFCURVE",
"600 15 CURVE SMOOTH"
);
},
{
closed = 1;
nodes = (
"508 396 LINE",
"508 1030 LINE",
"348 1030 LINE",
"348 396 LINE"
);
},
{
closed = 1;
nodes = (
"904 396 LINE",
"757 635 LINE",
"603 608 LINE",
"717 396 LINE"
);
},
{
closed = 1;
nodes = (
"343 169 OFFCURVE",
"196 361 OFFCURVE",
"196 695 CURVE SMOOTH",
"196 1048 OFFCURVE",
"343 1251 OFFCURVE",
"600 1251 CURVE SMOOTH",
"857 1251 OFFCURVE",
"1004 1048 OFFCURVE",
"1004 695 CURVE SMOOTH",
"1004 361 OFFCURVE",
"857 169 OFFCURVE",
"600 169 CURVE SMOOTH"
);
},
{
closed = 1;
nodes = (
"648 600 LINE SMOOTH",
"802 600 OFFCURVE",
"890 682 OFFCURVE",
"890 815 CURVE SMOOTH",
"890 955 OFFCURVE",
"802 1030 OFFCURVE",
"648 1030 CURVE SMOOTH",
"474 1030 LINE",
"474 900 LINE",
"648 900 LINE SMOOTH",
"706 900 OFFCURVE",
"740 869 OFFCURVE",
"740 815 CURVE SMOOTH",
"740 761 OFFCURVE",
"706 730 OFFCURVE",
"648 730 CURVE SMOOTH",
"494 730 LINE",
"494 600 LINE"
);
}
);
width = 1200;
},
{
layerId = "8E053A5E-67DA-4970-A6F5-068DBFE5AD21";
paths = (
{
closed = 1;
nodes = (
"976 15 OFFCURVE",
"1191 263 OFFCURVE",
"1191 695 CURVE SMOOTH",
"1191 1146 OFFCURVE",
"976 1405 OFFCURVE",
"600 1405 CURVE SMOOTH",
"224 1405 OFFCURVE",
"9 1146 OFFCURVE",
"9 695 CURVE SMOOTH",
"9 263 OFFCURVE",
"224 15 OFFCURVE",
"600 15 CURVE SMOOTH"
);
},
{
closed = 1;
nodes = (
"566 396 LINE",
"566 1030 LINE",
"365 1030 LINE",
"365 396 LINE"
);
},
{
closed = 1;
nodes = (
"900 396 LINE",
"778 652 LINE",
"599 625 LINE",
"688 396 LINE"
);
},
{
closed = 1;
nodes = (
"370 227 OFFCURVE",
"238 398 OFFCURVE",
"238 695 CURVE SMOOTH",
"238 1011 OFFCURVE",
"370 1193 OFFCURVE",
"600 1193 CURVE SMOOTH",
"830 1193 OFFCURVE",
"962 1011 OFFCURVE",
"962 695 CURVE SMOOTH",
"962 398 OFFCURVE",
"830 227 OFFCURVE",
"600 227 CURVE SMOOTH"
);
},
{
closed = 1;
nodes = (
"631 583 LINE SMOOTH",
"785 583 OFFCURVE",
"873 665 OFFCURVE",
"873 808 CURVE SMOOTH",
"873 948 OFFCURVE",
"785 1030 OFFCURVE",
"631 1030 CURVE SMOOTH",
"507 1030 LINE",
"507 867 LINE",
"615 867 LINE SMOOTH",
"657 867 OFFCURVE",
"682 845 OFFCURVE",
"682 807 CURVE SMOOTH",
"682 769 OFFCURVE",
"657 747 OFFCURVE",
"615 747 CURVE SMOOTH",
"527 747 LINE",
"527 583 LINE"
);
}
);
width = 1200;
}
);
unicode = 00AE;
}
{
glyphname = section;
layers = (
{
layerId = master01;
paths = (
{
closed = 1;
nodes = (
"1107 838 OFFCURVE",
"1008 941 OFFCURVE",
"809 984 CURVE SMOOTH",
"533 1043 LINE SMOOTH",
"367 1078 OFFCURVE",
"285 1146 OFFCURVE",
"285 1248 CURVE SMOOTH",
"285 1402 OFFCURVE",
"418 1478 OFFCURVE",
"687 1478 CURVE SMOOTH",
"757 1478 OFFCURVE",
"837 1473 OFFCURVE",
"927 1464 CURVE",
"949 1548 LINE",
"869 1561 OFFCURVE",
"784 1568 OFFCURVE",
"693 1568 CURVE SMOOTH",
"359 1568 OFFCURVE",
"193 1459 OFFCURVE",
"193 1238 CURVE SMOOTH",
"193 1103 OFFCURVE",
"303 1014 OFFCURVE",
"524 970 CURVE",
"524 962 LINE",
"236 963 OFFCURVE",
"93 862 OFFCURVE",
"93 658 CURVE SMOOTH",
"93 497 OFFCURVE",
"202 401 OFFCURVE",
"423 366 CURVE SMOOTH",
"707 321 LINE SMOOTH",
"846 299 OFFCURVE",
"915 226 OFFCURVE",
"915 102 CURVE SMOOTH",
"915 -53 OFFCURVE",
"786 -130 OFFCURVE",
"525 -130 CURVE SMOOTH",
"443 -130 OFFCURVE",
"339 -119 OFFCURVE",
"211 -98 CURVE",
"187 -190 LINE",
"267 -210 OFFCURVE",
"379 -220 OFFCURVE",
"525 -220 CURVE SMOOTH",
"847 -220 OFFCURVE",
"1007 -112 OFFCURVE",
"1007 106 CURVE SMOOTH",
"1007 262 OFFCURVE",
"926 353 OFFCURVE",
"762 380 CURVE",
"762 393 LINE",
"993 395 OFFCURVE",
"1107 488 OFFCURVE",
"1107 674 CURVE SMOOTH"
);
},
{
closed = 1;
nodes = (
"189 828 OFFCURVE",
"328 908 OFFCURVE",
"607 908 CURVE SMOOTH",
"877 908 OFFCURVE",
"1011 829 OFFCURVE",
"1011 670 CURVE SMOOTH",
"1011 515 OFFCURVE",
"883 438 OFFCURVE",
"625 438 CURVE SMOOTH",
"334 438 OFFCURVE",
"189 514 OFFCURVE",
"189 668 CURVE SMOOTH"
);
}
);
width = 1200;
},
{
layerId = "1F90C004-9C90-48FA-B407-176B3E9F1E65";
paths = (
{
closed = 1;
nodes = (
"1131 872 OFFCURVE",
"1028 943 OFFCURVE",
"809 1024 CURVE SMOOTH",
"483 1144 LINE SMOOTH",
"418 1168 OFFCURVE",
"389 1186 OFFCURVE",
"389 1248 CURVE SMOOTH",
"389 1340 OFFCURVE",
"477 1378 OFFCURVE",
"687 1378 CURVE SMOOTH",
"765 1378 OFFCURVE",
"843 1374 OFFCURVE",
"951 1364 CURVE",
"973 1548 LINE",
"879 1562 OFFCURVE",
"795 1568 OFFCURVE",
"693 1568 CURVE SMOOTH",
"325 1568 OFFCURVE",
"169 1470 OFFCURVE",
"169 1238 CURVE SMOOTH",
"169 1084 OFFCURVE",
"233 1027 OFFCURVE",
"464 950 CURVE",
"464 927 LINE",
"187 928 OFFCURVE",
"69 837 OFFCURVE",
"69 658 CURVE SMOOTH",
"69 463 OFFCURVE",
"163 385 OFFCURVE",
"373 320 CURVE SMOOTH",
"727 210 LINE SMOOTH",
"785 192 OFFCURVE",
"811 166 OFFCURVE",
"811 102 CURVE SMOOTH",
"811 10 OFFCURVE",
"725 -30 OFFCURVE",
"525 -30 CURVE SMOOTH",
"429 -30 OFFCURVE",
"327 -20 OFFCURVE",
"187 2 CURVE",
"163 -190 LINE",
"257 -212 OFFCURVE",
"365 -220 OFFCURVE",
"525 -220 CURVE SMOOTH",
"879 -220 OFFCURVE",
"1031 -122 OFFCURVE",
"1031 106 CURVE SMOOTH",
"1031 248 OFFCURVE",
"964 318 OFFCURVE",
"822 375 CURVE",
"822 403 LINE",
"1038 405 OFFCURVE",
"1131 487 OFFCURVE",
"1131 674 CURVE SMOOTH"
);
},
{
closed = 1;
nodes = (
"289 809 OFFCURVE",
"383 868 OFFCURVE",
"607 868 CURVE SMOOTH",
"794 868 OFFCURVE",
"911 827 OFFCURVE",
"911 670 CURVE SMOOTH",
"911 536 OFFCURVE",
"825 478 OFFCURVE",
"625 478 CURVE SMOOTH",
"433 478 OFFCURVE",
"289 517 OFFCURVE",
"289 668 CURVE SMOOTH"
);
}
);
width = 1200;
},
{
layerId = "8E053A5E-67DA-4970-A6F5-068DBFE5AD21";
paths = (
{
closed = 1;
nodes = (
"1148 876 OFFCURVE",
"1036 989 OFFCURVE",
"809 1057 CURVE SMOOTH",
"525 1144 LINE SMOOTH",
"457 1165 OFFCURVE",
"431 1176 OFFCURVE",
"431 1223 CURVE SMOOTH",
"431 1288 OFFCURVE",
"506 1316 OFFCURVE",
"687 1316 CURVE SMOOTH",
"770 1316 OFFCURVE",
"853 1312 OFFCURVE",
"968 1302 CURVE",
"990 1548 LINE",
"890 1562 OFFCURVE",
"801 1568 OFFCURVE",
"693 1568 CURVE SMOOTH",
"313 1568 OFFCURVE",
"152 1470 OFFCURVE",
"152 1238 CURVE SMOOTH",
"152 1088 OFFCURVE",
"220 1033 OFFCURVE",
"464 958 CURVE",
"464 927 LINE",
"175 928 OFFCURVE",
"52 829 OFFCURVE",
"52 633 CURVE SMOOTH",
"52 446 OFFCURVE",
"157 339 OFFCURVE",
"373 287 CURVE SMOOTH",
"685 210 LINE SMOOTH",
"747 195 OFFCURVE",
"769 176 OFFCURVE",
"769 127 CURVE SMOOTH",
"769 61 OFFCURVE",
"696 33 OFFCURVE",
"525 33 CURVE SMOOTH",
"424 33 OFFCURVE",
"317 43 OFFCURVE",
"170 65 CURVE",
"146 -190 LINE",
"245 -212 OFFCURVE",
"358 -220 OFFCURVE",
"525 -220 CURVE SMOOTH",
"891 -220 OFFCURVE",
"1048 -122 OFFCURVE",
"1048 106 CURVE SMOOTH",
"1048 244 OFFCURVE",
"976 311 OFFCURVE",
"822 367 CURVE",
"822 403 LINE",
"1050 405 OFFCURVE",
"1148 490 OFFCURVE",
"1148 682 CURVE SMOOTH"
);
},
{
closed = 1;
nodes = (
"331 780 OFFCURVE",
"412 826 OFFCURVE",
"607 826 CURVE SMOOTH",
"768 826 OFFCURVE",
"869 794 OFFCURVE",
"869 670 CURVE SMOOTH",
"869 565 OFFCURVE",
"796 520 OFFCURVE",
"625 520 CURVE SMOOTH",
"457 520 OFFCURVE",
"331 550 OFFCURVE",
"331 668 CURVE SMOOTH"
);
}
);
width = 1200;
}
);
unicode = 00A7;
}
{
glyphname = sterling;
layers = (
{
layerId = master01;
paths = (
{
closed = 1;
nodes = (
"239 0 LINE",
"239 90 LINE",
"338 275 OFFCURVE",
"386 441 OFFCURVE",
"386 627 CURVE SMOOTH",
"386 1035 LINE SMOOTH",
"386 1239 OFFCURVE",
"523 1350 OFFCURVE",
"722 1350 CURVE SMOOTH",
"845 1350 OFFCURVE",
"955 1282 OFFCURVE",
"1025 1164 CURVE",
"1103 1221 LINE",
"1030 1360 OFFCURVE",
"894 1440 OFFCURVE",
"730 1440 CURVE SMOOTH",
"455 1440 OFFCURVE",
"292 1294 OFFCURVE",
"292 1036 CURVE SMOOTH",
"292 627 LINE SMOOTH",
"292 441 OFFCURVE",
"244 278 OFFCURVE",
"144 90 CURVE",
"144 0 LINE"
);
},
{
closed = 1;
nodes = (
"1084 0 LINE",
"1084 90 LINE",
"204 90 LINE",
"204 0 LINE"
);
},
{
closed = 1;
nodes = (
"885 605 LINE",
"885 695 LINE",
"121 695 LINE",
"121 605 LINE"
);
}
);
width = 1200;
},
{
layerId = "1F90C004-9C90-48FA-B407-176B3E9F1E65";
paths = (
{
closed = 1;
nodes = (
"344 0 LINE",
"344 186 LINE",
"453 338 OFFCURVE",
"506 474 OFFCURVE",
"506 627 CURVE SMOOTH",
"506 1035 LINE SMOOTH",
"506 1178 OFFCURVE",
"586 1256 OFFCURVE",
"702 1256 CURVE SMOOTH",
"802 1256 OFFCURVE",
"891 1197 OFFCURVE",
"947 1094 CURVE",
"1105 1211 LINE",
"1041 1356 OFFCURVE",
"897 1440 OFFCURVE",
"710 1440 CURVE SMOOTH",
"448 1440 OFFCURVE",
"292 1294 OFFCURVE",
"292 1036 CURVE SMOOTH",
"292 627 LINE SMOOTH",
"292 474 OFFCURVE",
"240 340 OFFCURVE",
"132 186 CURVE",
"132 0 LINE"
);
},
{
closed = 1;
nodes = (
"1096 0 LINE",
"1096 186 LINE",
"192 186 LINE",
"192 0 LINE"
);
},
{
closed = 1;
nodes = (
"897 581 LINE",
"897 719 LINE",
"109 719 LINE",
"109 581 LINE"
);
}
);
width = 1200;
},
{
layerId = "8E053A5E-67DA-4970-A6F5-068DBFE5AD21";
paths = (
{
closed = 1;
nodes = (
"427 0 LINE",
"394 243 LINE",
"503 376 OFFCURVE",
"556 494 OFFCURVE",
"556 627 CURVE SMOOTH",
"556 973 LINE SMOOTH",
"556 1111 OFFCURVE",
"636 1187 OFFCURVE",
"752 1187 CURVE SMOOTH",
"825 1187 OFFCURVE",
"889 1140 OFFCURVE",
"930 1057 CURVE",
"1132 1213 LINE",
"1068 1357 OFFCURVE",
"928 1440 OFFCURVE",
"743 1440 CURVE SMOOTH",
"450 1440 OFFCURVE",
"275 1294 OFFCURVE",
"275 1036 CURVE SMOOTH",
"275 627 LINE SMOOTH",
"275 494 OFFCURVE",
"223 377 OFFCURVE",
"115 243 CURVE",
"115 0 LINE"
);
},
{
closed = 1;
nodes = (
"1113 0 LINE",
"1113 243 LINE",
"192 243 LINE",
"192 0 LINE"
);
},
{
closed = 1;
nodes = (
"897 533 LINE",
"897 767 LINE",
"109 767 LINE",
"109 533 LINE"
);
}
);
width = 1200;
}
);
unicode = 00A3;
}
{
glyphname = thorn;
layers = (
{
anchors = (
{
name = bottom;
position = "{600, -460}";
},
{
name = top;
position = "{236, 1460}";
}
);
layerId = master01;
paths = (
{
closed = 1;
nodes = (
"286 -460 LINE",
"286 1500 LINE",
"192 1500 LINE",
"192 -460 LINE"
);
},
{
closed = 1;
nodes = (
"935 -20 OFFCURVE",
"1080 165 OFFCURVE",
"1080 520 CURVE SMOOTH",
"1080 888 OFFCURVE",
"933 1080 OFFCURVE",
"651 1080 CURVE SMOOTH",
"451 1080 OFFCURVE",
"328 992 OFFCURVE",
"295 822 CURVE",
"224 822 LINE",
"286 535 LINE",
"286 833 OFFCURVE",
"407 988 OFFCURVE",
"639 988 CURVE SMOOTH",
"866 988 OFFCURVE",
"984 828 OFFCURVE",
"984 520 CURVE SMOOTH",
"984 226 OFFCURVE",
"865 72 OFFCURVE",
"637 72 CURVE SMOOTH",
"406 72 OFFCURVE",
"286 227 OFFCURVE",
"286 524 CURVE",
"214 250 LINE",
"295 250 LINE",
"329 83 OFFCURVE",
"442 -20 OFFCURVE",
"657 -20 CURVE SMOOTH"
);
}
);
width = 1200;
},
{
anchors = (
{
name = bottom;
position = "{600, -460}";
},
{
name = top;
position = "{236, 1460}";
}
);
layerId = "1F90C004-9C90-48FA-B407-176B3E9F1E65";
paths = (
{
closed = 1;
nodes = (
"380 -460 LINE",
"380 1500 LINE",
"168 1500 LINE",
"168 -460 LINE"
);
},
{
closed = 1;
nodes = (
"959 -20 OFFCURVE",
"1104 165 OFFCURVE",
"1104 520 CURVE SMOOTH",
"1104 888 OFFCURVE",
"959 1080 OFFCURVE",
"681 1080 CURVE SMOOTH",
"522 1080 OFFCURVE",
"417 1001 OFFCURVE",
"400 868 CURVE",
"308 868 LINE",
"380 566 LINE",
"380 785 OFFCURVE",
"467 900 OFFCURVE",
"634 900 CURVE SMOOTH",
"805 900 OFFCURVE",
"894 770 OFFCURVE",
"894 520 CURVE SMOOTH",
"894 283 OFFCURVE",
"805 160 OFFCURVE",
"634 160 CURVE SMOOTH",
"467 160 OFFCURVE",
"380 275 OFFCURVE",
"380 494 CURVE",
"308 192 LINE",
"400 192 LINE",
"413 59 OFFCURVE",
"518 -20 OFFCURVE",
"681 -20 CURVE SMOOTH"
);
}
);
width = 1200;
},
{
anchors = (
{
name = bottom;
position = "{600, -460}";
},
{
name = top;
position = "{236, 1460}";
}
);
layerId = "8E053A5E-67DA-4970-A6F5-068DBFE5AD21";
paths = (
{
closed = 1;
nodes = (
"422 -460 LINE",
"422 1500 LINE",
"151 1500 LINE",
"151 -460 LINE"
);
},
{
closed = 1;
nodes = (
"968 -20 OFFCURVE",
"1121 175 OFFCURVE",
"1121 529 CURVE SMOOTH",
"1121 879 OFFCURVE",
"968 1080 OFFCURVE",
"703 1080 CURVE SMOOTH",
"546 1080 OFFCURVE",
"468 1010 OFFCURVE",
"444 868 CURVE",
"360 868 LINE",
"422 529 LINE",
"422 734 OFFCURVE",
"491 825 OFFCURVE",
"629 825 CURVE SMOOTH",
"766 825 OFFCURVE",
"844 717 OFFCURVE",
"844 529 CURVE SMOOTH",
"844 334 OFFCURVE",
"770 235 OFFCURVE",
"629 235 CURVE SMOOTH",
"475 235 OFFCURVE",
"422 323 OFFCURVE",
"422 529 CURVE",
"350 192 LINE",
"444 192 LINE",
"465 51 OFFCURVE",
"557 -20 OFFCURVE",
"705 -20 CURVE SMOOTH"
);
}
);
width = 1200;
}
);
unicode = 00FE;
}
{
glyphname = threequarters;
layers = (
{
components = (
{
name = foursuperior;
transform = "{1, 0, 0, 1, 240, -802}";
},
{
name = threesuperior;
transform = "{1, 0, 0, 1, -240, 0}";
}
);
layerId = master01;
paths = (
{
closed = 1;
nodes = (
"1078 1020 LINE",
"1024 1096 LINE",
"132 372 LINE",
"186 296 LINE"
);
}
);
width = 1200;
},
{
components = (
{
name = foursuperior;
transform = "{1, 0, 0, 1, 240, -802}";
},
{
name = threesuperior;
transform = "{1, 0, 0, 1, -240, 0}";
}
);
layerId = "1F90C004-9C90-48FA-B407-176B3E9F1E65";
paths = (
{
closed = 1;
nodes = (
"1116 966 LINE",
"1024 1096 LINE",
"94 432 LINE",
"186 296 LINE"
);
}
);
width = 1200;
},
{
components = (
{
alignment = -1;
name = foursuperior;
transform = "{1, 0, 0, 1, 240, -802}";
},
{
alignment = -1;
name = threesuperior;
transform = "{1, 0, 0, 1, -240, 0}";
}
);
layerId = "8E053A5E-67DA-4970-A6F5-068DBFE5AD21";
paths = (
{
closed = 1;
nodes = (
"1121 969 LINE",
"989 1143 LINE",
"79 449 LINE",
"211 269 LINE"
);
}
);
width = 1200;
},
{
associatedMasterId = master01;
components = (
{
name = foursuperior;
transform = "{1, 0, 0, 1, 240, -802}";
},
{
name = threesuperior;
transform = "{1, 0, 0, 1, -240, 0}";
}
);
layerId = "35264471-6646-4646-9CA4-36D07BB4EEA2";
name = "[500]";
paths = (
{
closed = 1;
nodes = (
"601 639 LINE",
"547 714 LINE",
"132 372 LINE",
"186 296 LINE"
);
},
{
closed = 1;
nodes = (
"1078 1020 LINE",
"1024 1096 LINE",
"599 754 LINE",
"653 678 LINE"
);
}
);
width = 1200;
},
{
associatedMasterId = "1F90C004-9C90-48FA-B407-176B3E9F1E65";
components = (
{
name = foursuperior;
transform = "{1, 0, 0, 1, 240, -802}";
},
{
name = threesuperior;
transform = "{1, 0, 0, 1, -240, 0}";
}
);
layerId = "13EB7DFF-FB36-402E-9AF7-E3AD9AA7F283";
name = "[500]";
paths = (
{
closed = 1;
nodes = (
"582 610 LINE",
"520 706 LINE",
"94 432 LINE",
"186 296 LINE"
);
},
{
closed = 1;
nodes = (
"1116 966 LINE",
"1024 1096 LINE",
"634 779 LINE",
"696 689 LINE"
);
}
);
width = 1200;
},
{
associatedMasterId = "8E053A5E-67DA-4970-A6F5-068DBFE5AD21";
components = (
{
alignment = -1;
name = foursuperior;
transform = "{1, 0, 0, 1, 240, -802}";
},
{
alignment = -1;
name = threesuperior;
transform = "{1, 0, 0, 1, -240, 0}";
}
);
layerId = "C0056D04-4202-4765-9F40-E3A1D704AB6E";
name = "[500]";
paths = (
{
closed = 1;
nodes = (
"577 593 LINE",
"484 715 LINE",
"79 449 LINE",
"211 269 LINE"
);
},
{
closed = 1;
nodes = (
"1121 969 LINE",
"989 1143 LINE",
"617 814 LINE",
"710 692 LINE"
);
}
);
width = 1200;
}
);
unicode = 00BE;
}
{
glyphname = threesuperior;
production = uni00B3;
layers = (
{
layerId = master01;
paths = (
{
closed = 1;
nodes = (
"733 795 OFFCURVE",
"831 857 OFFCURVE",
"831 968 CURVE SMOOTH",
"831 1062 OFFCURVE",
"748 1116 OFFCURVE",
"624 1126 CURVE",
"491 1115 LINE",
"491 1072 LINE",
"555 1072 LINE SMOOTH",
"670 1072 OFFCURVE",
"736 1041 OFFCURVE",
"736 987 CURVE SMOOTH",
"736 922 OFFCURVE",
"667 885 OFFCURVE",
"548 885 CURVE SMOOTH",
"485 885 OFFCURVE",
"434 898 OFFCURVE",
"396 906 CURVE",
"368 819 LINE",
"419 802 OFFCURVE",
"485 792 OFFCURVE",
"562 793 CURVE SMOOTH"
);
},
{
closed = 1;
nodes = (
"639 1087 LINE",
"639 1134 LINE",
"744 1153 OFFCURVE",
"814 1210 OFFCURVE",
"814 1282 CURVE SMOOTH",
"814 1384 OFFCURVE",
"731 1440 OFFCURVE",
"582 1440 CURVE SMOOTH",
"507 1440 OFFCURVE",
"439 1431 OFFCURVE",
"380 1410 CURVE",
"393 1319 LINE",
"445 1338 OFFCURVE",
"503 1348 OFFCURVE",
"572 1348 CURVE SMOOTH",
"670 1348 OFFCURVE",
"718 1326 OFFCURVE",
"718 1281 CURVE SMOOTH",
"718 1223 OFFCURVE",
"648 1178 OFFCURVE",
"481 1162 CURVE",
"491 1072 LINE"
);
}
);
width = 1200;
},
{
layerId = "1F90C004-9C90-48FA-B407-176B3E9F1E65";
paths = (
{
closed = 1;
nodes = (
"748 795 OFFCURVE",
"855 864 OFFCURVE",
"855 988 CURVE SMOOTH",
"855 1078 OFFCURVE",
"778 1130 OFFCURVE",
"664 1140 CURVE SMOOTH",
"491 1155 LINE",
"491 1059 LINE",
"555 1059 LINE SMOOTH",
"636 1059 OFFCURVE",
"682 1040 OFFCURVE",
"682 1007 CURVE SMOOTH",
"682 967 OFFCURVE",
"633 944 OFFCURVE",
"548 944 CURVE SMOOTH",
"480 944 OFFCURVE",
"426 957 OFFCURVE",
"385 965 CURVE",
"344 819 LINE",
"401 802 OFFCURVE",
"475 792 OFFCURVE",
"562 793 CURVE SMOOTH"
);
},
{
closed = 1;
nodes = (
"689 1089 LINE",
"689 1161 LINE",
"778 1179 OFFCURVE",
"838 1233 OFFCURVE",
"838 1302 CURVE SMOOTH",
"838 1391 OFFCURVE",
"746 1440 OFFCURVE",
"582 1440 CURVE SMOOTH",
"498 1440 OFFCURVE",
"422 1431 OFFCURVE",
"356 1410 CURVE",
"377 1261 LINE",
"428 1280 OFFCURVE",
"485 1290 OFFCURVE",
"552 1290 CURVE SMOOTH",
"624 1290 OFFCURVE",
"664 1271 OFFCURVE",
"664 1241 CURVE SMOOTH",
"664 1209 OFFCURVE",
"610 1184 OFFCURVE",
"481 1175 CURVE",
"491 1059 LINE"
);
}
);
width = 1200;
},
{
layerId = "8E053A5E-67DA-4970-A6F5-068DBFE5AD21";
paths = (
{
closed = 1;
nodes = (
"759 795 OFFCURVE",
"872 858 OFFCURVE",
"872 971 CURVE SMOOTH",
"872 1061 OFFCURVE",
"788 1104 OFFCURVE",
"664 1123 CURVE SMOOTH",
"458 1155 LINE",
"458 1042 LINE",
"555 1042 LINE SMOOTH",
"604 1042 OFFCURVE",
"632 1033 OFFCURVE",
"632 1015 CURVE SMOOTH",
"632 986 OFFCURVE",
"601 969 OFFCURVE",
"548 969 CURVE SMOOTH",
"473 969 OFFCURVE",
"414 982 OFFCURVE",
"368 990 CURVE",
"327 819 LINE",
"389 802 OFFCURVE",
"468 792 OFFCURVE",
"562 793 CURVE SMOOTH"
);
},
{
closed = 1;
nodes = (
"689 1089 LINE",
"689 1153 LINE",
"788 1172 OFFCURVE",
"855 1229 OFFCURVE",
"855 1302 CURVE SMOOTH",
"855 1391 OFFCURVE",
"757 1440 OFFCURVE",
"582 1440 CURVE SMOOTH",
"492 1440 OFFCURVE",
"410 1431 OFFCURVE",
"339 1410 CURVE",
"360 1236 LINE",
"416 1255 OFFCURVE",
"478 1265 OFFCURVE",
"552 1265 CURVE SMOOTH",
"592 1265 OFFCURVE",
"614 1253 OFFCURVE",
"614 1233 CURVE SMOOTH",
"614 1213 OFFCURVE",
"565 1197 OFFCURVE",
"448 1192 CURVE",
"458 1042 LINE"
);
}
);
width = 1200;
}
);
unicode = 00B3;
}
{
glyphname = twosuperior;
production = uni00B2;
layers = (
{
layerId = master01;
paths = (
{
closed = 1;
nodes = (
"521 802 LINE",
"521 905 LINE",
"722 988 OFFCURVE",
"821 1100 OFFCURVE",
"821 1242 CURVE SMOOTH",
"821 1374 OFFCURVE",
"743 1440 OFFCURVE",
"587 1440 CURVE SMOOTH",
"492 1440 OFFCURVE",
"417 1420 OFFCURVE",
"354 1382 CURVE",
"389 1298 LINE",
"456 1331 OFFCURVE",
"527 1348 OFFCURVE",
"587 1348 CURVE SMOOTH",
"679 1348 OFFCURVE",
"725 1312 OFFCURVE",
"725 1240 CURVE SMOOTH",
"725 1124 OFFCURVE",
"611 1021 OFFCURVE",
"379 909 CURVE",
"379 802 LINE"
);
},
{
closed = 1;
nodes = (
"847 802 LINE",
"847 892 LINE",
"405 892 LINE",
"405 802 LINE"
);
}
);
width = 1200;
},
{
layerId = "1F90C004-9C90-48FA-B407-176B3E9F1E65";
paths = (
{
closed = 1;
nodes = (
"600 802 LINE",
"600 955 LINE",
"764 1043 OFFCURVE",
"844 1138 OFFCURVE",
"844 1242 CURVE SMOOTH",
"844 1361 OFFCURVE",
"742 1440 OFFCURVE",
"586 1440 CURVE SMOOTH",
"481 1440 OFFCURVE",
"408 1426 OFFCURVE",
"329 1382 CURVE",
"388 1244 LINE",
"442 1267 OFFCURVE",
"500 1280 OFFCURVE",
"549 1280 CURVE SMOOTH",
"617 1280 OFFCURVE",
"651 1248 OFFCURVE",
"651 1187 CURVE SMOOTH",
"651 1107 OFFCURVE",
"553 1029 OFFCURVE",
"354 959 CURVE",
"354 802 LINE"
);
},
{
closed = 1;
nodes = (
"870 802 LINE",
"870 942 LINE",
"380 942 LINE",
"380 802 LINE"
);
}
);
width = 1200;
},
{
layerId = "8E053A5E-67DA-4970-A6F5-068DBFE5AD21";
paths = (
{
closed = 1;
nodes = (
"675 802 LINE",
"675 1047 LINE",
"804 1114 OFFCURVE",
"861 1179 OFFCURVE",
"861 1259 CURVE SMOOTH",
"861 1368 OFFCURVE",
"759 1440 OFFCURVE",
"603 1440 CURVE SMOOTH",
"484 1440 OFFCURVE",
"379 1419 OFFCURVE",
"312 1380 CURVE",
"378 1192 LINE",
"430 1217 OFFCURVE",
"485 1230 OFFCURVE",
"532 1230 CURVE SMOOTH",
"578 1230 OFFCURVE",
"601 1216 OFFCURVE",
"601 1187 CURVE SMOOTH",
"601 1130 OFFCURVE",
"514 1075 OFFCURVE",
"337 1026 CURVE",
"337 802 LINE"
);
},
{
closed = 1;
nodes = (
"887 802 LINE",
"887 1009 LINE",
"363 1009 LINE",
"363 802 LINE"
);
}
);
width = 1200;
}
);
unicode = 00B2;
}
{
glyphname = Asmall;
layers = (
{
anchors = (
{
name = bottom;
position = "{600, 0}";
},
{
name = ogonek;
position = "{1080, 8}";
},
{
name = top;
position = "{600, 1079}";
}
);
layerId = master01;
paths = (
{
closed = 1;
nodes = (
"168 0 LINE",
"595 1004 LINE",
"605 1004 LINE",
"1032 0 LINE",
"1133 0 LINE",
"671 1079 LINE",
"529 1079 LINE",
"67 0 LINE"
);
},
{
closed = 1;
nodes = (
"955 293 LINE",
"955 378 LINE",
"235 378 LINE",
"235 293 LINE"
);
}
);
width = 1200;
},
{
anchors = (
{
name = bottom;
position = "{600, 0}";
},
{
name = ogonek;
position = "{1080, 8}";
},
{
name = top;
position = "{600, 1079}";
}
);
layerId = "1F90C004-9C90-48FA-B407-176B3E9F1E65";
paths = (
{
closed = 1;
nodes = (
"258 0 LINE",
"591 885 LINE",
"608 885 LINE",
"941 0 LINE",
"1153 0 LINE",
"730 1079 LINE",
"469 1079 LINE",
"46 0 LINE"
);
},
{
closed = 1;
nodes = (
"955 229 LINE",
"955 393 LINE",
"235 393 LINE",
"235 229 LINE"
);
}
);
width = 1200;
},
{
anchors = (
{
name = bottom;
position = "{600, 0}";
},
{
name = ogonek;
position = "{1080, 8}";
},
{
name = top;
position = "{600, 1079}";
}
);
layerId = "8E053A5E-67DA-4970-A6F5-068DBFE5AD21";
paths = (
{
closed = 1;
nodes = (
"295 0 LINE",
"591 831 LINE",
"609 831 LINE",
"905 0 LINE",
"1165 0 LINE",
"755 1079 LINE",
"445 1079 LINE",
"35 0 LINE"
);
},
{
closed = 1;
nodes = (
"955 197 LINE",
"955 407 LINE",
"235 407 LINE",
"235 197 LINE"
);
}
);
width = 1200;
}
);
unicode = 1D00;
}
{
glyphname = Ezh;
production = uni01B7;
layers = (
{
anchors = (
{
name = bottom;
position = "{600, 0}";
},
{
name = top;
position = "{600, 1420}";
}
);
layerId = master01;
paths = (
{
closed = 1;
nodes = (
"879 -20 OFFCURVE",
"1058 127 OFFCURVE",
"1058 384 CURVE SMOOTH",
"1058 651 OFFCURVE",
"851 787 OFFCURVE",
"434 793 CURVE",
"434 752 LINE",
"992 1317 LINE",
"992 1420 LINE",
"187 1420 LINE",
"187 1330 LINE",
"920 1330 LINE",
"941 1391 LINE",
"323 765 LINE",
"337 703 LINE",
"434 703 LINE SMOOTH",
"787 703 OFFCURVE",
"962 598 OFFCURVE",
"962 385 CURVE SMOOTH",
"962 185 OFFCURVE",
"819 70 OFFCURVE",
"571 70 CURVE SMOOTH",
"403 70 OFFCURVE",
"305 112 OFFCURVE",
"165 218 CURVE",
"98 151 LINE",
"219 37 OFFCURVE",
"372 -20 OFFCURVE",
"566 -20 CURVE SMOOTH"
);
}
);
width = 1200;
},
{
anchors = (
{
name = bottom;
position = "{600, 0}";
},
{
name = top;
position = "{600, 1420}";
}
);
layerId = "1F90C004-9C90-48FA-B407-176B3E9F1E65";
paths = (
{
closed = 1;
nodes = (
"880 -20 OFFCURVE",
"1082 149 OFFCURVE",
"1082 409 CURVE SMOOTH",
"1082 669 OFFCURVE",
"890 821 OFFCURVE",
"554 826 CURVE",
"554 783 LINE",
"1016 1219 LINE",
"1016 1420 LINE",
"163 1420 LINE",
"163 1234 LINE",
"840 1234 LINE",
"841 1295 LINE",
"319 796 LINE",
"339 672 LINE",
"474 672 LINE SMOOTH",
"728 672 OFFCURVE",
"874 575 OFFCURVE",
"874 405 CURVE SMOOTH",
"874 254 OFFCURVE",
"757 164 OFFCURVE",
"561 164 CURVE SMOOTH",
"419 164 OFFCURVE",
"336 200 OFFCURVE",
"218 292 CURVE",
"74 151 LINE",
"198 37 OFFCURVE",
"356 -20 OFFCURVE",
"556 -20 CURVE SMOOTH"
);
}
);
width = 1200;
},
{
anchors = (
{
name = bottom;
position = "{600, 0}";
},
{
name = top;
position = "{600, 1420}";
}
);
layerId = "8E053A5E-67DA-4970-A6F5-068DBFE5AD21";
paths = (
{
closed = 1;
nodes = (
"890 -20 OFFCURVE",
"1099 149 OFFCURVE",
"1099 409 CURVE SMOOTH",
"1099 692 OFFCURVE",
"901 859 OFFCURVE",
"554 864 CURVE",
"662 821 LINE",
"1033 1162 LINE",
"1033 1420 LINE",
"146 1420 LINE",
"146 1177 LINE",
"840 1177 LINE",
"758 1238 LINE",
"319 834 LINE",
"339 626 LINE",
"474 626 LINE SMOOTH",
"696 626 OFFCURVE",
"822 552 OFFCURVE",
"822 422 CURVE SMOOTH",
"822 303 OFFCURVE",
"725 232 OFFCURVE",
"561 232 CURVE SMOOTH",
"429 232 OFFCURVE",
"353 268 OFFCURVE",
"243 359 CURVE",
"57 151 LINE",
"186 37 OFFCURVE",
"349 -20 OFFCURVE",
"556 -20 CURVE SMOOTH"
);
}
);
width = 1200;
}
);
unicode = 01B7;
}
{
glyphname = Germandbls;
production = uni1E9E;
layers = (
{
anchors = (
{
name = bottom;
position = "{600, 0}";
},
{
name = top;
position = "{600, 1420}";
}
);
layerId = master01;
paths = (
{
closed = 1;
nodes = (
"260 0 LINE",
"260 930 LINE SMOOTH",
"260 1224 OFFCURVE",
"378 1351 OFFCURVE",
"656 1350 CURVE SMOOTH",
"787 1350 OFFCURVE",
"890 1308 OFFCURVE",
"1003 1210 CURVE",
"1078 1270 LINE",
"960 1389 OFFCURVE",
"834 1440 OFFCURVE",
"656 1440 CURVE SMOOTH",
"312 1440 OFFCURVE",
"166 1288 OFFCURVE",
"166 930 CURVE SMOOTH",
"166 0 LINE"
);
},
{
closed = 1;
nodes = (
"960 -20 OFFCURVE",
"1131 138 OFFCURVE",
"1131 415 CURVE SMOOTH",
"1131 617 OFFCURVE",
"1004 778 OFFCURVE",
"783 856 CURVE",
"781 817 LINE",
"1079 1270 LINE",
"989 1300 LINE",
"658 794 LINE",
"751 764 LINE SMOOTH",
"932 706 OFFCURVE",
"1035 578 OFFCURVE",
"1035 415 CURVE SMOOTH",
"1035 196 OFFCURVE",
"904 70 OFFCURVE",
"677 70 CURVE SMOOTH",
"615 70 OFFCURVE",
"545 77 OFFCURVE",
"485 88 CURVE",
"459 3 LINE",
"509 -11 OFFCURVE",
"583 -20 OFFCURVE",
"661 -20 CURVE SMOOTH"
);
}
);
width = 1200;
},
{
anchors = (
{
name = bottom;
position = "{600, 0}";
},
{
name = top;
position = "{600, 1420}";
}
);
layerId = "1F90C004-9C90-48FA-B407-176B3E9F1E65";
paths = (
{
closed = 1;
nodes = (
"348 0 LINE",
"348 930 LINE SMOOTH",
"348 1154 OFFCURVE",
"440 1251 OFFCURVE",
"656 1250 CURVE SMOOTH",
"749 1250 OFFCURVE",
"840 1210 OFFCURVE",
"933 1130 CURVE",
"1104 1270 LINE",
"974 1384 OFFCURVE",
"826 1440 OFFCURVE",
"656 1440 CURVE SMOOTH",
"294 1440 OFFCURVE",
"140 1288 OFFCURVE",
"140 930 CURVE SMOOTH",
"140 0 LINE"
);
},
{
closed = 1;
nodes = (
"976 -20 OFFCURVE",
"1157 150 OFFCURVE",
"1157 446 CURVE SMOOTH",
"1157 678 OFFCURVE",
"1021 834 OFFCURVE",
"783 876 CURVE",
"821 837 LINE",
"1105 1270 LINE",
"879 1270 LINE",
"546 754 LINE",
"721 704 LINE SMOOTH",
"863 663 OFFCURVE",
"943 560 OFFCURVE",
"943 432 CURVE SMOOTH",
"943 267 OFFCURVE",
"846 172 OFFCURVE",
"677 172 CURVE SMOOTH",
"615 172 OFFCURVE",
"545 179 OFFCURVE",
"485 190 CURVE",
"459 3 LINE",
"509 -11 OFFCURVE",
"583 -20 OFFCURVE",
"661 -20 CURVE SMOOTH"
);
}
);
width = 1200;
},
{
anchors = (
{
name = bottom;
position = "{600, 0}";
},
{
name = top;
position = "{600, 1420}";
}
);
layerId = "8E053A5E-67DA-4970-A6F5-068DBFE5AD21";
paths = (
{
closed = 1;
nodes = (
"387 0 LINE",
"387 930 LINE SMOOTH",
"387 1111 OFFCURVE",
"467 1189 OFFCURVE",
"656 1188 CURVE SMOOTH",
"749 1188 OFFCURVE",
"840 1148 OFFCURVE",
"933 1068 CURVE",
"1121 1270 LINE",
"986 1384 OFFCURVE",
"833 1440 OFFCURVE",
"656 1440 CURVE SMOOTH",
"282 1440 OFFCURVE",
"123 1288 OFFCURVE",
"123 930 CURVE SMOOTH",
"123 0 LINE"
);
},
{
closed = 1;
nodes = (
"987 -20 OFFCURVE",
"1174 150 OFFCURVE",
"1174 446 CURVE SMOOTH",
"1174 678 OFFCURVE",
"1032 834 OFFCURVE",
"783 876 CURVE",
"878 805 LINE",
"1122 1270 LINE",
"821 1208 LINE",
"546 687 LINE",
"721 637 LINE SMOOTH",
"833 605 OFFCURVE",
"896 528 OFFCURVE",
"896 432 CURVE SMOOTH",
"896 305 OFFCURVE",
"816 233 OFFCURVE",
"677 233 CURVE SMOOTH",
"615 233 OFFCURVE",
"545 240 OFFCURVE",
"485 251 CURVE",
"459 3 LINE",
"509 -11 OFFCURVE",
"583 -20 OFFCURVE",
"661 -20 CURVE SMOOTH"
);
}
);
width = 1200;
}
);
unicode = 1E9E;
}
{
glyphname = Gstroke;
layers = (
{
anchors = (
{
name = bottom;
position = "{715, 0}";
},
{
name = top;
position = "{695, 1420}";
}
);
layerId = master01;
paths = (
{
closed = 1;
nodes = (
"852 -20 OFFCURVE",
"983 22 OFFCURVE",
"1036 40 CURVE",
"978 120 LINE",
"921 102 OFFCURVE",
"831 70 OFFCURVE",
"716 70 CURVE SMOOTH",
"373 70 OFFCURVE",
"176 308 OFFCURVE",
"176 722 CURVE SMOOTH",
"176 1121 OFFCURVE",
"366 1350 OFFCURVE",
"696 1350 CURVE SMOOTH",
"825 1350 OFFCURVE",
"943 1302 OFFCURVE",
"1020 1217 CURVE",
"1089 1285 LINE",
"1012 1384 OFFCURVE",
"865 1440 OFFCURVE",
"684 1440 CURVE SMOOTH",
"300 1440 OFFCURVE",
"80 1175 OFFCURVE",
"80 712 CURVE SMOOTH",
"80 247 OFFCURVE",
"303 -20 OFFCURVE",
"692 -20 CURVE SMOOTH"
);
},
{
closed = 1;
nodes = (
"1036 40 LINE",
"1036 660 LINE",
"942 660 LINE",
"942 40 LINE"
);
},
{
closed = 1;
nodes = (
"1200 424 LINE",
"1200 512 LINE",
"630 512 LINE",
"630 424 LINE"
);
}
);
width = 1200;
},
{
anchors = (
{
name = bottom;
position = "{715, 0}";
},
{
name = top;
position = "{695, 1420}";
}
);
layerId = "1F90C004-9C90-48FA-B407-176B3E9F1E65";
paths = (
{
closed = 1;
nodes = (
"873 -20 OFFCURVE",
"1017 22 OFFCURVE",
"1070 40 CURVE",
"992 214 LINE",
"934 196 OFFCURVE",
"843 164 OFFCURVE",
"726 164 CURVE SMOOTH",
"430 164 OFFCURVE",
"280 350 OFFCURVE",
"280 722 CURVE SMOOTH",
"280 1062 OFFCURVE",
"437 1256 OFFCURVE",
"706 1256 CURVE SMOOTH",
"812 1256 OFFCURVE",
"909 1204 OFFCURVE",
"971 1114 CURVE",
"1120 1262 LINE",
"1049 1375 OFFCURVE",
"893 1440 OFFCURVE",
"694 1440 CURVE SMOOTH",
"296 1440 OFFCURVE",
"66 1174 OFFCURVE",
"66 712 CURVE SMOOTH",
"66 224 OFFCURVE",
"278 -20 OFFCURVE",
"702 -20 CURVE SMOOTH"
);
},
{
closed = 1;
nodes = (
"1070 40 LINE",
"1070 710 LINE",
"872 710 LINE",
"872 40 LINE"
);
},
{
closed = 1;
nodes = (
"1200 370 LINE",
"1200 560 LINE",
"640 560 LINE",
"640 370 LINE"
);
}
);
width = 1200;
},
{
anchors = (
{
name = bottom;
position = "{715, 0}";
},
{
name = top;
position = "{695, 1420}";
}
);
layerId = "8E053A5E-67DA-4970-A6F5-068DBFE5AD21";
paths = (
{
closed = 1;
nodes = (
"880 -20 OFFCURVE",
"1030 22 OFFCURVE",
"1086 40 CURVE",
"991 282 LINE",
"933 264 OFFCURVE",
"842 232 OFFCURVE",
"725 232 CURVE SMOOTH",
"460 232 OFFCURVE",
"326 395 OFFCURVE",
"326 722 CURVE SMOOTH",
"326 1019 OFFCURVE",
"465 1189 OFFCURVE",
"705 1189 CURVE SMOOTH",
"811 1189 OFFCURVE",
"908 1142 OFFCURVE",
"970 1063 CURVE",
"1136 1254 LINE",
"1062 1372 OFFCURVE",
"900 1440 OFFCURVE",
"693 1440 CURVE SMOOTH",
"284 1440 OFFCURVE",
"48 1174 OFFCURVE",
"48 712 CURVE SMOOTH",
"48 224 OFFCURVE",
"266 -20 OFFCURVE",
"701 -20 CURVE SMOOTH"
);
},
{
closed = 1;
nodes = (
"1086 40 LINE",
"1086 775 LINE",
"824 775 LINE",
"824 40 LINE"
);
},
{
closed = 1;
nodes = (
"1219 387 LINE",
"1219 630 LINE",
"639 630 LINE",
"639 387 LINE"
);
}
);
width = 1200;
}
);
unicode = 01E4;
}
{
glyphname = Oogonek;
production = uni01EA;
layers = (
{
anchors = (
{
name = bottom;
position = "{600, -388}";
}
);
components = (
{
name = O;
}
);
layerId = master01;
paths = (
{
closed = 1;
nodes = (
"659 -424 OFFCURVE",
"694 -423 OFFCURVE",
"726 -415 CURVE",
"733 -332 LINE",
"706 -335 OFFCURVE",
"679 -337 OFFCURVE",
"658 -337 CURVE SMOOTH",
"555 -337 OFFCURVE",
"496 -291 OFFCURVE",
"496 -208 CURVE SMOOTH",
"496 -84 OFFCURVE",
"596 -45 OFFCURVE",
"770 5 CURVE",
"625 32 LINE",
"533 34 LINE",
"533 -26 LINE",
"450 -60 OFFCURVE",
"402 -130 OFFCURVE",
"402 -218 CURVE SMOOTH",
"402 -349 OFFCURVE",
"486 -424 OFFCURVE",
"632 -424 CURVE SMOOTH"
);
}
);
width = 1200;
},
{
anchors = (
{
name = bottom;
position = "{600, -388}";
}
);
components = (
{
name = O;
}
);
layerId = "1F90C004-9C90-48FA-B407-176B3E9F1E65";
paths = (
{
closed = 1;
nodes = (
"684 -424 OFFCURVE",
"714 -421 OFFCURVE",
"748 -415 CURVE",
"766 -245 LINE",
"733 -253 OFFCURVE",
"706 -256 OFFCURVE",
"684 -256 CURVE SMOOTH",
"591 -256 OFFCURVE",
"568 -203 OFFCURVE",
"568 -168 CURVE SMOOTH",
"568 -55 OFFCURVE",
"687 -27 OFFCURVE",
"786 8 CURVE",
"742 40 LINE",
"532 30 LINE",
"532 -40 LINE",
"460 -64 OFFCURVE",
"418 -134 OFFCURVE",
"418 -232 CURVE SMOOTH",
"418 -354 OFFCURVE",
"505 -424 OFFCURVE",
"658 -424 CURVE SMOOTH"
);
}
);
width = 1200;
},
{
anchors = (
{
name = bottom;
position = "{600, -388}";
}
);
components = (
{
alignment = -1;
name = O;
}
);
layerId = "8E053A5E-67DA-4970-A6F5-068DBFE5AD21";
paths = (
{
closed = 1;
nodes = (
"689 -432 OFFCURVE",
"724 -427 OFFCURVE",
"765 -415 CURVE",
"783 -203 LINE",
"753 -211 OFFCURVE",
"729 -214 OFFCURVE",
"709 -214 CURVE SMOOTH",
"643 -214 OFFCURVE",
"626 -176 OFFCURVE",
"626 -151 CURVE SMOOTH",
"626 -49 OFFCURVE",
"714 -24 OFFCURVE",
"786 8 CURVE",
"742 40 LINE",
"532 30 LINE",
"532 -48 LINE",
"449 -72 OFFCURVE",
"401 -138 OFFCURVE",
"401 -232 CURVE SMOOTH",
"401 -359 OFFCURVE",
"494 -432 OFFCURVE",
"658 -432 CURVE SMOOTH"
);
}
);
width = 1200;
}
);
unicode = 01EA;
}
{
glyphname = Uhorn;
layers = (
{
components = (
{
name = U;
}
);
layerId = master01;
paths = (
{
closed = 1;
nodes = (
"1028 1345 LINE SMOOTH",
"1202 1375 OFFCURVE",
"1278 1460 OFFCURVE",
"1278 1653 CURVE",
"1186 1653 LINE",
"1186 1512 OFFCURVE",
"1132 1451 OFFCURVE",
"1008 1430 CURVE SMOOTH",
"948 1420 LINE",
"968 1335 LINE"
);
}
);
width = 1200;
},
{
components = (
{
name = U;
}
);
layerId = "1F90C004-9C90-48FA-B407-176B3E9F1E65";
paths = (
{
closed = 1;
nodes = (
"971 1265 LINE SMOOTH",
"1189 1301 OFFCURVE",
"1298 1428 OFFCURVE",
"1298 1653 CURVE",
"1106 1653 LINE",
"1106 1523 OFFCURVE",
"1045 1450 OFFCURVE",
"921 1430 CURVE SMOOTH",
"860 1420 LINE",
"911 1255 LINE"
);
}
);
width = 1200;
},
{
components = (
{
alignment = -1;
name = U;
}
);
layerId = "8E053A5E-67DA-4970-A6F5-068DBFE5AD21";
paths = (
{
closed = 1;
nodes = (
"971 1215 LINE SMOOTH",
"1190 1252 OFFCURVE",
"1298 1399 OFFCURVE",
"1298 1653 CURVE",
"1039 1653 LINE",
"1039 1518 OFFCURVE",
"987 1425 OFFCURVE",
"877 1422 CURVE SMOOTH",
"827 1420 LINE",
"911 1205 LINE"
);
}
);
width = 1200;
}
);
unicode = 01AF;
}
{
glyphname = Upsilonafrican;
layers = (
{
anchors = (
{
name = bottom;
position = "{600, 0}";
},
{
name = top;
position = "{600, 1420}";
}
);
layerId = master01;
paths = (
{
closed = 1;
nodes = (
"350 1321 LINE",
"203 1226 OFFCURVE",
"100 1038 OFFCURVE",
"100 660 CURVE SMOOTH",
"100 213 OFFCURVE",
"271 -20 OFFCURVE",
"600 -20 CURVE SMOOTH",
"929 -20 OFFCURVE",
"1100 213 OFFCURVE",
"1100 660 CURVE SMOOTH",
"1100 1044 OFFCURVE",
"1005 1232 OFFCURVE",
"874 1321 CURVE",
"874 1361 LINE",
"694 1330 LINE",
"900 1248 OFFCURVE",
"1004 1026 OFFCURVE",
"1004 660 CURVE SMOOTH",
"1004 272 OFFCURVE",
"865 70 OFFCURVE",
"600 70 CURVE SMOOTH",
"335 70 OFFCURVE",
"196 272 OFFCURVE",
"196 660 CURVE SMOOTH",
"196 1019 OFFCURVE",
"308 1241 OFFCURVE",
"530 1330 CURVE",
"350 1369 LINE"
);
},
{
closed = 1;
nodes = (
"128 1330 LINE",
"530 1330 LINE",
"530 1420 LINE",
"128 1420 LINE"
);
},
{
closed = 1;
nodes = (
"694 1330 LINE",
"1072 1330 LINE",
"1072 1420 LINE",
"694 1420 LINE"
);
}
);
width = 1200;
},
{
anchors = (
{
name = bottom;
position = "{600, 0}";
},
{
name = top;
position = "{600, 1420}";
}
);
layerId = "1F90C004-9C90-48FA-B407-176B3E9F1E65";
paths = (
{
closed = 1;
nodes = (
"350 1217 LINE",
"167 1157 OFFCURVE",
"76 965 OFFCURVE",
"76 640 CURVE SMOOTH",
"76 220 OFFCURVE",
"267 -20 OFFCURVE",
"600 -20 CURVE SMOOTH",
"933 -20 OFFCURVE",
"1124 220 OFFCURVE",
"1124 640 CURVE SMOOTH",
"1124 970 OFFCURVE",
"1041 1161 OFFCURVE",
"874 1214 CURVE",
"874 1285 LINE",
"694 1234 LINE",
"841 1179 OFFCURVE",
"914 981 OFFCURVE",
"914 640 CURVE SMOOTH",
"914 337 OFFCURVE",
"800 164 OFFCURVE",
"600 164 CURVE SMOOTH",
"400 164 OFFCURVE",
"286 337 OFFCURVE",
"286 640 CURVE SMOOTH",
"286 975 OFFCURVE",
"367 1173 OFFCURVE",
"530 1234 CURVE",
"350 1293 LINE"
);
},
{
closed = 1;
nodes = (
"104 1234 LINE",
"530 1234 LINE",
"530 1420 LINE",
"104 1420 LINE"
);
},
{
closed = 1;
nodes = (
"694 1234 LINE",
"1096 1234 LINE",
"1096 1420 LINE",
"694 1420 LINE"
);
}
);
width = 1200;
},
{
anchors = (
{
name = bottom;
position = "{600, 0}";
},
{
name = top;
position = "{600, 1420}";
}
);
layerId = "8E053A5E-67DA-4970-A6F5-068DBFE5AD21";
paths = (
{
closed = 1;
nodes = (
"317 1144 LINE",
"161 1046 OFFCURVE",
"59 905 OFFCURVE",
"59 603 CURVE SMOOTH",
"59 207 OFFCURVE",
"256 -20 OFFCURVE",
"600 -20 CURVE SMOOTH",
"944 -20 OFFCURVE",
"1141 207 OFFCURVE",
"1141 603 CURVE SMOOTH",
"1141 910 OFFCURVE",
"1047 1050 OFFCURVE",
"907 1141 CURVE",
"907 1228 LINE",
"661 1177 LINE",
"774 1128 OFFCURVE",
"864 955 OFFCURVE",
"864 653 CURVE SMOOTH",
"864 385 OFFCURVE",
"768 231 OFFCURVE",
"600 231 CURVE SMOOTH",
"432 231 OFFCURVE",
"336 385 OFFCURVE",
"336 653 CURVE SMOOTH",
"336 949 OFFCURVE",
"434 1123 OFFCURVE",
"563 1177 CURVE",
"317 1236 LINE"
);
},
{
closed = 1;
nodes = (
"87 1177 LINE",
"563 1177 LINE",
"563 1420 LINE",
"87 1420 LINE"
);
},
{
closed = 1;
nodes = (
"661 1177 LINE",
"1113 1177 LINE",
"1113 1420 LINE",
"661 1420 LINE"
);
}
);
width = 1200;
}
);
unicode = 01B1;
}
{
glyphname = Vhook;
layers = (
{
anchors = (
{
name = bottom;
position = "{600, 0}";
},
{
name = ogonek;
position = "{1080, 10}";
},
{
name = top;
position = "{600, 1420}";
},
{
name = topright;
position = "{1180, 1420}";
}
);
layerId = master01;
paths = (
{
closed = 1;
nodes = (
"676 1330 LINE",
"810 1330 LINE SMOOTH",
"898 1330 OFFCURVE",
"942 1277 OFFCURVE",
"942 1170 CURVE SMOOTH",
"942 456 LINE SMOOTH",
"942 200 OFFCURVE",
"826 70 OFFCURVE",
"600 70 CURVE SMOOTH",
"363 70 OFFCURVE",
"258 200 OFFCURVE",
"258 456 CURVE SMOOTH",
"258 1420 LINE",
"164 1420 LINE",
"164 456 LINE SMOOTH",
"164 138 OFFCURVE",
"308 -20 OFFCURVE",
"596 -20 CURVE SMOOTH",
"884 -20 OFFCURVE",
"1036 138 OFFCURVE",
"1036 456 CURVE SMOOTH",
"1036 1170 LINE SMOOTH",
"1036 1337 OFFCURVE",
"967 1420 OFFCURVE",
"830 1420 CURVE SMOOTH",
"676 1420 LINE"
);
}
);
width = 1200;
},
{
anchors = (
{
name = bottom;
position = "{600, 0}";
},
{
name = ogonek;
position = "{1080, 10}";
},
{
name = top;
position = "{600, 1420}";
},
{
name = topright;
position = "{1180, 1420}";
}
);
layerId = "1F90C004-9C90-48FA-B407-176B3E9F1E65";
paths = (
{
closed = 1;
nodes = (
"628 1230 LINE",
"708 1230 LINE SMOOTH",
"814 1230 OFFCURVE",
"852 1188 OFFCURVE",
"852 1070 CURVE SMOOTH",
"852 456 LINE SMOOTH",
"852 266 OFFCURVE",
"767 170 OFFCURVE",
"600 170 CURVE SMOOTH",
"426 170 OFFCURVE",
"348 266 OFFCURVE",
"348 456 CURVE SMOOTH",
"348 1420 LINE",
"140 1420 LINE",
"140 456 LINE SMOOTH",
"140 138 OFFCURVE",
"292 -20 OFFCURVE",
"596 -20 CURVE SMOOTH",
"900 -20 OFFCURVE",
"1060 138 OFFCURVE",
"1060 456 CURVE SMOOTH",
"1060 1120 LINE SMOOTH",
"1060 1341 OFFCURVE",
"980 1420 OFFCURVE",
"756 1420 CURVE SMOOTH",
"628 1420 LINE"
);
}
);
width = 1200;
},
{
anchors = (
{
name = bottom;
position = "{600, 0}";
},
{
name = ogonek;
position = "{1080, 10}";
},
{
name = top;
position = "{600, 1420}";
},
{
name = topright;
position = "{1180, 1420}";
}
);
layerId = "8E053A5E-67DA-4970-A6F5-068DBFE5AD21";
paths = (
{
closed = 1;
nodes = (
"573 1175 LINE",
"654 1175 LINE SMOOTH",
"770 1175 OFFCURVE",
"813 1125 OFFCURVE",
"813 988 CURVE SMOOTH",
"813 456 LINE SMOOTH",
"813 308 OFFCURVE",
"741 233 OFFCURVE",
"600 233 CURVE SMOOTH",
"453 233 OFFCURVE",
"387 308 OFFCURVE",
"387 456 CURVE SMOOTH",
"387 1420 LINE",
"123 1420 LINE",
"123 456 LINE SMOOTH",
"123 138 OFFCURVE",
"281 -20 OFFCURVE",
"596 -20 CURVE SMOOTH",
"911 -20 OFFCURVE",
"1077 138 OFFCURVE",
"1077 456 CURVE SMOOTH",
"1077 1100 LINE SMOOTH",
"1077 1335 OFFCURVE",
"991 1420 OFFCURVE",
"753 1420 CURVE SMOOTH",
"573 1420 LINE"
);
}
);
width = 1200;
}
);
unicode = 01B2;
}
{
glyphname = gstroke;
layers = (
{
components = (
{
name = g;
}
);
layerId = master01;
paths = (
{
closed = 1;
nodes = (
"1156 -223 LINE",
"1156 -135 LINE",
"44 -135 LINE",
"44 -223 LINE"
);
}
);
width = 1200;
},
{
components = (
{
name = g;
}
);
layerId = "1F90C004-9C90-48FA-B407-176B3E9F1E65";
paths = (
{
closed = 1;
nodes = (
"1156 -193 LINE",
"1156 -85 LINE",
"44 -85 LINE",
"44 -193 LINE"
);
}
);
width = 1200;
},
{
components = (
{
name = g;
}
);
layerId = "8E053A5E-67DA-4970-A6F5-068DBFE5AD21";
paths = (
{
closed = 1;
nodes = (
"1156 -173 LINE",
"1156 -65 LINE",
"44 -65 LINE",
"44 -173 LINE"
);
}
);
width = 1200;
}
);
unicode = 01E5;
}
{
glyphname = oogonek;
production = uni01EB;
layers = (
{
anchors = (
{
name = bottom;
position = "{600, -480}";
}
);
components = (
{
name = o;
}
);
layerId = master01;
paths = (
{
closed = 1;
nodes = (
"686 -424 OFFCURVE",
"721 -423 OFFCURVE",
"753 -415 CURVE",
"760 -332 LINE",
"733 -335 OFFCURVE",
"706 -337 OFFCURVE",
"685 -337 CURVE SMOOTH",
"582 -337 OFFCURVE",
"523 -290 OFFCURVE",
"523 -208 CURVE SMOOTH",
"523 -79 OFFCURVE",
"615 -44 OFFCURVE",
"777 13 CURVE",
"772 40 LINE",
"550 34 LINE",
"550 -29 LINE",
"474 -65 OFFCURVE",
"429 -137 OFFCURVE",
"429 -228 CURVE SMOOTH",
"429 -353 OFFCURVE",
"513 -424 OFFCURVE",
"659 -424 CURVE SMOOTH"
);
}
);
width = 1200;
},
{
anchors = (
{
name = bottom;
position = "{600, -480}";
}
);
components = (
{
name = o;
}
);
layerId = "1F90C004-9C90-48FA-B407-176B3E9F1E65";
paths = (
{
closed = 1;
nodes = (
"695 -424 OFFCURVE",
"725 -421 OFFCURVE",
"759 -415 CURVE",
"777 -245 LINE",
"744 -253 OFFCURVE",
"717 -256 OFFCURVE",
"695 -256 CURVE SMOOTH",
"602 -256 OFFCURVE",
"579 -203 OFFCURVE",
"579 -168 CURVE SMOOTH",
"579 -53 OFFCURVE",
"699 -21 OFFCURVE",
"782 11 CURVE",
"763 36 LINE",
"543 30 LINE",
"543 -40 LINE",
"471 -64 OFFCURVE",
"429 -134 OFFCURVE",
"429 -232 CURVE SMOOTH",
"429 -354 OFFCURVE",
"516 -424 OFFCURVE",
"669 -424 CURVE SMOOTH"
);
}
);
width = 1200;
},
{
anchors = (
{
name = bottom;
position = "{600, -388}";
}
);
components = (
{
alignment = -1;
name = o;
}
);
layerId = "8E053A5E-67DA-4970-A6F5-068DBFE5AD21";
paths = (
{
closed = 1;
nodes = (
"696 -424 OFFCURVE",
"734 -421 OFFCURVE",
"772 -415 CURVE",
"798 -178 LINE",
"764 -186 OFFCURVE",
"733 -189 OFFCURVE",
"708 -189 CURVE SMOOTH",
"652 -189 OFFCURVE",
"625 -163 OFFCURVE",
"625 -126 CURVE SMOOTH",
"625 -60 OFFCURVE",
"683 -26 OFFCURVE",
"786 10 CURVE",
"776 33 LINE",
"539 30 LINE",
"539 -44 LINE",
"466 -67 OFFCURVE",
"425 -137 OFFCURVE",
"425 -232 CURVE SMOOTH",
"425 -354 OFFCURVE",
"512 -424 OFFCURVE",
"665 -424 CURVE SMOOTH"
);
}
);
width = 1200;
}
);
unicode = 01EB;
}
{
glyphname = thetamod;
layers = (
{
layerId = master01;
paths = (
{
closed = 1;
nodes = (
"852 1129 LINE",
"852 1209 LINE",
"366 1209 LINE",
"366 1129 LINE"
);
},
{
closed = 1;
nodes = (
"802 770 OFFCURVE",
"918 915 OFFCURVE",
"918 1169 CURVE SMOOTH",
"918 1423 OFFCURVE",
"802 1568 OFFCURVE",
"600 1568 CURVE SMOOTH",
"398 1568 OFFCURVE",
"282 1423 OFFCURVE",
"282 1169 CURVE SMOOTH",
"282 915 OFFCURVE",
"398 770 OFFCURVE",
"600 770 CURVE SMOOTH"
);
},
{
closed = 1;
nodes = (
"459 862 OFFCURVE",
"378 974 OFFCURVE",
"378 1169 CURVE SMOOTH",
"378 1364 OFFCURVE",
"459 1476 OFFCURVE",
"600 1476 CURVE SMOOTH",
"741 1476 OFFCURVE",
"822 1364 OFFCURVE",
"822 1169 CURVE SMOOTH",
"822 974 OFFCURVE",
"741 862 OFFCURVE",
"600 862 CURVE SMOOTH"
);
}
);
width = 1200;
},
{
layerId = "1F90C004-9C90-48FA-B407-176B3E9F1E65";
paths = (
{
closed = 1;
nodes = (
"852 1127 LINE",
"852 1211 LINE",
"366 1211 LINE",
"366 1127 LINE"
);
},
{
closed = 1;
nodes = (
"817 770 OFFCURVE",
"942 915 OFFCURVE",
"942 1169 CURVE SMOOTH",
"942 1423 OFFCURVE",
"817 1568 OFFCURVE",
"600 1568 CURVE SMOOTH",
"383 1568 OFFCURVE",
"258 1423 OFFCURVE",
"258 1169 CURVE SMOOTH",
"258 915 OFFCURVE",
"383 770 OFFCURVE",
"600 770 CURVE SMOOTH"
);
},
{
closed = 1;
nodes = (
"500 920 OFFCURVE",
"443 1011 OFFCURVE",
"443 1169 CURVE SMOOTH",
"443 1327 OFFCURVE",
"500 1418 OFFCURVE",
"600 1418 CURVE SMOOTH",
"700 1418 OFFCURVE",
"757 1327 OFFCURVE",
"757 1169 CURVE SMOOTH",
"757 1011 OFFCURVE",
"700 920 OFFCURVE",
"600 920 CURVE SMOOTH"
);
}
);
width = 1200;
},
{
layerId = "8E053A5E-67DA-4970-A6F5-068DBFE5AD21";
paths = (
{
closed = 1;
nodes = (
"892 1122 LINE",
"892 1216 LINE",
"326 1216 LINE",
"326 1122 LINE"
);
},
{
closed = 1;
nodes = (
"828 770 OFFCURVE",
"959 915 OFFCURVE",
"959 1169 CURVE SMOOTH",
"959 1423 OFFCURVE",
"828 1568 OFFCURVE",
"600 1568 CURVE SMOOTH",
"372 1568 OFFCURVE",
"241 1423 OFFCURVE",
"241 1169 CURVE SMOOTH",
"241 915 OFFCURVE",
"372 770 OFFCURVE",
"600 770 CURVE SMOOTH"
);
},
{
closed = 1;
nodes = (
"519 970 OFFCURVE",
"473 1042 OFFCURVE",
"473 1169 CURVE SMOOTH",
"473 1296 OFFCURVE",
"519 1368 OFFCURVE",
"600 1368 CURVE SMOOTH",
"681 1368 OFFCURVE",
"727 1296 OFFCURVE",
"727 1169 CURVE SMOOTH",
"727 1042 OFFCURVE",
"681 970 OFFCURVE",
"600 970 CURVE SMOOTH"
);
}
);
width = 1200;
}
);
unicode = 1DBF;
}
{
glyphname = uhorn;
layers = (
{
components = (
{
name = u;
}
);
layerId = master01;
paths = (
{
closed = 1;
nodes = (
"974 1005 LINE SMOOTH",
"1128 1043 OFFCURVE",
"1204 1154 OFFCURVE",
"1204 1343 CURVE",
"1108 1343 LINE",
"1108 1191 OFFCURVE",
"1047 1100 OFFCURVE",
"924 1070 CURVE SMOOTH",
"884 1060 LINE",
"934 995 LINE"
);
}
);
width = 1200;
},
{
components = (
{
name = u;
}
);
layerId = "1F90C004-9C90-48FA-B407-176B3E9F1E65";
paths = (
{
closed = 1;
nodes = (
"881 905 LINE SMOOTH",
"1124 966 OFFCURVE",
"1228 1097 OFFCURVE",
"1228 1343 CURVE",
"1008 1343 LINE",
"1008 1183 OFFCURVE",
"955 1101 OFFCURVE",
"831 1070 CURVE SMOOTH",
"791 1060 LINE",
"841 895 LINE"
);
}
);
width = 1200;
},
{
components = (
{
alignment = -1;
name = u;
}
);
layerId = "8E053A5E-67DA-4970-A6F5-068DBFE5AD21";
paths = (
{
closed = 1;
nodes = (
"881 843 LINE SMOOTH",
"1127 904 OFFCURVE",
"1228 1063 OFFCURVE",
"1228 1343 CURVE",
"958 1343 LINE",
"958 1183 OFFCURVE",
"915 1067 OFFCURVE",
"806 1062 CURVE SMOOTH",
"766 1060 LINE",
"841 833 LINE"
);
}
);
width = 1200;
}
);
unicode = 01B0;
}
{
glyphname = zmod;
layers = (
{
guideLines = (
{
position = "{1060, 790}";
}
);
layerId = master01;
paths = (
{
closed = 1;
nodes = (
"861 1340 LINE",
"794 1390 LINE",
"324 870 LINE",
"391 818 LINE"
);
},
{
closed = 1;
nodes = (
"874 790 LINE",
"874 870 LINE",
"324 870 LINE",
"324 790 LINE"
);
},
{
closed = 1;
nodes = (
"861 1340 LINE",
"861 1420 LINE",
"324 1420 LINE",
"324 1340 LINE"
);
}
);
width = 1200;
},
{
layerId = "1F90C004-9C90-48FA-B407-176B3E9F1E65";
paths = (
{
closed = 1;
nodes = (
"871 1270 LINE",
"727 1346 LINE",
"314 940 LINE",
"468 861 LINE"
);
},
{
closed = 1;
nodes = (
"884 790 LINE",
"884 940 LINE",
"314 940 LINE",
"314 790 LINE"
);
},
{
closed = 1;
nodes = (
"871 1270 LINE",
"871 1420 LINE",
"314 1420 LINE",
"314 1270 LINE"
);
}
);
width = 1200;
},
{
layerId = "8E053A5E-67DA-4970-A6F5-068DBFE5AD21";
paths = (
{
closed = 1;
nodes = (
"881 1215 LINE",
"743 1308 LINE",
"303 994 LINE",
"456 898 LINE"
);
},
{
closed = 1;
nodes = (
"894 790 LINE",
"894 994 LINE",
"303 994 LINE",
"303 790 LINE"
);
},
{
closed = 1;
nodes = (
"881 1215 LINE",
"881 1420 LINE",
"303 1420 LINE",
"303 1215 LINE"
);
}
);
width = 1200;
}
);
unicode = 1DBB;
}
{
glyphname = "Alpha-latin";
layers = (
{
anchors = (
{
name = bottom;
position = "{600, 0}";
},
{
name = top;
position = "{580, 1413}";
}
);
layerId = master01;
paths = (
{
closed = 1;
nodes = (
"726 -27 OFFCURVE",
"831 48 OFFCURVE",
"865 191 CURVE",
"893 191 LINE",
"863 537 LINE",
"863 226 OFFCURVE",
"761 63 OFFCURVE",
"566 63 CURVE SMOOTH",
"331 63 OFFCURVE",
"208 279 OFFCURVE",
"208 693 CURVE SMOOTH",
"208 1125 OFFCURVE",
"331 1350 OFFCURVE",
"566 1350 CURVE SMOOTH",
"761 1350 OFFCURVE",
"863 1187 OFFCURVE",
"863 876 CURVE",
"933 1222 LINE",
"855 1222 LINE",
"823 1365 OFFCURVE",
"720 1440 OFFCURVE",
"556 1440 CURVE SMOOTH",
"264 1440 OFFCURVE",
"112 1184 OFFCURVE",
"112 693 CURVE SMOOTH",
"112 220 OFFCURVE",
"264 -27 OFFCURVE",
"556 -27 CURVE SMOOTH"
);
},
{
closed = 1;
nodes = (
"1143 0 LINE",
"1143 62 LINE",
"957 81 LINE",
"957 741 LINE",
"863 741 LINE",
"876 571 LINE",
"877 -13 LINE"
);
},
{
closed = 1;
nodes = (
"957 392 LINE",
"957 1420 LINE",
"863 1420 LINE",
"863 392 LINE"
);
}
);
width = 1200;
},
{
anchors = (
{
name = bottom;
position = "{590, 0}";
},
{
name = top;
position = "{590, 1413}";
}
);
layerId = "1F90C004-9C90-48FA-B407-176B3E9F1E65";
paths = (
{
closed = 1;
nodes = (
"690 -27 OFFCURVE",
"765 64 OFFCURVE",
"782 189 CURVE",
"869 189 LINE",
"790 608 LINE",
"790 259 OFFCURVE",
"754 157 OFFCURVE",
"562 157 CURVE SMOOTH",
"375 157 OFFCURVE",
"278 339 OFFCURVE",
"278 693 CURVE SMOOTH",
"278 1051 OFFCURVE",
"379 1256 OFFCURVE",
"562 1256 CURVE SMOOTH",
"713 1256 OFFCURVE",
"790 1129 OFFCURVE",
"790 874 CURVE",
"852 1222 LINE",
"771 1222 LINE",
"765 1361 OFFCURVE",
"703 1440 OFFCURVE",
"530 1440 CURVE SMOOTH",
"237 1440 OFFCURVE",
"68 1168 OFFCURVE",
"68 693 CURVE SMOOTH",
"68 229 OFFCURVE",
"222 -27 OFFCURVE",
"530 -27 CURVE SMOOTH"
);
},
{
closed = 1;
nodes = (
"1147 0 LINE",
"1147 169 LINE",
"998 194 LINE",
"998 573 LINE",
"790 573 LINE",
"791 389 LINE",
"809 -13 LINE"
);
},
{
closed = 1;
nodes = (
"998 440 LINE",
"998 1420 LINE",
"790 1420 LINE",
"790 440 LINE"
);
}
);
width = 1200;
},
{
anchors = (
{
name = bottom;
position = "{595, 0}";
},
{
name = top;
position = "{595, 1413}";
}
);
guideLines = (
{
position = "{102, 1311}";
}
);
layerId = "8E053A5E-67DA-4970-A6F5-068DBFE5AD21";
paths = (
{
closed = 1;
nodes = (
"652 -27 OFFCURVE",
"734 57 OFFCURVE",
"745 219 CURVE",
"830 219 LINE",
"758 526 LINE",
"758 310 OFFCURVE",
"716 224 OFFCURVE",
"563 224 CURVE SMOOTH",
"412 224 OFFCURVE",
"333 385 OFFCURVE",
"333 693 CURVE SMOOTH",
"333 1019 OFFCURVE",
"412 1189 OFFCURVE",
"563 1189 CURVE SMOOTH",
"691 1189 OFFCURVE",
"758 1085 OFFCURVE",
"758 887 CURVE",
"820 1193 LINE",
"742 1193 LINE",
"727 1355 OFFCURVE",
"647 1440 OFFCURVE",
"508 1440 CURVE SMOOTH",
"211 1440 OFFCURVE",
"56 1184 OFFCURVE",
"56 693 CURVE SMOOTH",
"56 220 OFFCURVE",
"211 -27 OFFCURVE",
"508 -27 CURVE SMOOTH"
);
},
{
closed = 1;
nodes = (
"1168 0 LINE",
"1168 238 LINE",
"1022 267 LINE",
"1022 731 LINE",
"758 731 LINE",
"758 341 LINE",
"776 -13 LINE"
);
},
{
closed = 1;
nodes = (
"1022 430 LINE",
"1022 1420 LINE",
"758 1420 LINE",
"758 430 LINE"
);
}
);
width = 1200;
}
);
unicode = 2C6D;
}
{
glyphname = Lmiddletilde;
layers = (
{
anchors = (
{
name = bottom;
position = "{716, 0}";
},
{
name = center;
position = "{700, 710}";
},
{
name = top;
position = "{404, 1420}";
},
{
name = topright;
position = "{1164, 1420}";
}
);
layerId = master01;
paths = (
{
closed = 1;
nodes = (
"118 589 LINE",
"118 701 LINE SMOOTH",
"118 784 OFFCURVE",
"153 827 OFFCURVE",
"220 827 CURVE SMOOTH",
"262 827 OFFCURVE",
"327 791 OFFCURVE",
"410 721 CURVE SMOOTH",
"494 652 OFFCURVE",
"577 616 OFFCURVE",
"653 616 CURVE SMOOTH",
"780 616 OFFCURVE",
"846 693 OFFCURVE",
"846 840 CURVE SMOOTH",
"846 944 LINE",
"752 944 LINE",
"752 832 LINE SMOOTH",
"752 749 OFFCURVE",
"718 706 OFFCURVE",
"652 706 CURVE SMOOTH",
"599 706 OFFCURVE",
"527 741 OFFCURVE",
"443 808 CURVE SMOOTH",
"351 880 OFFCURVE",
"275 917 OFFCURVE",
"221 917 CURVE SMOOTH",
"92 917 OFFCURVE",
"24 840 OFFCURVE",
"24 693 CURVE SMOOTH",
"24 589 LINE"
);
},
{
closed = 1;
nodes = (
"1076 0 LINE",
"1076 90 LINE",
"357 90 LINE",
"357 0 LINE"
);
},
{
closed = 1;
nodes = (
"451 0 LINE",
"451 1420 LINE",
"357 1420 LINE",
"357 0 LINE"
);
}
);
width = 1200;
},
{
anchors = (
{
name = bottom;
position = "{709, 0}";
},
{
name = center;
position = "{693, 710}";
},
{
name = top;
position = "{431, 1420}";
},
{
name = topright;
position = "{1157, 1420}";
}
);
layerId = "1F90C004-9C90-48FA-B407-176B3E9F1E65";
paths = (
{
closed = 1;
nodes = (
"181 589 LINE",
"181 681 LINE SMOOTH",
"181 733 OFFCURVE",
"203 756 OFFCURVE",
"256 756 CURVE SMOOTH",
"321 756 OFFCURVE",
"370 725 OFFCURVE",
"442 687 CURVE SMOOTH",
"511 651 OFFCURVE",
"590 616 OFFCURVE",
"677 616 CURVE SMOOTH",
"818 616 OFFCURVE",
"879 689 OFFCURVE",
"879 860 CURVE SMOOTH",
"879 944 LINE",
"697 944 LINE",
"697 852 LINE SMOOTH",
"697 800 OFFCURVE",
"680 777 OFFCURVE",
"639 777 CURVE SMOOTH",
"579 777 OFFCURVE",
"533 810 OFFCURVE",
"463 846 CURVE SMOOTH",
"392 881 OFFCURVE",
"314 917 OFFCURVE",
"225 917 CURVE SMOOTH",
"67 917 OFFCURVE",
"-1 844 OFFCURVE",
"-1 673 CURVE SMOOTH",
"-1 589 LINE"
);
},
{
closed = 1;
nodes = (
"1100 0 LINE",
"1100 190 LINE",
"330 190 LINE",
"330 0 LINE"
);
},
{
closed = 1;
nodes = (
"538 0 LINE",
"538 1420 LINE",
"330 1420 LINE",
"330 0 LINE"
);
}
);
width = 1200;
},
{
anchors = (
{
name = bottom;
position = "{710, 0}";
},
{
name = center;
position = "{694, 710}";
},
{
name = top;
position = "{440, 1420}";
},
{
name = topright;
position = "{1158, 1420}";
}
);
layerId = "8E053A5E-67DA-4970-A6F5-068DBFE5AD21";
paths = (
{
closed = 1;
nodes = (
"219 562 LINE",
"219 647 LINE SMOOTH",
"219 695 OFFCURVE",
"240 716 OFFCURVE",
"290 716 CURVE SMOOTH",
"346 716 OFFCURVE",
"392 695 OFFCURVE",
"453.2 660.8 CURVE SMOOTH",
"522 622 OFFCURVE",
"597 590 OFFCURVE",
"682 590 CURVE SMOOTH",
"844 590 OFFCURVE",
"914 669 OFFCURVE",
"914 854 CURVE SMOOTH",
"914 970 LINE",
"682 970 LINE",
"682 886 LINE SMOOTH",
"682 838 OFFCURVE",
"665 817 OFFCURVE",
"621 817 CURVE SMOOTH",
"571 817 OFFCURVE",
"525 842 OFFCURVE",
"474 872 CURVE SMOOTH",
"399 916 OFFCURVE",
"329 943 OFFCURVE",
"242 943 CURVE SMOOTH",
"64 943 OFFCURVE",
"-14 864 OFFCURVE",
"-14 679 CURVE SMOOTH",
"-14 562 LINE"
);
},
{
closed = 1;
nodes = (
"1117 0 LINE",
"1117 243 LINE",
"319 243 LINE",
"319 0 LINE"
);
},
{
closed = 1;
nodes = (
"582 0 LINE",
"582 1420 LINE",
"319 1420 LINE",
"319 0 LINE"
);
}
);
width = 1200;
}
);
unicode = 2C62;
}
{
glyphname = asterisk;
layers = (
{
layerId = master01;
paths = (
{
closed = 1;
nodes = (
"925 337 LINE",
"629 720 LINE",
"571 672 LINE",
"853 282 LINE"
);
},
{
closed = 1;
nodes = (
"629 672 LINE",
"571 720 LINE",
"275 337 LINE",
"347 282 LINE"
);
},
{
closed = 1;
nodes = (
"613 732 LINE",
"165 904 LINE",
"133 816 LINE",
"587 660 LINE"
);
},
{
closed = 1;
nodes = (
"638 696 LINE",
"647 1176 LINE",
"553 1176 LINE",
"562 696 LINE"
);
},
{
closed = 1;
nodes = (
"1067 816 LINE",
"1035 904 LINE",
"587 732 LINE",
"613 660 LINE"
);
}
);
width = 1200;
},
{
layerId = "1F90C004-9C90-48FA-B407-176B3E9F1E65";
paths = (
{
closed = 1;
nodes = (
"992 398 LINE",
"656 744 LINE",
"544 648 LINE",
"826 258 LINE"
);
},
{
closed = 1;
nodes = (
"656 648 LINE",
"544 744 LINE",
"208 398 LINE",
"374 258 LINE"
);
},
{
closed = 1;
nodes = (
"626 766 LINE",
"186 962 LINE",
"112 758 LINE",
"574 626 LINE"
);
},
{
closed = 1;
nodes = (
"674 696 LINE",
"708 1176 LINE",
"492 1176 LINE",
"526 696 LINE"
);
},
{
closed = 1;
nodes = (
"1088 758 LINE",
"1014 962 LINE",
"574 766 LINE",
"626 626 LINE"
);
}
);
width = 1200;
},
{
layerId = "8E053A5E-67DA-4970-A6F5-068DBFE5AD21";
paths = (
{
closed = 1;
nodes = (
"1000 396 LINE",
"686 760 LINE",
"507 627 LINE",
"773 227 LINE"
);
},
{
closed = 1;
nodes = (
"686 632 LINE",
"507 765 LINE",
"200 396 LINE",
"427 227 LINE"
);
},
{
closed = 1;
nodes = (
"636 806 LINE",
"189 981 LINE",
"100 713 LINE",
"567 594 LINE"
);
},
{
closed = 1;
nodes = (
"716 696 LINE",
"741 1176 LINE",
"459 1176 LINE",
"493 696 LINE"
);
},
{
closed = 1;
nodes = (
"1100 713 LINE",
"1012 981 LINE",
"567 798 LINE",
"636 586 LINE"
);
}
);
width = 1200;
}
);
unicode = 002A;
}
{
glyphname = colontriangularmod;
layers = (
{
guideLines = (
{
angle = 90;
position = "{600, 663}";
}
);
layerId = master01;
paths = (
{
closed = 1;
nodes = (
"750 1060 LINE",
"450 1060 LINE",
"600 780 LINE"
);
},
{
closed = 1;
nodes = (
"750 0 LINE",
"600 280 LINE",
"450 0 LINE"
);
}
);
width = 1200;
},
{
layerId = "1F90C004-9C90-48FA-B407-176B3E9F1E65";
paths = (
{
closed = 1;
nodes = (
"800 1060 LINE",
"400 1060 LINE",
"600 700 LINE"
);
},
{
closed = 1;
nodes = (
"800 0 LINE",
"600 360 LINE",
"400 0 LINE"
);
}
);
width = 1200;
},
{
layerId = "8E053A5E-67DA-4970-A6F5-068DBFE5AD21";
paths = (
{
closed = 1;
nodes = (
"860 1060 LINE",
"340 1060 LINE",
"600 620 LINE"
);
},
{
closed = 1;
nodes = (
"860 0 LINE",
"600 440 LINE",
"340 0 LINE"
);
}
);
width = 1200;
}
);
unicode = 02D0;
}
{
glyphname = comma;
layers = (
{
layerId = master01;
paths = (
{
closed = 1;
nodes = (
"574 -436 LINE",
"659 254 LINE",
"562 254 LINE",
"482 -436 LINE"
);
}
);
width = 1200;
},
{
layerId = "1F90C004-9C90-48FA-B407-176B3E9F1E65";
paths = (
{
closed = 1;
nodes = (
"604 -436 LINE",
"724 254 LINE",
"492 254 LINE",
"412 -436 LINE"
);
}
);
width = 1200;
},
{
layerId = "8E053A5E-67DA-4970-A6F5-068DBFE5AD21";
paths = (
{
closed = 1;
nodes = (
"637 -436 LINE",
"757 254 LINE",
"459 254 LINE",
"379 -436 LINE"
);
}
);
width = 1200;
}
);
unicode = 002C;
}
{
glyphname = glottalstopmod;
layers = (
{
layerId = master01;
paths = (
{
closed = 1;
nodes = (
"626 790 LINE",
"626 915 LINE SMOOTH",
"626 960 OFFCURVE",
"650 1000 OFFCURVE",
"723 1051 CURVE SMOOTH",
"827 1124 OFFCURVE",
"882 1205 OFFCURVE",
"882 1312 CURVE SMOOTH",
"882 1474 OFFCURVE",
"775 1568 OFFCURVE",
"592 1568 CURVE",
"590 1484 LINE",
"711 1484 OFFCURVE",
"779 1422 OFFCURVE",
"779 1318 CURVE SMOOTH",
"779 1242 OFFCURVE",
"754 1184 OFFCURVE",
"661 1116 CURVE SMOOTH",
"563 1045 OFFCURVE",
"532 984 OFFCURVE",
"532 915 CURVE SMOOTH",
"532 790 LINE"
);
},
{
closed = 1;
nodes = (
"402 1450 OFFCURVE",
"494 1484 OFFCURVE",
"590 1484 CURVE",
"592 1568 LINE",
"465 1568 OFFCURVE",
"355 1529 OFFCURVE",
"279 1471 CURVE",
"324 1398 LINE"
);
}
);
width = 1200;
},
{
layerId = "1F90C004-9C90-48FA-B407-176B3E9F1E65";
paths = (
{
closed = 1;
nodes = (
"662 790 LINE",
"662 848 LINE SMOOTH",
"662 931 OFFCURVE",
"692 966 OFFCURVE",
"752 1018 CURVE SMOOTH",
"854 1106 OFFCURVE",
"912 1164 OFFCURVE",
"912 1300 CURVE SMOOTH",
"912 1470 OFFCURVE",
"795 1568 OFFCURVE",
"592 1568 CURVE",
"554 1392 LINE",
"648 1392 OFFCURVE",
"702 1348 OFFCURVE",
"702 1269 CURVE SMOOTH",
"702 1210 OFFCURVE",
"690 1174 OFFCURVE",
"611 1114 CURVE SMOOTH",
"523 1047 OFFCURVE",
"476 1004 OFFCURVE",
"476 890 CURVE SMOOTH",
"476 790 LINE"
);
},
{
closed = 1;
nodes = (
"394 1362 OFFCURVE",
"473 1392 OFFCURVE",
"554 1392 CURVE",
"592 1568 LINE",
"438 1568 OFFCURVE",
"309 1522 OFFCURVE",
"237 1442 CURVE",
"334 1310 LINE"
);
}
);
width = 1200;
},
{
layerId = "8E053A5E-67DA-4970-A6F5-068DBFE5AD21";
paths = (
{
closed = 1;
nodes = (
"694 790 LINE",
"694 859 LINE SMOOTH",
"694 896 OFFCURVE",
"699 925 OFFCURVE",
"739 955 CURVE SMOOTH",
"885 1065 OFFCURVE",
"943 1147 OFFCURVE",
"943 1284 CURVE SMOOTH",
"943 1462 OFFCURVE",
"804 1568 OFFCURVE",
"562 1568 CURVE",
"540 1324 LINE",
"624 1324 OFFCURVE",
"666 1294 OFFCURVE",
"666 1234 CURVE SMOOTH",
"666 1174 OFFCURVE",
"625 1146 OFFCURVE",
"542 1097 CURVE SMOOTH",
"467 1053 OFFCURVE",
"424 1012 OFFCURVE",
"424 927 CURVE SMOOTH",
"424 790 LINE"
);
},
{
closed = 1;
nodes = (
"379 1290 OFFCURVE",
"451 1324 OFFCURVE",
"540 1324 CURVE",
"562 1568 LINE",
"354 1568 OFFCURVE",
"248 1512 OFFCURVE",
"188 1457 CURVE",
"330 1261 LINE"
);
}
);
width = 1200;
}
);
unicode = 02C0;
}
{
glyphname = plus;
layers = (
{
layerId = master01;
paths = (
{
closed = 1;
nodes = (
"647 190 LINE",
"647 1228 LINE",
"553 1228 LINE",
"553 190 LINE"
);
},
{
closed = 1;
nodes = (
"1076 665 LINE",
"1076 755 LINE",
"124 755 LINE",
"124 665 LINE"
);
}
);
width = 1200;
},
{
layerId = "1F90C004-9C90-48FA-B407-176B3E9F1E65";
paths = (
{
closed = 1;
nodes = (
"706 190 LINE",
"706 1228 LINE",
"494 1228 LINE",
"494 190 LINE"
);
},
{
closed = 1;
nodes = (
"1100 617 LINE",
"1100 803 LINE",
"100 803 LINE",
"100 617 LINE"
);
}
);
width = 1200;
},
{
layerId = "8E053A5E-67DA-4970-A6F5-068DBFE5AD21";
paths = (
{
closed = 1;
nodes = (
"734 190 LINE",
"734 1228 LINE",
"466 1228 LINE",
"466 190 LINE"
);
},
{
closed = 1;
nodes = (
"1100 584 LINE",
"1100 834 LINE",
"100 834 LINE",
"100 584 LINE"
);
}
);
width = 1200;
}
);
unicode = 002B;
}
{
glyphname = tesh;
production = uni02A7;
layers = (
{
anchors = (
{
name = bottom;
position = "{620, -420}";
},
{
name = top;
position = "{620, 1500}";
}
);
layerId = master01;
paths = (
{
closed = 1;
nodes = (
"568 -20 OFFCURVE",
"607 -15 OFFCURVE",
"650 -6 CURVE",
"638 82 LINE",
"599 76 OFFCURVE",
"569 72 OFFCURVE",
"542 72 CURVE SMOOTH",
"414 72 OFFCURVE",
"359 137 OFFCURVE",
"359 290 CURVE SMOOTH",
"359 500 LINE",
"265 500 LINE",
"265 280 LINE SMOOTH",
"265 70 OFFCURVE",
"341 -20 OFFCURVE",
"522 -20 CURVE SMOOTH"
);
},
{
closed = 1;
nodes = (
"359 420 LINE",
"359 1380 LINE",
"265 1380 LINE",
"265 420 LINE"
);
},
{
closed = 1;
nodes = (
"850 970 LINE",
"850 1060 LINE",
"44 1060 LINE",
"44 970 LINE"
);
},
{
closed = 1;
nodes = (
"885 360 LINE",
"885 1180 LINE SMOOTH",
"885 1337 OFFCURVE",
"970 1428 OFFCURVE",
"1118 1428 CURVE SMOOTH",
"1147 1428 OFFCURVE",
"1181 1426 OFFCURVE",
"1209 1422 CURVE",
"1220 1510 LINE",
"1186 1517 OFFCURVE",
"1144 1520 OFFCURVE",
"1104 1520 CURVE SMOOTH",
"905 1520 OFFCURVE",
"791 1399 OFFCURVE",
"791 1190 CURVE SMOOTH",
"791 360 LINE"
);
},
{
closed = 1;
nodes = (
"447 -473 LINE SMOOTH",
"755 -448 OFFCURVE",
"885 -313 OFFCURVE",
"885 -16 CURVE SMOOTH",
"885 384 LINE",
"791 384 LINE",
"791 -18 LINE SMOOTH",
"791 -244 OFFCURVE",
"696 -350 OFFCURVE",
"470 -379 CURVE SMOOTH",
"391 -389 LINE",
"398 -477 LINE"
);
}
);
width = 1200;
},
{
anchors = (
{
name = bottom;
position = "{610, -420}";
},
{
name = top;
position = "{610, 1500}";
}
);
layerId = "1F90C004-9C90-48FA-B407-176B3E9F1E65";
paths = (
{
closed = 1;
nodes = (
"558 -20 OFFCURVE",
"597 -15 OFFCURVE",
"640 -6 CURVE",
"616 180 LINE",
"582 174 OFFCURVE",
"556 170 OFFCURVE",
"532 170 CURVE SMOOTH",
"445 170 OFFCURVE",
"408 206 OFFCURVE",
"408 290 CURVE SMOOTH",
"408 500 LINE",
"196 500 LINE",
"196 280 LINE SMOOTH",
"196 70 OFFCURVE",
"290 -20 OFFCURVE",
"512 -20 CURVE SMOOTH"
);
},
{
closed = 1;
nodes = (
"408 420 LINE",
"408 1380 LINE",
"196 1380 LINE",
"196 420 LINE"
);
},
{
closed = 1;
nodes = (
"880 886 LINE",
"880 1060 LINE",
"10 1060 LINE",
"10 886 LINE"
);
},
{
closed = 1;
nodes = (
"974 360 LINE",
"974 1070 LINE SMOOTH",
"974 1184 OFFCURVE",
"1031 1250 OFFCURVE",
"1128 1250 CURVE SMOOTH",
"1155 1250 OFFCURVE",
"1186 1247 OFFCURVE",
"1212 1241 CURVE",
"1234 1425 LINE",
"1193 1435 OFFCURVE",
"1142 1440 OFFCURVE",
"1094 1440 CURVE SMOOTH",
"872 1440 OFFCURVE",
"762 1314 OFFCURVE",
"762 1060 CURVE SMOOTH",
"762 360 LINE"
);
},
{
closed = 1;
nodes = (
"476 -471 LINE SMOOTH",
"825 -447 OFFCURVE",
"974 -302 OFFCURVE",
"974 14 CURVE SMOOTH",
"974 384 LINE",
"762 384 LINE",
"762 -18 LINE SMOOTH",
"762 -181 OFFCURVE",
"683 -258 OFFCURVE",
"496 -277 CURVE SMOOTH",
"378 -289 LINE",
"388 -477 LINE"
);
}
);
width = 1200;
},
{
anchors = (
{
name = bottom;
position = "{610, -420}";
},
{
name = top;
position = "{610, 1500}";
}
);
layerId = "8E053A5E-67DA-4970-A6F5-068DBFE5AD21";
paths = (
{
closed = 1;
nodes = (
"570 -20 OFFCURVE",
"611 -15 OFFCURVE",
"657 -6 CURVE",
"633 272 LINE",
"595 266 OFFCURVE",
"567 262 OFFCURVE",
"540 262 CURVE SMOOTH",
"483 262 OFFCURVE",
"458 283 OFFCURVE",
"458 332 CURVE SMOOTH",
"458 500 LINE",
"188 500 LINE",
"188 280 LINE SMOOTH",
"188 70 OFFCURVE",
"287 -20 OFFCURVE",
"520 -20 CURVE SMOOTH"
);
},
{
closed = 1;
nodes = (
"458 420 LINE",
"458 1380 LINE",
"188 1380 LINE",
"188 420 LINE"
);
},
{
closed = 1;
nodes = (
"880 811 LINE",
"880 1060 LINE",
"10 1060 LINE",
"10 811 LINE"
);
},
{
closed = 1;
nodes = (
"1003 360 LINE",
"1003 1003 LINE SMOOTH",
"1003 1117 OFFCURVE",
"1049 1183 OFFCURVE",
"1128 1183 CURVE SMOOTH",
"1160 1183 OFFCURVE",
"1198 1180 OFFCURVE",
"1229 1174 CURVE",
"1251 1425 LINE",
"1205 1435 OFFCURVE",
"1148 1440 OFFCURVE",
"1094 1440 CURVE SMOOTH",
"853 1440 OFFCURVE",
"733 1314 OFFCURVE",
"733 1060 CURVE SMOOTH",
"733 360 LINE"
);
},
{
closed = 1;
nodes = (
"476 -471 LINE SMOOTH",
"845 -446 OFFCURVE",
"1003 -302 OFFCURVE",
"1003 14 CURVE SMOOTH",
"1003 384 LINE",
"733 384 LINE",
"733 7 LINE SMOOTH",
"733 -119 OFFCURVE",
"662 -177 OFFCURVE",
"496 -194 CURVE SMOOTH",
"378 -206 LINE",
"388 -477 LINE"
);
}
);
width = 1200;
}
);
unicode = 02A7;
}
{
glyphname = wmod;
layers = (
{
guideLines = (
{
position = "{1060, 790}";
},
{
position = "{1060, 790}";
}
);
layerId = master01;
paths = (
{
closed = 1;
nodes = (
"825 790 LINE",
"936 1420 LINE",
"844 1420 LINE",
"754 864 LINE",
"744 864 LINE",
"653 1420 LINE",
"535 1420 LINE",
"588 1327 LINE",
"598 1327 LINE",
"686 790 LINE"
);
},
{
closed = 1;
nodes = (
"506 790 LINE",
"590 1327 LINE",
"600 1327 LINE",
"653 1420 LINE",
"535 1420 LINE",
"443 864 LINE",
"434 864 LINE",
"354 1420 LINE",
"264 1420 LINE",
"356 790 LINE"
);
}
);
width = 1200;
},
{
guideLines = (
{
position = "{1060, 790}";
}
);
layerId = "1F90C004-9C90-48FA-B407-176B3E9F1E65";
paths = (
{
closed = 1;
nodes = (
"890 790 LINE",
"971 1420 LINE",
"791 1420 LINE",
"751 977 LINE",
"719 977 LINE",
"642 1420 LINE",
"546 1420 LINE",
"577 1239 LINE",
"608 1239 LINE",
"672 790 LINE"
);
},
{
closed = 1;
nodes = (
"516 790 LINE",
"580 1239 LINE",
"609 1239 LINE",
"642 1420 LINE",
"546 1420 LINE",
"469 977 LINE",
"437 977 LINE",
"419 1420 LINE",
"230 1420 LINE",
"291 790 LINE"
);
}
);
width = 1200;
},
{
layerId = "8E053A5E-67DA-4970-A6F5-068DBFE5AD21";
paths = (
{
closed = 1;
nodes = (
"908 790 LINE",
"1017 1420 LINE",
"802 1420 LINE",
"738 1045 LINE",
"704 1045 LINE",
"647 1420 LINE",
"539 1420 LINE",
"571 1160 LINE",
"612 1160 LINE",
"659 790 LINE"
);
},
{
closed = 1;
nodes = (
"525 790 LINE",
"574 1160 LINE",
"612 1160 LINE",
"647 1420 LINE",
"539 1420 LINE",
"482 1045 LINE",
"448 1045 LINE",
"384 1420 LINE",
"159 1420 LINE",
"272 790 LINE"
);
}
);
width = 1200;
}
);
unicode = 02B7;
}
{
glyphname = ymod;
layers = (
{
guideLines = (
{
position = "{1060, 790}";
}
);
layerId = master01;
paths = (
{
closed = 1;
nodes = (
"324 504 LINE SMOOTH",
"491 504 OFFCURVE",
"606 595 OFFCURVE",
"705 836 CURVE SMOOTH",
"944 1420 LINE",
"847 1420 LINE",
"630 876 LINE SMOOTH",
"548 671 OFFCURVE",
"457 584 OFFCURVE",
"309 584 CURVE SMOOTH",
"266 584 LINE",
"266 504 LINE"
);
},
{
closed = 1;
nodes = (
"631 790 LINE",
"633 858 LINE",
"617 858 LINE",
"372 1420 LINE",
"277 1420 LINE",
"553 790 LINE"
);
}
);
width = 1200;
},
{
guideLines = (
{
position = "{1060, 790}";
}
);
layerId = "1F90C004-9C90-48FA-B407-176B3E9F1E65";
paths = (
{
closed = 1;
nodes = (
"356 504 LINE SMOOTH",
"599 504 OFFCURVE",
"706 642 OFFCURVE",
"775 846 CURVE SMOOTH",
"968 1420 LINE",
"772 1420 LINE",
"606 876 LINE SMOOTH",
"560 724 OFFCURVE",
"459 669 OFFCURVE",
"340 669 CURVE SMOOTH",
"278 669 LINE",
"278 504 LINE"
);
},
{
closed = 1;
nodes = (
"641 790 LINE",
"641 945 LINE",
"608 945 LINE",
"447 1420 LINE",
"252 1420 LINE",
"475 790 LINE"
);
}
);
width = 1200;
},
{
layerId = "8E053A5E-67DA-4970-A6F5-068DBFE5AD21";
paths = (
{
closed = 1;
nodes = (
"427 504 LINE SMOOTH",
"683 504 OFFCURVE",
"777 636 OFFCURVE",
"833 846 CURVE SMOOTH",
"985 1420 LINE",
"725 1420 LINE",
"607 875 LINE SMOOTH",
"585 771 OFFCURVE",
"539 716 OFFCURVE",
"421 716 CURVE SMOOTH",
"249 716 LINE",
"249 504 LINE"
);
},
{
closed = 1;
nodes = (
"652 790 LINE",
"649 982 LINE",
"596 982 LINE",
"496 1420 LINE",
"236 1420 LINE",
"417 790 LINE"
);
}
);
width = 1200;
}
);
unicode = 02B8;
}
{
glyphname = KaiSymbol;
production = uni03CF;
layers = (
{
anchors = (
{
name = bottom;
position = "{600, -395}";
},
{
name = top;
position = "{600, 1420}";
}
);
layerId = master01;
paths = (
{
closed = 1;
nodes = (
"770 492 OFFCURVE",
"1070 830 OFFCURVE",
"1070 1420 CURVE",
"974 1420 LINE",
"974 887 OFFCURVE",
"715 582 OFFCURVE",
"258 582 CURVE",
"240 492 LINE"
);
},
{
closed = 1;
nodes = (
"268 0 LINE",
"268 1420 LINE",
"174 1420 LINE",
"174 0 LINE"
);
},
{
closed = 1;
nodes = (
"1138 -395 LINE",
"1138 -90 LINE SMOOTH",
"1138 -26 OFFCURVE",
"1126 22 OFFCURVE",
"1092 91 CURVE SMOOTH",
"770 733 LINE",
"688 674 LINE",
"1008 37 LINE SMOOTH",
"1034 -14 OFFCURVE",
"1044 -47 OFFCURVE",
"1044 -90 CURVE SMOOTH",
"1044 -395 LINE"
);
}
);
width = 1200;
},
{
anchors = (
{
name = bottom;
position = "{600, -395}";
},
{
name = top;
position = "{600, 1420}";
}
);
layerId = "1F90C004-9C90-48FA-B407-176B3E9F1E65";
paths = (
{
closed = 1;
nodes = (
"794 452 OFFCURVE",
"1094 915 OFFCURVE",
"1094 1420 CURVE",
"888 1420 LINE",
"888 1029 OFFCURVE",
"704 650 OFFCURVE",
"294 650 CURVE",
"276 452 LINE"
);
},
{
closed = 1;
nodes = (
"358 0 LINE",
"358 1420 LINE",
"150 1420 LINE",
"150 0 LINE"
);
},
{
closed = 1;
nodes = (
"1162 -395 LINE",
"1162 47 LINE SMOOTH",
"1162 124 OFFCURVE",
"1149 167 OFFCURVE",
"1106 233 CURVE SMOOTH",
"740 794 LINE",
"552 692 LINE",
"898 173 LINE SMOOTH",
"941 109 OFFCURVE",
"954 75 OFFCURVE",
"954 27 CURVE SMOOTH",
"954 -395 LINE"
);
}
);
width = 1200;
},
{
anchors = (
{
name = bottom;
position = "{600, -395}";
},
{
name = top;
position = "{600, 1420}";
}
);
layerId = "8E053A5E-67DA-4970-A6F5-068DBFE5AD21";
paths = (
{
closed = 1;
nodes = (
"805 452 OFFCURVE",
"1111 915 OFFCURVE",
"1111 1420 CURVE",
"843 1420 LINE",
"843 1063 OFFCURVE",
"673 717 OFFCURVE",
"294 717 CURVE",
"276 452 LINE"
);
},
{
closed = 1;
nodes = (
"397 0 LINE",
"397 1420 LINE",
"133 1420 LINE",
"133 0 LINE"
);
},
{
closed = 1;
nodes = (
"1179 -395 LINE",
"1179 6 LINE SMOOTH",
"1179 76 OFFCURVE",
"1161 146 OFFCURVE",
"1132 193 CURVE SMOOTH",
"782 777 LINE",
"538 675 LINE",
"859 149 LINE SMOOTH",
"902 79 OFFCURVE",
"915 31 OFFCURVE",
"915 -14 CURVE SMOOTH",
"915 -395 LINE"
);
}
);
width = 1200;
}
);
unicode = 03CF;
}
{
glyphname = Omega;
production = uni03A9;
layers = (
{
anchors = (
{
name = bottom;
position = "{600, 0}";
},
{
name = top;
position = "{600, 1420}";
}
);
layerId = master01;
paths = (
{
closed = 1;
nodes = (
"530 90 LINE",
"308 159 OFFCURVE",
"196 381 OFFCURVE",
"196 760 CURVE SMOOTH",
"196 1155 OFFCURVE",
"330 1350 OFFCURVE",
"600 1350 CURVE SMOOTH",
"870 1350 OFFCURVE",
"1004 1155 OFFCURVE",
"1004 760 CURVE SMOOTH",
"1004 374 OFFCURVE",
"900 152 OFFCURVE",
"694 90 CURVE",
"874 59 LINE",
"874 99 LINE",
"1005 169 OFFCURVE",
"1100 356 OFFCURVE",
"1100 760 CURVE SMOOTH",
"1100 1215 OFFCURVE",
"934 1440 OFFCURVE",
"600 1440 CURVE SMOOTH",
"266 1440 OFFCURVE",
"100 1215 OFFCURVE",
"100 760 CURVE SMOOTH",
"100 362 OFFCURVE",
"203 174 OFFCURVE",
"350 99 CURVE",
"350 51 LINE"
);
},
{
closed = 1;
nodes = (
"530 0 LINE",
"530 90 LINE",
"128 90 LINE",
"128 0 LINE"
);
},
{
closed = 1;
nodes = (
"1072 0 LINE",
"1072 90 LINE",
"694 90 LINE",
"694 0 LINE"
);
}
);
width = 1200;
},
{
anchors = (
{
name = bottom;
position = "{600, 0}";
},
{
name = top;
position = "{600, 1420}";
}
);
layerId = "1F90C004-9C90-48FA-B407-176B3E9F1E65";
paths = (
{
closed = 1;
nodes = (
"530 186 LINE",
"367 245 OFFCURVE",
"286 436 OFFCURVE",
"286 760 CURVE SMOOTH",
"286 1092 OFFCURVE",
"390 1256 OFFCURVE",
"600 1256 CURVE SMOOTH",
"810 1256 OFFCURVE",
"914 1092 OFFCURVE",
"914 760 CURVE SMOOTH",
"914 430 OFFCURVE",
"841 239 OFFCURVE",
"694 186 CURVE",
"874 135 LINE",
"874 206 LINE",
"1041 238 OFFCURVE",
"1124 422 OFFCURVE",
"1124 760 CURVE SMOOTH",
"1124 1215 OFFCURVE",
"950 1440 OFFCURVE",
"600 1440 CURVE SMOOTH",
"250 1440 OFFCURVE",
"76 1215 OFFCURVE",
"76 760 CURVE SMOOTH",
"76 427 OFFCURVE",
"167 242 OFFCURVE",
"350 203 CURVE",
"350 127 LINE"
);
},
{
closed = 1;
nodes = (
"530 0 LINE",
"530 186 LINE",
"104 186 LINE",
"104 0 LINE"
);
},
{
closed = 1;
nodes = (
"1096 0 LINE",
"1096 186 LINE",
"694 186 LINE",
"694 0 LINE"
);
}
);
width = 1200;
},
{
anchors = (
{
name = bottom;
position = "{600, 0}";
},
{
name = top;
position = "{600, 1420}";
}
);
layerId = "8E053A5E-67DA-4970-A6F5-068DBFE5AD21";
paths = (
{
closed = 1;
nodes = (
"563 243 LINE",
"434 293 OFFCURVE",
"336 454 OFFCURVE",
"336 727 CURVE SMOOTH",
"336 1036 OFFCURVE",
"423 1189 OFFCURVE",
"600 1189 CURVE SMOOTH",
"777 1189 OFFCURVE",
"864 1036 OFFCURVE",
"864 727 CURVE SMOOTH",
"864 448 OFFCURVE",
"774 288 OFFCURVE",
"661 243 CURVE",
"907 192 LINE",
"907 279 LINE",
"1047 344 OFFCURVE",
"1141 473 OFFCURVE",
"1141 777 CURVE SMOOTH",
"1141 1221 OFFCURVE",
"961 1440 OFFCURVE",
"600 1440 CURVE SMOOTH",
"239 1440 OFFCURVE",
"59 1221 OFFCURVE",
"59 777 CURVE SMOOTH",
"59 478 OFFCURVE",
"161 347 OFFCURVE",
"317 276 CURVE",
"317 184 LINE"
);
},
{
closed = 1;
nodes = (
"563 0 LINE",
"563 243 LINE",
"87 243 LINE",
"87 0 LINE"
);
},
{
closed = 1;
nodes = (
"1113 0 LINE",
"1113 243 LINE",
"661 243 LINE",
"661 0 LINE"
);
}
);
width = 1200;
}
);
unicode = 03A9;
}
{
glyphname = Psi;
layers = (
{
anchors = (
{
name = bottom;
position = "{600, 0}";
},
{
name = top;
position = "{600, 1420}";
}
);
layerId = master01;
paths = (
{
closed = 1;
nodes = (
"932 359 OFFCURVE",
"1100 521 OFFCURVE",
"1100 850 CURVE SMOOTH",
"1100 1420 LINE",
"1006 1420 LINE",
"1006 850 LINE SMOOTH",
"1006 582 OFFCURVE",
"870 449 OFFCURVE",
"600 449 CURVE SMOOTH",
"330 449 OFFCURVE",
"194 582 OFFCURVE",
"194 850 CURVE SMOOTH",
"194 1420 LINE",
"100 1420 LINE",
"100 850 LINE SMOOTH",
"100 521 OFFCURVE",
"268 359 OFFCURVE",
"600 359 CURVE SMOOTH"
);
},
{
closed = 1;
nodes = (
"552 0 LINE",
"646 0 LINE",
"646 402 LINE",
"552 402 LINE"
);
},
{
closed = 1;
nodes = (
"646 1420 LINE",
"552 1420 LINE",
"552 402 LINE",
"646 402 LINE"
);
}
);
width = 1200;
},
{
anchors = (
{
name = bottom;
position = "{600, 0}";
},
{
name = top;
position = "{600, 1420}";
}
);
layerId = "1F90C004-9C90-48FA-B407-176B3E9F1E65";
paths = (
{
closed = 1;
nodes = (
"948 310 OFFCURVE",
"1124 488 OFFCURVE",
"1124 850 CURVE SMOOTH",
"1124 1420 LINE",
"916 1420 LINE",
"916 850 LINE SMOOTH",
"916 612 OFFCURVE",
"811 494 OFFCURVE",
"600 494 CURVE SMOOTH",
"389 494 OFFCURVE",
"284 612 OFFCURVE",
"284 850 CURVE SMOOTH",
"284 1420 LINE",
"76 1420 LINE",
"76 850 LINE SMOOTH",
"76 488 OFFCURVE",
"252 310 OFFCURVE",
"600 310 CURVE SMOOTH"
);
},
{
closed = 1;
nodes = (
"495 0 LINE",
"703 0 LINE",
"703 410 LINE",
"495 410 LINE"
);
},
{
closed = 1;
nodes = (
"703 1420 LINE",
"495 1420 LINE",
"495 410 LINE",
"703 410 LINE"
);
}
);
width = 1200;
},
{
anchors = (
{
name = bottom;
position = "{600, 0}";
},
{
name = top;
position = "{600, 1420}";
}
);
layerId = "8E053A5E-67DA-4970-A6F5-068DBFE5AD21";
paths = (
{
closed = 1;
nodes = (
"959 277 OFFCURVE",
"1141 455 OFFCURVE",
"1141 817 CURVE SMOOTH",
"1141 1420 LINE",
"877 1420 LINE",
"877 817 LINE SMOOTH",
"877 624 OFFCURVE",
"785 528 OFFCURVE",
"600 528 CURVE SMOOTH",
"415 528 OFFCURVE",
"323 624 OFFCURVE",
"323 817 CURVE SMOOTH",
"323 1420 LINE",
"59 1420 LINE",
"59 817 LINE SMOOTH",
"59 455 OFFCURVE",
"241 277 OFFCURVE",
"600 277 CURVE SMOOTH"
);
},
{
closed = 1;
nodes = (
"467 0 LINE",
"731 0 LINE",
"731 407 LINE",
"467 407 LINE"
);
},
{
closed = 1;
nodes = (
"714 1420 LINE",
"484 1420 LINE",
"484 407 LINE",
"714 407 LINE"
);
}
);
width = 1200;
}
);
unicode = 03A8;
}
{
glyphname = Sigma;
layers = (
{
anchors = (
{
name = bottom;
position = "{600, 0}";
},
{
name = top;
position = "{600, 1420}";
}
);
layerId = master01;
paths = (
{
closed = 1;
nodes = (
"807 713 LINE",
"246 1380 LINE",
"174 1330 LINE",
"681 713 LINE",
"174 90 LINE",
"246 38 LINE"
);
},
{
closed = 1;
nodes = (
"1046 0 LINE",
"1046 90 LINE",
"174 90 LINE",
"174 0 LINE"
);
},
{
closed = 1;
nodes = (
"1026 1330 LINE",
"1026 1420 LINE",
"174 1420 LINE",
"174 1330 LINE"
);
}
);
width = 1200;
},
{
anchors = (
{
name = bottom;
position = "{600, 0}";
},
{
name = top;
position = "{600, 1420}";
}
);
layerId = "1F90C004-9C90-48FA-B407-176B3E9F1E65";
paths = (
{
closed = 1;
nodes = (
"847 713 LINE",
"312 1362 LINE",
"150 1230 LINE",
"591 713 LINE",
"150 190 LINE",
"296 68 LINE"
);
},
{
closed = 1;
nodes = (
"1070 0 LINE",
"1070 190 LINE",
"150 190 LINE",
"150 0 LINE"
);
},
{
closed = 1;
nodes = (
"1050 1230 LINE",
"1050 1420 LINE",
"150 1420 LINE",
"150 1230 LINE"
);
}
);
width = 1200;
},
{
anchors = (
{
name = bottom;
position = "{600, 0}";
},
{
name = top;
position = "{600, 1420}";
}
);
layerId = "8E053A5E-67DA-4970-A6F5-068DBFE5AD21";
paths = (
{
closed = 1;
nodes = (
"864 713 LINE",
"370 1309 LINE",
"133 1177 LINE",
"533 713 LINE",
"133 243 LINE",
"354 121 LINE"
);
},
{
closed = 1;
nodes = (
"1087 0 LINE",
"1087 243 LINE",
"133 243 LINE",
"133 0 LINE"
);
},
{
closed = 1;
nodes = (
"1067 1177 LINE",
"1067 1420 LINE",
"133 1420 LINE",
"133 1177 LINE"
);
}
);
width = 1200;
}
);
unicode = 03A3;
}
{
glyphname = alpha;
layers = (
{
anchors = (
{
name = bottom;
position = "{610, 0}";
},
{
name = top;
position = "{590, 1060}";
}
);
layerId = master01;
paths = (
{
closed = 1;
nodes = (
"728 -20 OFFCURVE",
"847 91 OFFCURVE",
"872 202 CURVE",
"899 202 LINE",
"867 580 LINE",
"867 464 LINE SMOOTH",
"867 202 OFFCURVE",
"760 72 OFFCURVE",
"542 72 CURVE SMOOTH",
"321 72 OFFCURVE",
"206 224 OFFCURVE",
"206 520 CURVE SMOOTH",
"206 818 OFFCURVE",
"326 988 OFFCURVE",
"540 988 CURVE SMOOTH",
"758 988 OFFCURVE",
"867 859 OFFCURVE",
"867 596 CURVE",
"929 858 LINE",
"858 858 LINE",
"827 990 OFFCURVE",
"723 1080 OFFCURVE",
"540 1080 CURVE SMOOTH",
"266 1080 OFFCURVE",
"110 876 OFFCURVE",
"110 520 CURVE SMOOTH",
"110 172 OFFCURVE",
"266 -20 OFFCURVE",
"538 -20 CURVE SMOOTH"
);
},
{
closed = 1;
nodes = (
"1144 0 LINE",
"1144 62 LINE",
"961 77 LINE",
"961 430 LINE",
"867 554 LINE",
"875 364 LINE",
"890 -10 LINE"
);
},
{
closed = 1;
nodes = (
"961 360 LINE",
"961 1060 LINE",
"867 1060 LINE",
"867 300 LINE"
);
}
);
width = 1200;
},
{
anchors = (
{
name = bottom;
position = "{600, 0}";
},
{
name = top;
position = "{580, 1060}";
}
);
layerId = "1F90C004-9C90-48FA-B407-176B3E9F1E65";
paths = (
{
closed = 1;
nodes = (
"658 -20 OFFCURVE",
"765 51 OFFCURVE",
"780 192 CURVE",
"872 192 LINE",
"800 516 LINE",
"800 460 LINE SMOOTH",
"800 271 OFFCURVE",
"707 160 OFFCURVE",
"550 160 CURVE SMOOTH",
"376 160 OFFCURVE",
"286 282 OFFCURVE",
"286 520 CURVE SMOOTH",
"286 762 OFFCURVE",
"385 900 OFFCURVE",
"560 900 CURVE SMOOTH",
"711 900 OFFCURVE",
"800 789 OFFCURVE",
"800 600 CURVE",
"862 868 LINE",
"780 868 LINE",
"763 1010 OFFCURVE",
"674 1080 OFFCURVE",
"510 1080 CURVE SMOOTH",
"234 1080 OFFCURVE",
"76 876 OFFCURVE",
"76 520 CURVE SMOOTH",
"76 172 OFFCURVE",
"230 -20 OFFCURVE",
"498 -20 CURVE SMOOTH"
);
},
{
closed = 1;
nodes = (
"1158 0 LINE",
"1158 170 LINE",
"1012 192 LINE",
"1012 430 LINE",
"800 490 LINE",
"800 244 LINE",
"818 -10 LINE"
);
},
{
closed = 1;
nodes = (
"1012 360 LINE",
"1012 1060 LINE",
"800 1060 LINE",
"800 300 LINE"
);
}
);
width = 1200;
},
{
anchors = (
{
name = bottom;
position = "{590, 0}";
},
{
name = top;
position = "{570, 1060}";
}
);
layerId = "8E053A5E-67DA-4970-A6F5-068DBFE5AD21";
paths = (
{
closed = 1;
nodes = (
"611 -20 OFFCURVE",
"707 51 OFFCURVE",
"720 192 CURVE",
"820 192 LINE",
"748 547 LINE",
"748 497 LINE SMOOTH",
"748 322 OFFCURVE",
"697 235 OFFCURVE",
"551 235 CURVE SMOOTH",
"403 235 OFFCURVE",
"326 331 OFFCURVE",
"326 520 CURVE SMOOTH",
"326 715 OFFCURVE",
"407 825 OFFCURVE",
"549 825 CURVE SMOOTH",
"682 825 OFFCURVE",
"748 738 OFFCURVE",
"748 563 CURVE",
"810 868 LINE",
"716 868 LINE",
"701 1010 OFFCURVE",
"620 1080 OFFCURVE",
"472 1080 CURVE SMOOTH",
"203 1080 OFFCURVE",
"49 876 OFFCURVE",
"49 520 CURVE SMOOTH",
"49 172 OFFCURVE",
"202 -20 OFFCURVE",
"468 -20 CURVE SMOOTH"
);
},
{
closed = 1;
nodes = (
"1165 0 LINE",
"1165 220 LINE",
"1019 242 LINE",
"1019 521 LINE",
"748 521 LINE",
"748 311 LINE",
"766 -10 LINE"
);
},
{
closed = 1;
nodes = (
"1019 435 LINE",
"1019 1060 LINE",
"748 1060 LINE",
"748 433 LINE"
);
}
);
width = 1200;
}
);
unicode = 03B1;
}
{
glyphname = beta;
layers = (
{
anchors = (
{
name = bottom;
position = "{600, -460}";
},
{
name = top;
position = "{605, 1500}";
}
);
layerId = master01;
paths = (
{
closed = 1;
nodes = (
"908 -20 OFFCURVE",
"1070 144 OFFCURVE",
"1070 430 CURVE SMOOTH",
"1070 670 OFFCURVE",
"940 806 OFFCURVE",
"712 806 CURVE SMOOTH",
"508 806 LINE",
"508 765 LINE",
"612 765 LINE SMOOTH",
"843 765 OFFCURVE",
"974 643 OFFCURVE",
"974 430 CURVE SMOOTH",
"974 203 OFFCURVE",
"843 72 OFFCURVE",
"616 72 CURVE SMOOTH",
"390 72 OFFCURVE",
"278 203 OFFCURVE",
"278 470 CURVE SMOOTH",
"278 1080 LINE SMOOTH",
"278 1313 OFFCURVE",
"389 1428 OFFCURVE",
"612 1428 CURVE SMOOTH",
"803 1428 OFFCURVE",
"914 1315 OFFCURVE",
"914 1120 CURVE SMOOTH",
"914 952 OFFCURVE",
"801 855 OFFCURVE",
"606 855 CURVE SMOOTH",
"508 855 LINE",
"508 814 LINE",
"664 814 LINE SMOOTH",
"884 814 OFFCURVE",
"1010 930 OFFCURVE",
"1010 1130 CURVE SMOOTH",
"1010 1377 OFFCURVE",
"865 1520 OFFCURVE",
"612 1520 CURVE SMOOTH",
"326 1520 OFFCURVE",
"184 1376 OFFCURVE",
"184 1083 CURVE SMOOTH",
"184 470 LINE SMOOTH",
"184 347 OFFCURVE",
"202 249 OFFCURVE",
"237 176 CURVE",
"330 176 LINE",
"296 216 LINE",
"296 66 OFFCURVE",
"415 -20 OFFCURVE",
"624 -20 CURVE SMOOTH"
);
},
{
closed = 1;
nodes = (
"278 -460 LINE",
"278 708 LINE",
"184 708 LINE",
"184 -460 LINE"
);
},
{
closed = 1;
nodes = (
"754 758 LINE",
"754 856 LINE",
"508 846 LINE",
"508 768 LINE"
);
}
);
width = 1200;
},
{
anchors = (
{
name = bottom;
position = "{600, -460}";
},
{
name = top;
position = "{605, 1500}";
}
);
layerId = "1F90C004-9C90-48FA-B407-176B3E9F1E65";
paths = (
{
closed = 1;
nodes = (
"934 -20 OFFCURVE",
"1094 144 OFFCURVE",
"1094 430 CURVE SMOOTH",
"1094 669 OFFCURVE",
"966 806 OFFCURVE",
"742 806 CURVE SMOOTH",
"508 806 LINE",
"508 715 LINE",
"612 715 LINE SMOOTH",
"779 715 OFFCURVE",
"874 618 OFFCURVE",
"874 450 CURVE SMOOTH",
"874 272 OFFCURVE",
"780 170 OFFCURVE",
"616 170 CURVE SMOOTH",
"453 170 OFFCURVE",
"372 269 OFFCURVE",
"372 470 CURVE SMOOTH",
"372 1020 LINE SMOOTH",
"372 1224 OFFCURVE",
"458 1330 OFFCURVE",
"622 1330 CURVE SMOOTH",
"748 1330 OFFCURVE",
"814 1254 OFFCURVE",
"814 1110 CURVE SMOOTH",
"814 980 OFFCURVE",
"738 905 OFFCURVE",
"606 905 CURVE SMOOTH",
"508 905 LINE",
"508 814 LINE",
"664 814 LINE SMOOTH",
"899 814 OFFCURVE",
"1034 926 OFFCURVE",
"1034 1120 CURVE SMOOTH",
"1034 1383 OFFCURVE",
"893 1520 OFFCURVE",
"622 1520 CURVE SMOOTH",
"318 1520 OFFCURVE",
"160 1350 OFFCURVE",
"160 1023 CURVE SMOOTH",
"160 470 LINE SMOOTH",
"160 347 OFFCURVE",
"217 249 OFFCURVE",
"331 176 CURVE",
"424 176 LINE",
"390 216 LINE",
"390 66 OFFCURVE",
"486 -20 OFFCURVE",
"654 -20 CURVE SMOOTH"
);
},
{
closed = 1;
nodes = (
"372 -460 LINE",
"372 708 LINE",
"160 708 LINE",
"160 -460 LINE"
);
},
{
closed = 1;
nodes = (
"754 758 LINE",
"754 856 LINE",
"508 856 LINE",
"508 758 LINE"
);
}
);
width = 1200;
},
{
anchors = (
{
name = bottom;
position = "{600, -460}";
},
{
name = top;
position = "{605, 1500}";
}
);
layerId = "8E053A5E-67DA-4970-A6F5-068DBFE5AD21";
paths = (
{
closed = 1;
nodes = (
"954 -20 OFFCURVE",
"1101 136 OFFCURVE",
"1101 400 CURVE SMOOTH",
"1101 650 OFFCURVE",
"955 798 OFFCURVE",
"709 798 CURVE SMOOTH",
"508 798 LINE",
"508 684 LINE",
"612 684 LINE SMOOTH",
"746 684 OFFCURVE",
"824 597 OFFCURVE",
"824 443 CURVE SMOOTH",
"824 311 OFFCURVE",
"747 237 OFFCURVE",
"616 237 CURVE SMOOTH",
"481 237 OFFCURVE",
"414 330 OFFCURVE",
"414 520 CURVE SMOOTH",
"414 1003 LINE SMOOTH",
"414 1178 OFFCURVE",
"480 1263 OFFCURVE",
"612 1263 CURVE SMOOTH",
"714 1263 OFFCURVE",
"774 1205 OFFCURVE",
"774 1105 CURVE SMOOTH",
"774 997 OFFCURVE",
"712 936 OFFCURVE",
"606 936 CURVE SMOOTH",
"508 936 LINE",
"508 822 LINE",
"689 822 LINE SMOOTH",
"919 822 OFFCURVE",
"1051 938 OFFCURVE",
"1051 1140 CURVE SMOOTH",
"1051 1381 OFFCURVE",
"891 1520 OFFCURVE",
"612 1520 CURVE SMOOTH",
"299 1520 OFFCURVE",
"143 1356 OFFCURVE",
"143 1023 CURVE SMOOTH",
"143 470 LINE SMOOTH",
"143 347 OFFCURVE",
"215 249 OFFCURVE",
"356 176 CURVE",
"466 176 LINE",
"448 216 LINE",
"448 66 OFFCURVE",
"541 -20 OFFCURVE",
"704 -20 CURVE SMOOTH"
);
},
{
closed = 1;
nodes = (
"414 -460 LINE",
"414 788 LINE",
"143 788 LINE",
"143 -460 LINE"
);
},
{
closed = 1;
nodes = (
"721 758 LINE",
"721 856 LINE",
"508 856 LINE",
"508 758 LINE"
);
}
);
width = 1200;
}
);
unicode = 03B2;
}
{
glyphname = chi;
layers = (
{
anchors = (
{
name = bottom;
position = "{600, -440}";
},
{
name = top;
position = "{586, 1060}";
}
);
layerId = master01;
paths = (
{
closed = 1;
nodes = (
"1063 -480 OFFCURVE",
"1082 -477 OFFCURVE",
"1125 -468 CURVE",
"1114 -382 LINE",
"1094 -387 OFFCURVE",
"1082 -388 OFFCURVE",
"1063 -388 CURVE SMOOTH",
"977 -388 OFFCURVE",
"935 -356 OFFCURVE",
"887 -248 CURVE SMOOTH",
"389 876 LINE SMOOTH",
"320 1033 OFFCURVE",
"259 1080 OFFCURVE",
"143 1080 CURVE SMOOTH",
"123 1080 OFFCURVE",
"104 1077 OFFCURVE",
"61 1068 CURVE",
"72 983 LINE",
"84 987 OFFCURVE",
"95 988 OFFCURVE",
"123 988 CURVE SMOOTH",
"205 988 OFFCURVE",
"246 956 OFFCURVE",
"295 845 CURVE SMOOTH",
"788 -269 LINE SMOOTH",
"860 -432 OFFCURVE",
"921 -480 OFFCURVE",
"1043 -480 CURVE SMOOTH"
);
},
{
closed = 1;
nodes = (
"216 -460 LINE",
"616 248 LINE",
"1090 1060 LINE",
"984 1060 LINE",
"578 354 LINE",
"110 -460 LINE"
);
}
);
width = 1200;
},
{
anchors = (
{
name = bottom;
position = "{600, -440}";
},
{
name = top;
position = "{586, 1060}";
}
);
layerId = "1F90C004-9C90-48FA-B407-176B3E9F1E65";
paths = (
{
closed = 1;
nodes = (
"1063 -480 OFFCURVE",
"1091 -477 OFFCURVE",
"1129 -468 CURVE",
"1105 -282 LINE",
"1079 -288 OFFCURVE",
"1062 -290 OFFCURVE",
"1043 -290 CURVE SMOOTH",
"953 -290 OFFCURVE",
"894 -247 OFFCURVE",
"847 -120 CURVE SMOOTH",
"499 820 LINE SMOOTH",
"429 1010 OFFCURVE",
"339 1080 OFFCURVE",
"163 1080 CURVE SMOOTH",
"123 1080 OFFCURVE",
"95 1077 OFFCURVE",
"57 1068 CURVE",
"81 882 LINE",
"107 888 OFFCURVE",
"124 890 OFFCURVE",
"143 890 CURVE SMOOTH",
"229 890 OFFCURVE",
"288 845 OFFCURVE",
"334 720 CURVE SMOOTH",
"678 -209 LINE SMOOTH",
"751 -407 OFFCURVE",
"844 -480 OFFCURVE",
"1023 -480 CURVE SMOOTH"
);
},
{
closed = 1;
nodes = (
"326 -460 LINE",
"646 228 LINE",
"1114 1060 LINE",
"874 1060 LINE",
"548 374 LINE",
"86 -460 LINE"
);
}
);
width = 1200;
},
{
anchors = (
{
name = bottom;
position = "{600, -440}";
},
{
name = top;
position = "{586, 1060}";
}
);
layerId = "8E053A5E-67DA-4970-A6F5-068DBFE5AD21";
paths = (
{
closed = 1;
nodes = (
"1063 -480 OFFCURVE",
"1108 -477 OFFCURVE",
"1146 -468 CURVE",
"1122 -215 LINE",
"1096 -221 OFFCURVE",
"1062 -223 OFFCURVE",
"1043 -223 CURVE SMOOTH",
"959 -223 OFFCURVE",
"909 -179 OFFCURVE",
"859 -53 CURVE SMOOTH",
"512 820 LINE SMOOTH",
"436 1012 OFFCURVE",
"346 1080 OFFCURVE",
"163 1080 CURVE SMOOTH",
"116 1080 OFFCURVE",
"84 1077 OFFCURVE",
"40 1068 CURVE",
"64 815 LINE",
"97 821 OFFCURVE",
"119 823 OFFCURVE",
"143 823 CURVE SMOOTH",
"223 823 OFFCURVE",
"273 777 OFFCURVE",
"322 653 CURVE SMOOTH",
"665 -209 LINE SMOOTH",
"744 -408 OFFCURVE",
"837 -480 OFFCURVE",
"1023 -480 CURVE SMOOTH"
);
},
{
closed = 1;
nodes = (
"376 -460 LINE",
"654 195 LINE",
"1131 1060 LINE",
"824 1060 LINE",
"540 407 LINE",
"69 -460 LINE"
);
}
);
width = 1200;
}
);
unicode = 03C7;
}
{
glyphname = delta;
layers = (
{
anchors = (
{
name = bottom;
position = "{600, 0}";
},
{
name = top;
position = "{605, 1500}";
}
);
layerId = master01;
paths = (
{
closed = 1;
nodes = (
"894 -20 OFFCURVE",
"1060 138 OFFCURVE",
"1060 416 CURVE SMOOTH",
"1060 724 OFFCURVE",
"897 823 OFFCURVE",
"616 900 CURVE SMOOTH",
"417 954 OFFCURVE",
"320 1051 OFFCURVE",
"320 1181 CURVE SMOOTH",
"320 1338 OFFCURVE",
"427 1428 OFFCURVE",
"614 1428 CURVE SMOOTH",
"744 1428 OFFCURVE",
"857 1395 OFFCURVE",
"952 1330 CURVE",
"1010 1413 LINE",
"890 1485 OFFCURVE",
"760 1520 OFFCURVE",
"614 1520 CURVE SMOOTH",
"366 1520 OFFCURVE",
"224 1397 OFFCURVE",
"224 1181 CURVE SMOOTH",
"224 1023 OFFCURVE",
"318 912 OFFCURVE",
"507 846 CURVE",
"496 907 LINE",
"496 841 LINE",
"275 816 OFFCURVE",
"150 672 OFFCURVE",
"150 416 CURVE SMOOTH",
"150 153 OFFCURVE",
"329 -20 OFFCURVE",
"603 -20 CURVE SMOOTH"
);
},
{
closed = 1;
nodes = (
"388 72 OFFCURVE",
"246 209 OFFCURVE",
"246 416 CURVE SMOOTH",
"246 639 OFFCURVE",
"385 786 OFFCURVE",
"596 786 CURVE SMOOTH",
"830 786 OFFCURVE",
"964 651 OFFCURVE",
"964 416 CURVE SMOOTH",
"964 197 OFFCURVE",
"833 72 OFFCURVE",
"605 72 CURVE SMOOTH"
);
}
);
width = 1200;
},
{
anchors = (
{
name = bottom;
position = "{600, 0}";
},
{
name = top;
position = "{605, 1500}";
}
);
layerId = "1F90C004-9C90-48FA-B407-176B3E9F1E65";
paths = (
{
closed = 1;
nodes = (
"905 -20 OFFCURVE",
"1084 156 OFFCURVE",
"1084 456 CURVE SMOOTH",
"1084 802 OFFCURVE",
"916 918 OFFCURVE",
"616 1000 CURVE SMOOTH",
"465 1041 OFFCURVE",
"412 1094 OFFCURVE",
"412 1181 CURVE SMOOTH",
"412 1286 OFFCURVE",
"478 1330 OFFCURVE",
"634 1330 CURVE SMOOTH",
"749 1330 OFFCURVE",
"848 1303 OFFCURVE",
"932 1250 CURVE",
"1034 1413 LINE",
"913 1485 OFFCURVE",
"781 1520 OFFCURVE",
"634 1520 CURVE SMOOTH",
"358 1520 OFFCURVE",
"200 1390 OFFCURVE",
"200 1161 CURVE SMOOTH",
"200 1005 OFFCURVE",
"292 911 OFFCURVE",
"507 846 CURVE",
"466 902 LINE",
"466 836 LINE",
"249 822 OFFCURVE",
"126 673 OFFCURVE",
"126 426 CURVE SMOOTH",
"126 145 OFFCURVE",
"303 -20 OFFCURVE",
"603 -20 CURVE SMOOTH"
);
},
{
closed = 1;
nodes = (
"438 164 OFFCURVE",
"340 272 OFFCURVE",
"340 456 CURVE SMOOTH",
"340 655 OFFCURVE",
"442 786 OFFCURVE",
"596 786 CURVE SMOOTH",
"761 786 OFFCURVE",
"870 663 OFFCURVE",
"870 476 CURVE SMOOTH",
"870 279 OFFCURVE",
"772 164 OFFCURVE",
"605 164 CURVE SMOOTH"
);
}
);
width = 1200;
},
{
anchors = (
{
name = bottom;
position = "{600, 0}";
},
{
name = top;
position = "{605, 1500}";
}
);
layerId = "8E053A5E-67DA-4970-A6F5-068DBFE5AD21";
paths = (
{
closed = 1;
nodes = (
"916 -20 OFFCURVE",
"1101 164 OFFCURVE",
"1101 476 CURVE SMOOTH",
"1101 809 OFFCURVE",
"925 916 OFFCURVE",
"616 1000 CURVE SMOOTH",
"506 1030 OFFCURVE",
"469 1077 OFFCURVE",
"469 1148 CURVE SMOOTH",
"469 1229 OFFCURVE",
"518 1263 OFFCURVE",
"634 1263 CURVE SMOOTH",
"756 1263 OFFCURVE",
"860 1236 OFFCURVE",
"949 1183 CURVE",
"1051 1413 LINE",
"925 1485 OFFCURVE",
"787 1520 OFFCURVE",
"634 1520 CURVE SMOOTH",
"347 1520 OFFCURVE",
"183 1390 OFFCURVE",
"183 1161 CURVE SMOOTH",
"183 1013 OFFCURVE",
"264 881 OFFCURVE",
"507 863 CURVE",
"449 902 LINE",
"449 836 LINE",
"232 823 OFFCURVE",
"109 681 OFFCURVE",
"109 446 CURVE SMOOTH",
"109 153 OFFCURVE",
"293 -20 OFFCURVE",
"604 -20 CURVE SMOOTH"
);
},
{
closed = 1;
nodes = (
"467 236 OFFCURVE",
"386 325 OFFCURVE",
"386 476 CURVE SMOOTH",
"386 625 OFFCURVE",
"474 723 OFFCURVE",
"604 723 CURVE SMOOTH",
"736 723 OFFCURVE",
"824 634 OFFCURVE",
"824 479 CURVE SMOOTH",
"824 326 OFFCURVE",
"742 236 OFFCURVE",
"604 236 CURVE SMOOTH"
);
}
);
width = 1200;
}
);
unicode = 03B4;
}
{
glyphname = epsilon;
layers = (
{
anchors = (
{
name = bottom;
position = "{600, 0}";
},
{
name = top;
position = "{640, 1060}";
}
);
layerId = master01;
paths = (
{
closed = 1;
nodes = (
"783 -20 OFFCURVE",
"915 -3 OFFCURVE",
"1016 28 CURVE",
"986 122 LINE",
"900 98 OFFCURVE",
"799 72 OFFCURVE",
"634 72 CURVE SMOOTH",
"402 72 OFFCURVE",
"286 138 OFFCURVE",
"286 270 CURVE SMOOTH",
"286 410 OFFCURVE",
"450 480 OFFCURVE",
"778 480 CURVE SMOOTH",
"815 480 LINE",
"829 570 LINE",
"528 531 LINE",
"302 510 OFFCURVE",
"190 420 OFFCURVE",
"190 260 CURVE SMOOTH",
"190 72 OFFCURVE",
"334 -20 OFFCURVE",
"626 -20 CURVE SMOOTH"
);
},
{
closed = 1;
nodes = (
"815 480 LINE",
"829 570 LINE",
"486 586 OFFCURVE",
"316 660 OFFCURVE",
"316 792 CURVE SMOOTH",
"316 923 OFFCURVE",
"432 988 OFFCURVE",
"664 988 CURVE SMOOTH",
"789 988 OFFCURVE",
"898 971 OFFCURVE",
"994 935 CURVE",
"1026 1022 LINE",
"947 1061 OFFCURVE",
"820 1080 OFFCURVE",
"642 1080 CURVE SMOOTH",
"360 1080 OFFCURVE",
"220 991 OFFCURVE",
"220 812 CURVE SMOOTH",
"220 679 OFFCURVE",
"303 591 OFFCURVE",
"472 545 CURVE",
"472 480 LINE"
);
}
);
width = 1200;
},
{
anchors = (
{
name = bottom;
position = "{600, 0}";
},
{
name = top;
position = "{640, 1060}";
}
);
layerId = "1F90C004-9C90-48FA-B407-176B3E9F1E65";
paths = (
{
closed = 1;
nodes = (
"793 -20 OFFCURVE",
"933 -1 OFFCURVE",
"1040 28 CURVE",
"985 219 LINE",
"899 196 OFFCURVE",
"799 164 OFFCURVE",
"634 164 CURVE SMOOTH",
"469 164 OFFCURVE",
"387 206 OFFCURVE",
"387 290 CURVE SMOOTH",
"387 387 OFFCURVE",
"517 435 OFFCURVE",
"778 435 CURVE SMOOTH",
"810 435 LINE",
"834 616 LINE",
"528 536 LINE",
"286 516 OFFCURVE",
"166 431 OFFCURVE",
"166 280 CURVE SMOOTH",
"166 79 OFFCURVE",
"318 -20 OFFCURVE",
"626 -20 CURVE SMOOTH"
);
},
{
closed = 1;
nodes = (
"810 435 LINE",
"834 616 LINE",
"555 627 OFFCURVE",
"417 679 OFFCURVE",
"417 772 CURVE SMOOTH",
"417 855 OFFCURVE",
"499 896 OFFCURVE",
"664 896 CURVE SMOOTH",
"786 896 OFFCURVE",
"892 878 OFFCURVE",
"985 841 CURVE",
"1050 1022 LINE",
"966 1061 OFFCURVE",
"831 1080 OFFCURVE",
"642 1080 CURVE SMOOTH",
"344 1080 OFFCURVE",
"196 994 OFFCURVE",
"196 822 CURVE SMOOTH",
"196 687 OFFCURVE",
"287 597 OFFCURVE",
"472 550 CURVE",
"472 435 LINE"
);
}
);
width = 1200;
},
{
anchors = (
{
name = bottom;
position = "{600, 0}";
},
{
name = top;
position = "{640, 1060}";
}
);
layerId = "8E053A5E-67DA-4970-A6F5-068DBFE5AD21";
paths = (
{
closed = 1;
nodes = (
"800 -20 OFFCURVE",
"946 -1 OFFCURVE",
"1057 28 CURVE",
"1002 291 LINE",
"912 268 OFFCURVE",
"807 236 OFFCURVE",
"634 236 CURVE SMOOTH",
"495 236 OFFCURVE",
"426 262 OFFCURVE",
"426 315 CURVE SMOOTH",
"426 376 OFFCURVE",
"543 406 OFFCURVE",
"778 406 CURVE SMOOTH",
"810 406 LINE",
"834 648 LINE",
"561 524 LINE",
"286 504 OFFCURVE",
"149 417 OFFCURVE",
"149 263 CURVE SMOOTH",
"149 73 OFFCURVE",
"307 -20 OFFCURVE",
"626 -20 CURVE SMOOTH"
);
},
{
closed = 1;
nodes = (
"810 406 LINE",
"834 648 LINE",
"581 655 OFFCURVE",
"456 688 OFFCURVE",
"456 747 CURVE SMOOTH",
"456 799 OFFCURVE",
"525 824 OFFCURVE",
"664 824 CURVE SMOOTH",
"793 824 OFFCURVE",
"904 809 OFFCURVE",
"1002 778 CURVE",
"1067 1030 LINE",
"979 1064 OFFCURVE",
"839 1080 OFFCURVE",
"642 1080 CURVE SMOOTH",
"333 1080 OFFCURVE",
"179 997 OFFCURVE",
"179 830 CURVE SMOOTH",
"179 694 OFFCURVE",
"287 602 OFFCURVE",
"505 554 CURVE",
"505 431 LINE"
);
}
);
width = 1200;
}
);
unicode = 03B5;
}
{
glyphname = equal;
layers = (
{
layerId = master01;
paths = (
{
closed = 1;
nodes = (
"1076 914 LINE",
"1076 1004 LINE",
"124 1004 LINE",
"124 914 LINE"
);
},
{
closed = 1;
nodes = (
"1076 414 LINE",
"1076 504 LINE",
"124 504 LINE",
"124 414 LINE"
);
}
);
width = 1200;
},
{
layerId = "1F90C004-9C90-48FA-B407-176B3E9F1E65";
paths = (
{
closed = 1;
nodes = (
"1100 866 LINE",
"1100 1052 LINE",
"100 1052 LINE",
"100 866 LINE"
);
},
{
closed = 1;
nodes = (
"1100 366 LINE",
"1100 552 LINE",
"100 552 LINE",
"100 366 LINE"
);
}
);
width = 1200;
},
{
layerId = "8E053A5E-67DA-4970-A6F5-068DBFE5AD21";
paths = (
{
closed = 1;
nodes = (
"1117 835 LINE",
"1117 1085 LINE",
"83 1085 LINE",
"83 835 LINE"
);
},
{
closed = 1;
nodes = (
"1117 333 LINE",
"1117 583 LINE",
"83 583 LINE",
"83 333 LINE"
);
}
);
width = 1200;
}
);
unicode = 003D;
}
{
glyphname = eta;
layers = (
{
anchors = (
{
name = bottom;
position = "{590, -280}";
},
{
name = top;
position = "{590, 1060}";
}
);
layerId = master01;
paths = (
{
closed = 1;
nodes = (
"1008 -460 LINE",
"1008 690 LINE SMOOTH",
"1008 938 OFFCURVE",
"867 1080 OFFCURVE",
"621 1080 CURVE SMOOTH",
"441 1080 OFFCURVE",
"333 1010 OFFCURVE",
"294 868 CURVE",
"222 868 LINE",
"286 600 LINE",
"286 860 OFFCURVE",
"402 988 OFFCURVE",
"630 988 CURVE SMOOTH",
"809 988 OFFCURVE",
"914 882 OFFCURVE",
"914 694 CURVE SMOOTH",
"914 -460 LINE"
);
},
{
closed = 1;
nodes = (
"286 0 LINE",
"286 836 LINE",
"278 1060 LINE",
"192 1060 LINE",
"192 0 LINE"
);
}
);
width = 1200;
},
{
anchors = (
{
name = bottom;
position = "{590, -280}";
},
{
name = top;
position = "{590, 1060}";
}
);
layerId = "1F90C004-9C90-48FA-B407-176B3E9F1E65";
paths = (
{
closed = 1;
nodes = (
"1032 -460 LINE",
"1032 690 LINE SMOOTH",
"1032 938 OFFCURVE",
"904 1080 OFFCURVE",
"680 1080 CURVE SMOOTH",
"502 1080 OFFCURVE",
"412 1010 OFFCURVE",
"400 868 CURVE",
"318 868 LINE",
"380 596 LINE",
"380 800 OFFCURVE",
"464 900 OFFCURVE",
"630 900 CURVE SMOOTH",
"750 900 OFFCURVE",
"820 824 OFFCURVE",
"820 690 CURVE SMOOTH",
"820 -460 LINE"
);
},
{
closed = 1;
nodes = (
"380 0 LINE",
"380 836 LINE",
"360 1060 LINE",
"168 1060 LINE",
"168 0 LINE"
);
}
);
width = 1200;
},
{
anchors = (
{
name = bottom;
position = "{590, -280}";
},
{
name = top;
position = "{590, 1060}";
}
);
layerId = "8E053A5E-67DA-4970-A6F5-068DBFE5AD21";
paths = (
{
closed = 1;
nodes = (
"1049 -460 LINE",
"1049 690 LINE SMOOTH",
"1049 938 OFFCURVE",
"921 1080 OFFCURVE",
"697 1080 CURVE SMOOTH",
"539 1080 OFFCURVE",
"468 1010 OFFCURVE",
"448 868 CURVE",
"360 868 LINE",
"422 529 LINE",
"422 728 OFFCURVE",
"491 825 OFFCURVE",
"626 825 CURVE SMOOTH",
"723 825 OFFCURVE",
"778 752 OFFCURVE",
"778 623 CURVE SMOOTH",
"778 -460 LINE"
);
},
{
closed = 1;
nodes = (
"422 0 LINE",
"422 836 LINE",
"393 1060 LINE",
"151 1060 LINE",
"151 0 LINE"
);
}
);
width = 1200;
}
);
unicode = 03B7;
}
{
glyphname = gamma;
layers = (
{
anchors = (
{
name = bottom;
position = "{590, -280}";
},
{
name = top;
position = "{590, 1060}";
}
);
layerId = master01;
paths = (
{
closed = 1;
nodes = (
"857 -20 OFFCURVE",
"1106 338 OFFCURVE",
"1106 1060 CURVE",
"1010 1060 LINE",
"1010 399 OFFCURVE",
"792 72 OFFCURVE",
"354 72 CURVE",
"354 -20 LINE"
);
},
{
closed = 1;
nodes = (
"394 -460 LINE",
"402 -329 OFFCURVE",
"406 -173 OFFCURVE",
"406 10 CURVE SMOOTH",
"406 678 OFFCURVE",
"355 896 OFFCURVE",
"148 1100 CURVE",
"70 1032 LINE",
"262 851 OFFCURVE",
"310 645 OFFCURVE",
"310 10 CURVE SMOOTH",
"310 -173 OFFCURVE",
"307 -329 OFFCURVE",
"300 -460 CURVE"
);
}
);
width = 1200;
},
{
anchors = (
{
name = bottom;
position = "{590, -280}";
},
{
name = top;
position = "{590, 1060}";
}
);
layerId = "1F90C004-9C90-48FA-B407-176B3E9F1E65";
paths = (
{
closed = 1;
nodes = (
"873 -20 OFFCURVE",
"1130 338 OFFCURVE",
"1130 1060 CURVE",
"918 1060 LINE",
"918 465 OFFCURVE",
"731 170 OFFCURVE",
"354 170 CURVE",
"354 -20 LINE"
);
},
{
closed = 1;
nodes = (
"488 -460 LINE",
"495 -329 OFFCURVE",
"498 -173 OFFCURVE",
"498 10 CURVE SMOOTH",
"498 678 OFFCURVE",
"428 896 OFFCURVE",
"148 1100 CURVE",
"26 925 LINE",
"234 763 OFFCURVE",
"286 579 OFFCURVE",
"286 10 CURVE SMOOTH",
"286 -173 OFFCURVE",
"283 -329 OFFCURVE",
"276 -460 CURVE"
);
}
);
width = 1200;
},
{
anchors = (
{
name = bottom;
position = "{590, -280}";
},
{
name = top;
position = "{590, 1060}";
}
);
layerId = "8E053A5E-67DA-4970-A6F5-068DBFE5AD21";
paths = (
{
closed = 1;
nodes = (
"884 -20 OFFCURVE",
"1147 338 OFFCURVE",
"1147 1060 CURVE",
"876 1060 LINE",
"876 509 OFFCURVE",
"704 237 OFFCURVE",
"354 237 CURVE",
"354 -20 LINE"
);
},
{
closed = 1;
nodes = (
"530 -460 LINE",
"537 -329 OFFCURVE",
"540 -173 OFFCURVE",
"540 10 CURVE SMOOTH",
"540 678 OFFCURVE",
"466 896 OFFCURVE",
"173 1100 CURVE",
"9 892 LINE",
"217 736 OFFCURVE",
"269 558 OFFCURVE",
"269 10 CURVE SMOOTH",
"269 -173 OFFCURVE",
"266 -329 OFFCURVE",
"259 -460 CURVE"
);
}
);
width = 1200;
}
);
unicode = 03B3;
}
{
glyphname = greater;
layers = (
{
layerId = master01;
paths = (
{
closed = 1;
nodes = (
"1080 653 LINE",
"1080 765 LINE",
"170 1204 LINE",
"170 1104 LINE",
"1002 713 LINE",
"1002 705 LINE",
"170 314 LINE",
"170 214 LINE"
);
}
);
width = 1200;
},
{
layerId = "1F90C004-9C90-48FA-B407-176B3E9F1E65";
paths = (
{
closed = 1;
nodes = (
"1104 608 LINE",
"1104 810 LINE",
"146 1204 LINE",
"146 984 LINE",
"846 718 LINE",
"846 700 LINE",
"146 434 LINE",
"146 214 LINE"
);
}
);
width = 1200;
},
{
layerId = "8E053A5E-67DA-4970-A6F5-068DBFE5AD21";
paths = (
{
closed = 1;
nodes = (
"1137 575 LINE",
"1137 843 LINE",
"113 1221 LINE",
"113 951 LINE",
"863 718 LINE",
"863 700 LINE",
"113 467 LINE",
"113 197 LINE"
);
}
);
width = 1200;
}
);
unicode = 003E;
}
{
glyphname = iota;
layers = (
{
anchors = (
{
name = bottom;
position = "{600, 0}";
},
{
name = top;
position = "{536, 1060}";
}
);
layerId = master01;
paths = (
{
closed = 1;
nodes = (
"908 -20 OFFCURVE",
"969 -8 OFFCURVE",
"1040 22 CURVE",
"1026 114 LINE",
"947 88 OFFCURVE",
"888 76 OFFCURVE",
"834 76 CURVE SMOOTH",
"662 76 OFFCURVE",
"583 172 OFFCURVE",
"583 380 CURVE SMOOTH",
"583 1060 LINE",
"489 1060 LINE",
"489 370 LINE SMOOTH",
"489 103 OFFCURVE",
"597 -20 OFFCURVE",
"834 -20 CURVE SMOOTH"
);
},
{
closed = 1;
nodes = (
"509 970 LINE",
"509 1060 LINE",
"154 1060 LINE",
"154 970 LINE"
);
}
);
width = 1200;
},
{
anchors = (
{
name = bottom;
position = "{600, 0}";
},
{
name = top;
position = "{536, 1060}";
}
);
layerId = "1F90C004-9C90-48FA-B407-176B3E9F1E65";
paths = (
{
closed = 1;
nodes = (
"872 -20 OFFCURVE",
"961 -8 OFFCURVE",
"1064 22 CURVE",
"1040 208 LINE",
"959 182 OFFCURVE",
"899 170 OFFCURVE",
"844 170 CURVE SMOOTH",
"674 170 OFFCURVE",
"642 242 OFFCURVE",
"642 410 CURVE SMOOTH",
"642 1060 LINE",
"430 1060 LINE",
"430 400 LINE SMOOTH",
"430 106 OFFCURVE",
"528 -20 OFFCURVE",
"764 -20 CURVE SMOOTH"
);
},
{
closed = 1;
nodes = (
"448 884 LINE",
"448 1060 LINE",
"130 1060 LINE",
"130 884 LINE"
);
}
);
width = 1200;
},
{
anchors = (
{
name = bottom;
position = "{600, 0}";
},
{
name = top;
position = "{536, 1060}";
}
);
layerId = "8E053A5E-67DA-4970-A6F5-068DBFE5AD21";
paths = (
{
closed = 1;
nodes = (
"878 -20 OFFCURVE",
"972 -8 OFFCURVE",
"1081 22 CURVE",
"1057 275 LINE",
"969 249 OFFCURVE",
"904 237 OFFCURVE",
"844 237 CURVE SMOOTH",
"698 237 OFFCURVE",
"671 309 OFFCURVE",
"671 477 CURVE SMOOTH",
"671 1060 LINE",
"401 1060 LINE",
"401 400 LINE SMOOTH",
"401 106 OFFCURVE",
"507 -20 OFFCURVE",
"764 -20 CURVE SMOOTH"
);
},
{
closed = 1;
nodes = (
"448 811 LINE",
"448 1060 LINE",
"113 1060 LINE",
"113 811 LINE"
);
}
);
width = 1200;
}
);
unicode = 03B9;
}
{
glyphname = kaiSymbol;
production = uni03D7;
layers = (
{
anchors = (
{
name = bottom;
position = "{590, -280}";
},
{
name = top;
position = "{590, 1060}";
}
);
layerId = master01;
paths = (
{
closed = 1;
nodes = (
"1095 1030 LINE",
"1030 1080 LINE",
"568 541 LINE SMOOTH",
"435 386 OFFCURVE",
"345 278 OFFCURVE",
"288 171 CURVE",
"184 171 LINE",
"222 0 LINE"
);
},
{
closed = 1;
nodes = (
"222 0 LINE",
"276 107 LINE",
"276 1060 LINE",
"182 1060 LINE",
"182 0 LINE"
);
},
{
closed = 1;
nodes = (
"1081 -395 LINE",
"1081 -10 LINE SMOOTH",
"1081 48 OFFCURVE",
"1068 95 OFFCURVE",
"1036 146 CURVE SMOOTH",
"719 668 LINE",
"647 608 LINE",
"947 120 LINE SMOOTH",
"977 71 OFFCURVE",
"987 34 OFFCURVE",
"987 -18 CURVE SMOOTH",
"987 -395 LINE"
);
}
);
width = 1200;
},
{
anchors = (
{
name = bottom;
position = "{590, -280}";
},
{
name = top;
position = "{590, 1060}";
}
);
layerId = "1F90C004-9C90-48FA-B407-176B3E9F1E65";
paths = (
{
closed = 1;
nodes = (
"1117 961 LINE",
"944 1080 LINE",
"558 591 LINE SMOOTH",
"463 471 OFFCURVE",
"412 338 OFFCURVE",
"392 191 CURVE",
"312 191 LINE",
"350 0 LINE"
);
},
{
closed = 1;
nodes = (
"350 0 LINE",
"370 107 LINE",
"370 1060 LINE",
"158 1060 LINE",
"158 0 LINE"
);
},
{
closed = 1;
nodes = (
"1105 -395 LINE",
"1105 50 LINE SMOOTH",
"1105 130 OFFCURVE",
"1088 178 OFFCURVE",
"1044 235 CURVE SMOOTH",
"756 608 LINE",
"607 468 LINE",
"853 154 LINE SMOOTH",
"882 117 OFFCURVE",
"893 80 OFFCURVE",
"893 12 CURVE SMOOTH",
"893 -395 LINE"
);
}
);
width = 1200;
},
{
anchors = (
{
name = bottom;
position = "{590, -280}";
},
{
name = top;
position = "{590, 1060}";
}
);
layerId = "8E053A5E-67DA-4970-A6F5-068DBFE5AD21";
paths = (
{
closed = 1;
nodes = (
"1134 911 LINE",
"935 1080 LINE",
"604 679 LINE SMOOTH",
"506 562 OFFCURVE",
"454 437 OFFCURVE",
"450 304 CURVE",
"354 304 LINE",
"392 0 LINE"
);
},
{
closed = 1;
nodes = (
"392 0 LINE",
"412 107 LINE",
"412 1060 LINE",
"141 1060 LINE",
"141 0 LINE"
);
},
{
closed = 1;
nodes = (
"1122 -395 LINE",
"1122 25 LINE SMOOTH",
"1122 105 OFFCURVE",
"1103 152 OFFCURVE",
"1061 210 CURVE SMOOTH",
"789 583 LINE",
"582 443 LINE",
"811 129 LINE SMOOTH",
"840 91 OFFCURVE",
"851 55 OFFCURVE",
"851 -13 CURVE SMOOTH",
"851 -395 LINE"
);
}
);
width = 1200;
}
);
unicode = 03D7;
}
{
glyphname = kappa;
layers = (
{
anchors = (
{
name = bottom;
position = "{590, 0}";
},
{
name = top;
position = "{606, 1060}";
}
);
guideLines = (
{
angle = 231.3928;
position = "{802, 714}";
}
);
layerId = master01;
paths = (
{
closed = 1;
nodes = (
"1095 1030 LINE",
"1030 1080 LINE",
"568 541 LINE SMOOTH",
"435 386 OFFCURVE",
"345 278 OFFCURVE",
"288 171 CURVE",
"184 171 LINE",
"222 0 LINE"
);
},
{
closed = 1;
nodes = (
"222 0 LINE",
"276 107 LINE",
"276 1060 LINE",
"182 1060 LINE",
"182 0 LINE"
);
},
{
closed = 1;
nodes = (
"1126 0 LINE",
"719 668 LINE",
"647 608 LINE",
"1020 0 LINE"
);
}
);
width = 1200;
},
{
anchors = (
{
name = bottom;
position = "{590, 0}";
},
{
name = top;
position = "{606, 1060}";
}
);
guideLines = (
{
angle = 231.3928;
position = "{682, 714}";
}
);
layerId = "1F90C004-9C90-48FA-B407-176B3E9F1E65";
paths = (
{
closed = 1;
nodes = (
"1117 961 LINE",
"944 1080 LINE",
"558 591 LINE SMOOTH",
"463 471 OFFCURVE",
"412 338 OFFCURVE",
"392 191 CURVE",
"312 191 LINE",
"350 0 LINE"
);
},
{
closed = 1;
nodes = (
"350 0 LINE",
"370 107 LINE",
"370 1060 LINE",
"158 1060 LINE",
"158 0 LINE"
);
},
{
closed = 1;
nodes = (
"1150 0 LINE",
"756 608 LINE",
"607 468 LINE",
"913 0 LINE"
);
}
);
width = 1200;
},
{
anchors = (
{
name = bottom;
position = "{590, 0}";
},
{
name = top;
position = "{606, 1060}";
}
);
layerId = "8E053A5E-67DA-4970-A6F5-068DBFE5AD21";
paths = (
{
closed = 1;
nodes = (
"1134 911 LINE",
"935 1080 LINE",
"604 679 LINE SMOOTH",
"506 562 OFFCURVE",
"454 437 OFFCURVE",
"450 304 CURVE",
"354 304 LINE",
"392 0 LINE"
);
},
{
closed = 1;
nodes = (
"392 0 LINE",
"412 107 LINE",
"412 1060 LINE",
"141 1060 LINE",
"141 0 LINE"
);
},
{
closed = 1;
nodes = (
"1167 0 LINE",
"756 608 LINE",
"532 468 LINE",
"838 0 LINE"
);
}
);
width = 1200;
}
);
unicode = 03BA;
}
{
glyphname = lambda;
layers = (
{
anchors = (
{
name = bottom;
position = "{600, 0}";
},
{
name = top;
position = "{600, 1460}";
}
);
layerId = master01;
paths = (
{
closed = 1;
nodes = (
"1097 -20 OFFCURVE",
"1119 -17 OFFCURVE",
"1150 -8 CURVE",
"1138 77 LINE",
"1116 72 OFFCURVE",
"1103 70 OFFCURVE",
"1088 70 CURVE SMOOTH",
"973 70 OFFCURVE",
"921 113 OFFCURVE",
"887 230 CURVE SMOOTH",
"573 1320 LINE SMOOTH",
"531 1467 OFFCURVE",
"466 1520 OFFCURVE",
"327 1520 CURVE SMOOTH",
"298 1520 OFFCURVE",
"276 1517 OFFCURVE",
"245 1508 CURVE",
"259 1425 LINE",
"278 1429 OFFCURVE",
"291 1430 OFFCURVE",
"307 1430 CURVE SMOOTH",
"408 1430 OFFCURVE",
"455 1395 OFFCURVE",
"483 1300 CURVE SMOOTH",
"804 201 LINE SMOOTH",
"851 39 OFFCURVE",
"922 -20 OFFCURVE",
"1068 -20 CURVE SMOOTH"
);
},
{
closed = 1;
nodes = (
"187 0 LINE",
"525 811 LINE SMOOTH",
"555 883 OFFCURVE",
"566 931 OFFCURVE",
"555 1015 CURVE",
"620 1035 LINE",
"546 1092 LINE",
"91 0 LINE"
);
}
);
width = 1200;
},
{
anchors = (
{
name = bottom;
position = "{600, 0}";
},
{
name = top;
position = "{600, 1460}";
}
);
layerId = "1F90C004-9C90-48FA-B407-176B3E9F1E65";
paths = (
{
closed = 1;
nodes = (
"1108 -20 OFFCURVE",
"1136 -17 OFFCURVE",
"1174 -8 CURVE",
"1150 178 LINE",
"1124 172 OFFCURVE",
"1107 170 OFFCURVE",
"1088 170 CURVE SMOOTH",
"1007 170 OFFCURVE",
"953 213 OFFCURVE",
"917 340 CURVE SMOOTH",
"653 1260 LINE SMOOTH",
"596 1457 OFFCURVE",
"497 1520 OFFCURVE",
"327 1520 CURVE SMOOTH",
"287 1520 OFFCURVE",
"259 1517 OFFCURVE",
"221 1508 CURVE",
"245 1322 LINE",
"271 1328 OFFCURVE",
"288 1330 OFFCURVE",
"307 1330 CURVE SMOOTH",
"384 1330 OFFCURVE",
"436 1287 OFFCURVE",
"473 1160 CURVE SMOOTH",
"734 251 LINE SMOOTH",
"793 45 OFFCURVE",
"894 -20 OFFCURVE",
"1068 -20 CURVE SMOOTH"
);
},
{
closed = 1;
nodes = (
"294 0 LINE",
"518 591 LINE SMOOTH",
"547 667 OFFCURVE",
"548 748 OFFCURVE",
"527 836 CURVE",
"662 877 LINE",
"526 1108 LINE",
"67 0 LINE"
);
}
);
width = 1200;
},
{
anchors = (
{
name = bottom;
position = "{600, 0}";
},
{
name = top;
position = "{600, 1460}";
}
);
layerId = "8E053A5E-67DA-4970-A6F5-068DBFE5AD21";
paths = (
{
closed = 1;
nodes = (
"1115 -20 OFFCURVE",
"1147 -17 OFFCURVE",
"1191 -8 CURVE",
"1167 236 LINE",
"1137 230 OFFCURVE",
"1118 228 OFFCURVE",
"1096 228 CURVE SMOOTH",
"1024 228 OFFCURVE",
"971 267 OFFCURVE",
"948 349 CURVE SMOOTH",
"687 1260 LINE SMOOTH",
"630 1460 OFFCURVE",
"516 1520 OFFCURVE",
"328 1520 CURVE SMOOTH",
"281 1520 OFFCURVE",
"249 1517 OFFCURVE",
"205 1508 CURVE",
"229 1264 LINE",
"259 1270 OFFCURVE",
"276 1272 OFFCURVE",
"300 1272 CURVE SMOOTH",
"368 1272 OFFCURVE",
"415 1250 OFFCURVE",
"438 1168 CURVE SMOOTH",
"701 251 LINE SMOOTH",
"761 43 OFFCURVE",
"877 -20 OFFCURVE",
"1068 -20 CURVE SMOOTH"
);
},
{
closed = 1;
nodes = (
"357 0 LINE",
"510 398 LINE SMOOTH",
"545 490 OFFCURVE",
"561 603 OFFCURVE",
"535 718 CURVE",
"670 759 LINE",
"484 1050 LINE",
"50 0 LINE"
);
}
);
width = 1200;
}
);
unicode = 03BB;
}
{
glyphname = mu;
production = uni03BC;
layers = (
{
anchors = (
{
name = bottom;
position = "{595, -280}";
},
{
name = top;
position = "{581, 1060}";
}
);
layerId = master01;
paths = (
{
closed = 1;
nodes = (
"729 -20 OFFCURVE",
"845 57 OFFCURVE",
"883 184 CURVE",
"943 184 LINE",
"889 490 LINE",
"889 189 OFFCURVE",
"784 72 OFFCURVE",
"581 72 CURVE SMOOTH",
"383 72 OFFCURVE",
"269 200 OFFCURVE",
"269 430 CURVE SMOOTH",
"269 1060 LINE",
"175 1060 LINE",
"175 360 LINE",
"224 184 LINE",
"270 184 LINE",
"314 47 OFFCURVE",
"415 -20 OFFCURVE",
"581 -20 CURVE SMOOTH"
);
},
{
closed = 1;
nodes = (
"269 -460 LINE",
"261 237 LINE",
"175 430 LINE",
"175 -460 LINE"
);
},
{
closed = 1;
nodes = (
"1129 0 LINE",
"1129 63 LINE",
"983 73 LINE",
"983 430 LINE",
"889 430 LINE",
"889 244 LINE",
"907 -10 LINE"
);
},
{
closed = 1;
nodes = (
"983 360 LINE",
"983 1060 LINE",
"889 1060 LINE",
"889 300 LINE"
);
}
);
width = 1200;
},
{
anchors = (
{
name = bottom;
position = "{595, -280}";
},
{
name = top;
position = "{581, 1060}";
}
);
layerId = "1F90C004-9C90-48FA-B407-176B3E9F1E65";
paths = (
{
closed = 1;
nodes = (
"678 -20 OFFCURVE",
"751 54 OFFCURVE",
"779 204 CURVE",
"849 204 LINE",
"795 490 LINE",
"795 274 OFFCURVE",
"715 190 OFFCURVE",
"561 190 CURVE SMOOTH",
"436 190 OFFCURVE",
"363 276 OFFCURVE",
"363 430 CURVE SMOOTH",
"363 1060 LINE",
"151 1060 LINE",
"151 360 LINE",
"299 204 LINE",
"356 204 LINE",
"385 54 OFFCURVE",
"452 -20 OFFCURVE",
"561 -20 CURVE SMOOTH"
);
},
{
closed = 1;
nodes = (
"373 -460 LINE",
"335 237 LINE",
"151 430 LINE",
"151 -460 LINE"
);
},
{
closed = 1;
nodes = (
"1153 0 LINE",
"1153 170 LINE",
"1007 192 LINE",
"1007 430 LINE",
"795 430 LINE",
"795 244 LINE",
"813 -10 LINE"
);
},
{
closed = 1;
nodes = (
"1007 360 LINE",
"1007 1060 LINE",
"795 1060 LINE",
"795 300 LINE"
);
}
);
width = 1200;
},
{
anchors = (
{
name = bottom;
position = "{595, -280}";
},
{
name = top;
position = "{581, 1060}";
}
);
layerId = "8E053A5E-67DA-4970-A6F5-068DBFE5AD21";
paths = (
{
closed = 1;
nodes = (
"669 -20 OFFCURVE",
"724 54 OFFCURVE",
"729 204 CURVE",
"799 204 LINE",
"753 540 LINE",
"753 324 OFFCURVE",
"688 240 OFFCURVE",
"561 240 CURVE SMOOTH",
"463 240 OFFCURVE",
"405 326 OFFCURVE",
"405 480 CURVE SMOOTH",
"405 1060 LINE",
"134 1060 LINE",
"134 360 LINE",
"341 204 LINE",
"406 204 LINE",
"411 54 OFFCURVE",
"462 -20 OFFCURVE",
"561 -20 CURVE SMOOTH"
);
},
{
closed = 1;
nodes = (
"415 -460 LINE",
"377 237 LINE",
"134 430 LINE",
"134 -460 LINE"
);
},
{
closed = 1;
nodes = (
"1170 0 LINE",
"1170 220 LINE",
"1024 242 LINE",
"1024 480 LINE",
"753 480 LINE",
"753 244 LINE",
"771 -10 LINE"
);
},
{
closed = 1;
nodes = (
"1024 360 LINE",
"1024 1060 LINE",
"753 1060 LINE",
"753 300 LINE"
);
}
);
width = 1200;
}
);
unicode = 03BC;
}
{
glyphname = nu;
layers = (
{
anchors = (
{
name = bottom;
position = "{600, 0}";
},
{
name = top;
position = "{586, 1060}";
}
);
layerId = master01;
paths = (
{
closed = 1;
nodes = (
"669 0 LINE",
"1096 1060 LINE",
"995 1060 LINE",
"609 80 LINE",
"597 80 LINE",
"537 0 LINE"
);
},
{
closed = 1;
nodes = (
"624 0 LINE",
"452 545 LINE SMOOTH",
"357 845 OFFCURVE",
"234 1023 OFFCURVE",
"81 1080 CURVE",
"29 1005 LINE",
"165 952 OFFCURVE",
"277 790 OFFCURVE",
"367 515 CURVE SMOOTH",
"537 0 LINE"
);
}
);
width = 1200;
},
{
anchors = (
{
name = bottom;
position = "{600, 0}";
},
{
name = top;
position = "{586, 1060}";
}
);
layerId = "1F90C004-9C90-48FA-B407-176B3E9F1E65";
paths = (
{
closed = 1;
nodes = (
"736 0 LINE",
"1120 1060 LINE",
"894 1060 LINE",
"604 180 LINE",
"586 180 LINE",
"444 0 LINE"
);
},
{
closed = 1;
nodes = (
"618 79 LINE",
"496 560 LINE SMOOTH",
"428 827 OFFCURVE",
"333 1004 OFFCURVE",
"128 1080 CURVE",
"6 905 LINE",
"186 837 OFFCURVE",
"253 658 OFFCURVE",
"331 390 CURVE SMOOTH",
"444 0 LINE"
);
}
);
width = 1200;
},
{
anchors = (
{
name = bottom;
position = "{600, 0}";
},
{
name = top;
position = "{586, 1060}";
}
);
layerId = "8E053A5E-67DA-4970-A6F5-068DBFE5AD21";
paths = (
{
closed = 1;
nodes = (
"778 0 LINE",
"1137 1060 LINE",
"861 1060 LINE",
"612 238 LINE",
"578 238 LINE",
"411 0 LINE"
);
},
{
closed = 1;
nodes = (
"626 79 LINE",
"491 610 LINE SMOOTH",
"415 910 OFFCURVE",
"302 1016 OFFCURVE",
"128 1080 CURVE",
"-11 863 LINE",
"116 820 OFFCURVE",
"215 677 OFFCURVE",
"298 390 CURVE SMOOTH",
"411 0 LINE"
);
}
);
width = 1200;
}
);
unicode = 03BD;
}
{
glyphname = omega;
layers = (
{
anchors = (
{
name = bottom;
position = "{600, 0}";
},
{
name = top;
position = "{600, 1060}";
}
);
layerId = master01;
paths = (
{
closed = 1;
nodes = (
"970 -20 OFFCURVE",
"1058 81 OFFCURVE",
"1058 260 CURVE SMOOTH",
"1058 1060 LINE",
"964 1060 LINE",
"964 260 LINE SMOOTH",
"964 140 OFFCURVE",
"910 72 OFFCURVE",
"807 72 CURVE SMOOTH",
"698 72 OFFCURVE",
"640 121 OFFCURVE",
"640 250 CURVE",
"597 234 LINE",
"596 234 LINE",
"605 56 OFFCURVE",
"677 -20 OFFCURVE",
"807 -20 CURVE SMOOTH"
);
},
{
closed = 1;
nodes = (
"507 -20 OFFCURVE",
"583 56 OFFCURVE",
"592 234 CURVE",
"591 234 LINE",
"548 250 LINE",
"548 121 OFFCURVE",
"487 72 OFFCURVE",
"371 72 CURVE SMOOTH",
"275 72 OFFCURVE",
"224 140 OFFCURVE",
"224 260 CURVE SMOOTH",
"224 1060 LINE",
"130 1060 LINE",
"130 260 LINE SMOOTH",
"130 81 OFFCURVE",
"215 -20 OFFCURVE",
"371 -20 CURVE SMOOTH"
);
},
{
closed = 1;
nodes = (
"640 214 LINE",
"640 860 LINE",
"548 860 LINE",
"548 214 LINE"
);
}
);
width = 1200;
},
{
anchors = (
{
name = bottom;
position = "{600, 0}";
},
{
name = top;
position = "{600, 1060}";
}
);
layerId = "1F90C004-9C90-48FA-B407-176B3E9F1E65";
paths = (
{
closed = 1;
nodes = (
"993 -20 OFFCURVE",
"1082 103 OFFCURVE",
"1082 320 CURVE SMOOTH",
"1082 1060 LINE",
"870 1060 LINE",
"870 320 LINE SMOOTH",
"870 218 OFFCURVE",
"838 160 OFFCURVE",
"777 160 CURVE SMOOTH",
"716 160 OFFCURVE",
"684 215 OFFCURVE",
"684 360 CURVE",
"597 344 LINE",
"596 344 LINE",
"617 89 OFFCURVE",
"685 -20 OFFCURVE",
"827 -20 CURVE SMOOTH"
);
},
{
closed = 1;
nodes = (
"499 -20 OFFCURVE",
"571 89 OFFCURVE",
"592 344 CURVE",
"591 344 LINE",
"504 360 LINE",
"504 215 OFFCURVE",
"472 160 OFFCURVE",
"411 160 CURVE SMOOTH",
"350 160 OFFCURVE",
"318 218 OFFCURVE",
"318 320 CURVE SMOOTH",
"318 1060 LINE",
"106 1060 LINE",
"106 320 LINE SMOOTH",
"106 103 OFFCURVE",
"192 -20 OFFCURVE",
"351 -20 CURVE SMOOTH"
);
},
{
closed = 1;
nodes = (
"684 324 LINE",
"684 860 LINE",
"504 860 LINE",
"504 324 LINE"
);
}
);
width = 1200;
},
{
anchors = (
{
name = bottom;
position = "{600, 0}";
},
{
name = top;
position = "{600, 1060}";
}
);
layerId = "8E053A5E-67DA-4970-A6F5-068DBFE5AD21";
paths = (
{
closed = 1;
nodes = (
"1012 -20 OFFCURVE",
"1099 103 OFFCURVE",
"1099 320 CURVE SMOOTH",
"1099 1060 LINE",
"828 1060 LINE",
"828 320 LINE SMOOTH",
"828 266 OFFCURVE",
"806 235 OFFCURVE",
"765 235 CURVE SMOOTH",
"723 235 OFFCURVE",
"701 260 OFFCURVE",
"701 327 CURVE",
"701 396 LINE",
"604 361 LINE",
"619 94 OFFCURVE",
"700 -20 OFFCURVE",
"852 -20 CURVE SMOOTH"
);
},
{
closed = 1;
nodes = (
"484 -20 OFFCURVE",
"569 94 OFFCURVE",
"584 361 CURVE",
"487 396 LINE",
"487 327 LINE",
"487 260 OFFCURVE",
"465 235 OFFCURVE",
"424 235 CURVE SMOOTH",
"382 235 OFFCURVE",
"360 266 OFFCURVE",
"360 320 CURVE SMOOTH",
"360 1060 LINE",
"89 1060 LINE",
"89 320 LINE SMOOTH",
"89 103 OFFCURVE",
"172 -20 OFFCURVE",
"326 -20 CURVE SMOOTH"
);
},
{
closed = 1;
nodes = (
"701 357 LINE",
"701 860 LINE",
"487 860 LINE",
"487 357 LINE"
);
}
);
width = 1200;
}
);
unicode = 03C9;
}
{
glyphname = phi;
layers = (
{
anchors = (
{
name = bottom;
position = "{600, -460}";
},
{
name = top;
position = "{600, 1460}";
}
);
layerId = master01;
paths = (
{
closed = 1;
nodes = (
"928 -20 OFFCURVE",
"1090 162 OFFCURVE",
"1090 530 CURVE SMOOTH",
"1090 898 OFFCURVE",
"928 1080 OFFCURVE",
"600 1080 CURVE SMOOTH",
"272 1080 OFFCURVE",
"110 898 OFFCURVE",
"110 530 CURVE SMOOTH",
"110 162 OFFCURVE",
"272 -20 OFFCURVE",
"600 -20 CURVE SMOOTH"
);
},
{
closed = 1;
nodes = (
"647 -460 LINE",
"647 33 LINE",
"553 33 LINE",
"553 -460 LINE"
);
},
{
closed = 1;
nodes = (
"336 72 OFFCURVE",
"206 223 OFFCURVE",
"206 530 CURVE SMOOTH",
"206 837 OFFCURVE",
"336 988 OFFCURVE",
"600 988 CURVE SMOOTH",
"864 988 OFFCURVE",
"994 837 OFFCURVE",
"994 530 CURVE SMOOTH",
"994 223 OFFCURVE",
"864 72 OFFCURVE",
"600 72 CURVE SMOOTH"
);
},
{
closed = 1;
nodes = (
"647 42 LINE",
"647 1033 LINE",
"553 1033 LINE",
"553 42 LINE"
);
},
{
closed = 1;
nodes = (
"647 1007 LINE",
"647 1500 LINE",
"553 1500 LINE",
"553 1007 LINE"
);
}
);
width = 1200;
},
{
anchors = (
{
name = bottom;
position = "{600, -460}";
},
{
name = top;
position = "{600, 1460}";
}
);
layerId = "1F90C004-9C90-48FA-B407-176B3E9F1E65";
paths = (
{
closed = 1;
nodes = (
"944 -20 OFFCURVE",
"1114 162 OFFCURVE",
"1114 530 CURVE SMOOTH",
"1114 898 OFFCURVE",
"944 1080 OFFCURVE",
"600 1080 CURVE SMOOTH",
"256 1080 OFFCURVE",
"86 898 OFFCURVE",
"86 530 CURVE SMOOTH",
"86 162 OFFCURVE",
"256 -20 OFFCURVE",
"600 -20 CURVE SMOOTH"
);
},
{
closed = 1;
nodes = (
"706 -460 LINE",
"706 125 LINE",
"494 125 LINE",
"494 -460 LINE"
);
},
{
closed = 1;
nodes = (
"390 140 OFFCURVE",
"286 269 OFFCURVE",
"286 530 CURVE SMOOTH",
"286 791 OFFCURVE",
"390 920 OFFCURVE",
"600 920 CURVE SMOOTH",
"810 920 OFFCURVE",
"914 791 OFFCURVE",
"914 530 CURVE SMOOTH",
"914 269 OFFCURVE",
"810 140 OFFCURVE",
"600 140 CURVE SMOOTH"
);
},
{
closed = 1;
nodes = (
"681 102 LINE",
"681 973 LINE",
"519 973 LINE",
"519 102 LINE"
);
},
{
closed = 1;
nodes = (
"706 915 LINE",
"706 1500 LINE",
"494 1500 LINE",
"494 915 LINE"
);
}
);
width = 1200;
},
{
anchors = (
{
name = bottom;
position = "{600, -460}";
},
{
name = top;
position = "{600, 1460}";
}
);
layerId = "8E053A5E-67DA-4970-A6F5-068DBFE5AD21";
paths = (
{
closed = 1;
nodes = (
"940 -20 OFFCURVE",
"1131 177 OFFCURVE",
"1131 530 CURVE SMOOTH",
"1131 883 OFFCURVE",
"940 1080 OFFCURVE",
"600 1080 CURVE SMOOTH",
"260 1080 OFFCURVE",
"69 883 OFFCURVE",
"69 530 CURVE SMOOTH",
"69 177 OFFCURVE",
"260 -20 OFFCURVE",
"600 -20 CURVE SMOOTH"
);
},
{
closed = 1;
nodes = (
"735 -460 LINE",
"735 125 LINE",
"465 125 LINE",
"465 -460 LINE"
);
},
{
closed = 1;
nodes = (
"436 198 OFFCURVE",
"346 316 OFFCURVE",
"346 530 CURVE SMOOTH",
"346 744 OFFCURVE",
"436 862 OFFCURVE",
"600 862 CURVE SMOOTH",
"764 862 OFFCURVE",
"854 744 OFFCURVE",
"854 530 CURVE SMOOTH",
"854 316 OFFCURVE",
"764 198 OFFCURVE",
"600 198 CURVE SMOOTH"
);
},
{
closed = 1;
nodes = (
"689 102 LINE",
"689 973 LINE",
"511 973 LINE",
"511 102 LINE"
);
},
{
closed = 1;
nodes = (
"735 915 LINE",
"735 1500 LINE",
"465 1500 LINE",
"465 915 LINE"
);
}
);
width = 1200;
}
);
unicode = 03C6;
}
{
glyphname = pi;
layers = (
{
anchors = (
{
name = bottom;
position = "{570, 0}";
},
{
name = top;
position = "{556, 1060}";
}
);
layerId = master01;
paths = (
{
closed = 1;
nodes = (
"1020 -20 OFFCURVE",
"1054 -16 OFFCURVE",
"1090 -6 CURVE",
"1076 80 LINE",
"1032 74 OFFCURVE",
"1005 72 OFFCURVE",
"988 72 CURVE SMOOTH",
"887 72 OFFCURVE",
"843 128 OFFCURVE",
"843 260 CURVE SMOOTH",
"843 1060 LINE",
"749 1060 LINE",
"749 250 LINE SMOOTH",
"749 61 OFFCURVE",
"817 -20 OFFCURVE",
"978 -20 CURVE SMOOTH"
);
},
{
closed = 1;
nodes = (
"381 0 LINE",
"381 1060 LINE",
"287 1060 LINE",
"287 0 LINE"
);
},
{
closed = 1;
nodes = (
"1076 970 LINE",
"1076 1060 LINE",
"84 1060 LINE",
"84 970 LINE"
);
}
);
width = 1200;
},
{
anchors = (
{
name = bottom;
position = "{570, 0}";
},
{
name = top;
position = "{556, 1060}";
}
);
layerId = "1F90C004-9C90-48FA-B407-176B3E9F1E65";
paths = (
{
closed = 1;
nodes = (
"1031 -20 OFFCURVE",
"1064 -17 OFFCURVE",
"1114 -8 CURVE",
"1090 178 LINE",
"1064 173 OFFCURVE",
"1046 170 OFFCURVE",
"1028 170 CURVE SMOOTH",
"922 170 OFFCURVE",
"902 215 OFFCURVE",
"902 320 CURVE SMOOTH",
"902 1060 LINE",
"690 1060 LINE",
"690 310 LINE SMOOTH",
"690 79 OFFCURVE",
"772 -20 OFFCURVE",
"968 -20 CURVE SMOOTH"
);
},
{
closed = 1;
nodes = (
"440 0 LINE",
"440 1060 LINE",
"228 1060 LINE",
"228 0 LINE"
);
},
{
closed = 1;
nodes = (
"1100 870 LINE",
"1100 1060 LINE",
"60 1060 LINE",
"60 870 LINE"
);
}
);
width = 1200;
},
{
anchors = (
{
name = bottom;
position = "{580, 0}";
},
{
name = top;
position = "{566, 1060}";
}
);
layerId = "8E053A5E-67DA-4970-A6F5-068DBFE5AD21";
paths = (
{
closed = 1;
nodes = (
"1049 -20 OFFCURVE",
"1085 -17 OFFCURVE",
"1141 -8 CURVE",
"1117 245 LINE",
"1084 240 OFFCURVE",
"1061 237 OFFCURVE",
"1038 237 CURVE SMOOTH",
"960 237 OFFCURVE",
"945 282 OFFCURVE",
"945 387 CURVE SMOOTH",
"945 1060 LINE",
"675 1060 LINE",
"675 310 LINE SMOOTH",
"675 79 OFFCURVE",
"765 -20 OFFCURVE",
"978 -20 CURVE SMOOTH"
);
},
{
closed = 1;
nodes = (
"475 0 LINE",
"475 1060 LINE",
"205 1060 LINE",
"205 0 LINE"
);
},
{
closed = 1;
nodes = (
"1127 808 LINE",
"1127 1060 LINE",
"53 1060 LINE",
"53 808 LINE"
);
}
);
width = 1200;
}
);
unicode = 03C0;
}
{
glyphname = psi;
layers = (
{
anchors = (
{
name = bottom;
position = "{600, -440}";
},
{
name = top;
position = "{600, 1460}";
}
);
layerId = master01;
paths = (
{
closed = 1;
nodes = (
"914 -20 OFFCURVE",
"1070 136 OFFCURVE",
"1070 450 CURVE SMOOTH",
"1070 1060 LINE",
"976 1060 LINE",
"976 450 LINE SMOOTH",
"976 201 OFFCURVE",
"851 76 OFFCURVE",
"600 76 CURVE SMOOTH",
"349 76 OFFCURVE",
"224 201 OFFCURVE",
"224 450 CURVE SMOOTH",
"224 1060 LINE",
"130 1060 LINE",
"130 450 LINE SMOOTH",
"130 136 OFFCURVE",
"286 -20 OFFCURVE",
"600 -20 CURVE SMOOTH"
);
},
{
closed = 1;
nodes = (
"647 -460 LINE",
"647 33 LINE",
"553 33 LINE",
"553 -460 LINE"
);
},
{
closed = 1;
nodes = (
"647 65 LINE",
"647 1500 LINE",
"553 1500 LINE",
"553 65 LINE"
);
}
);
width = 1200;
},
{
anchors = (
{
name = bottom;
position = "{600, -440}";
},
{
name = top;
position = "{600, 1460}";
}
);
layerId = "1F90C004-9C90-48FA-B407-176B3E9F1E65";
paths = (
{
closed = 1;
nodes = (
"930 -20 OFFCURVE",
"1094 162 OFFCURVE",
"1094 530 CURVE SMOOTH",
"1094 1060 LINE",
"892 1060 LINE",
"892 530 LINE SMOOTH",
"892 283 OFFCURVE",
"795 160 OFFCURVE",
"600 160 CURVE SMOOTH",
"405 160 OFFCURVE",
"308 283 OFFCURVE",
"308 530 CURVE SMOOTH",
"308 1060 LINE",
"106 1060 LINE",
"106 530 LINE SMOOTH",
"106 162 OFFCURVE",
"270 -20 OFFCURVE",
"600 -20 CURVE SMOOTH"
);
},
{
closed = 1;
nodes = (
"706 -460 LINE",
"706 125 LINE",
"494 125 LINE",
"494 -460 LINE"
);
},
{
closed = 1;
nodes = (
"681 141 LINE",
"696 1500 LINE",
"504 1500 LINE",
"519 141 LINE"
);
}
);
width = 1200;
},
{
anchors = (
{
name = bottom;
position = "{600, -440}";
},
{
name = top;
position = "{600, 1460}";
}
);
layerId = "8E053A5E-67DA-4970-A6F5-068DBFE5AD21";
paths = (
{
closed = 1;
nodes = (
"941 -20 OFFCURVE",
"1111 162 OFFCURVE",
"1111 530 CURVE SMOOTH",
"1111 1060 LINE",
"842 1060 LINE",
"842 530 LINE SMOOTH",
"842 333 OFFCURVE",
"762 235 OFFCURVE",
"600 235 CURVE SMOOTH",
"438 235 OFFCURVE",
"358 333 OFFCURVE",
"358 530 CURVE SMOOTH",
"358 1060 LINE",
"89 1060 LINE",
"89 530 LINE SMOOTH",
"89 162 OFFCURVE",
"259 -20 OFFCURVE",
"600 -20 CURVE SMOOTH"
);
},
{
closed = 1;
nodes = (
"735 -460 LINE",
"735 125 LINE",
"465 125 LINE",
"465 -460 LINE"
);
},
{
closed = 1;
nodes = (
"699 172 LINE",
"729 1500 LINE",
"471 1500 LINE",
"501 172 LINE"
);
}
);
width = 1200;
}
);
unicode = 03C8;
}
{
glyphname = rho;
layers = (
{
anchors = (
{
name = bottom;
position = "{600, -460}";
},
{
name = top;
position = "{636, 1060}";
}
);
layerId = master01;
paths = (
{
closed = 1;
nodes = (
"917 -20 OFFCURVE",
"1080 177 OFFCURVE",
"1080 520 CURVE SMOOTH",
"1080 876 OFFCURVE",
"918 1080 OFFCURVE",
"636 1080 CURVE SMOOTH",
"354 1080 OFFCURVE",
"192 907 OFFCURVE",
"192 605 CURVE",
"286 596 LINE",
"286 845 OFFCURVE",
"414 988 OFFCURVE",
"636 988 CURVE SMOOTH",
"857 988 OFFCURVE",
"984 818 OFFCURVE",
"984 520 CURVE SMOOTH",
"984 235 OFFCURVE",
"862 72 OFFCURVE",
"648 72 CURVE SMOOTH",
"431 72 OFFCURVE",
"286 233 OFFCURVE",
"286 496 CURVE",
"212 240 LINE",
"294 240 LINE",
"335 66 OFFCURVE",
"458 -20 OFFCURVE",
"632 -20 CURVE SMOOTH"
);
},
{
closed = 1;
nodes = (
"286 -460 LINE",
"286 605 LINE",
"192 605 LINE",
"192 -460 LINE"
);
}
);
width = 1200;
},
{
anchors = (
{
name = bottom;
position = "{600, -460}";
},
{
name = top;
position = "{636, 1060}";
}
);
layerId = "1F90C004-9C90-48FA-B407-176B3E9F1E65";
paths = (
{
closed = 1;
nodes = (
"947 -20 OFFCURVE",
"1104 172 OFFCURVE",
"1104 520 CURVE SMOOTH",
"1104 888 OFFCURVE",
"944 1080 OFFCURVE",
"636 1080 CURVE SMOOTH",
"328 1080 OFFCURVE",
"168 910 OFFCURVE",
"168 585 CURVE",
"380 576 LINE",
"380 789 OFFCURVE",
"468 900 OFFCURVE",
"636 900 CURVE SMOOTH",
"806 900 OFFCURVE",
"894 770 OFFCURVE",
"894 520 CURVE SMOOTH",
"894 282 OFFCURVE",
"800 160 OFFCURVE",
"618 160 CURVE SMOOTH",
"457 160 OFFCURVE",
"380 266 OFFCURVE",
"380 486 CURVE",
"308 194 LINE",
"400 194 LINE",
"413 52 OFFCURVE",
"517 -20 OFFCURVE",
"672 -20 CURVE SMOOTH"
);
},
{
closed = 1;
nodes = (
"380 -460 LINE",
"380 585 LINE",
"168 585 LINE",
"168 -460 LINE"
);
}
);
width = 1200;
},
{
anchors = (
{
name = bottom;
position = "{600, -460}";
},
{
name = top;
position = "{636, 1060}";
}
);
layerId = "8E053A5E-67DA-4970-A6F5-068DBFE5AD21";
paths = (
{
closed = 1;
nodes = (
"975 -20 OFFCURVE",
"1121 172 OFFCURVE",
"1121 520 CURVE SMOOTH",
"1121 894 OFFCURVE",
"960 1080 OFFCURVE",
"636 1080 CURVE SMOOTH",
"327 1080 OFFCURVE",
"151 898 OFFCURVE",
"151 580 CURVE",
"422 571 LINE",
"422 732 OFFCURVE",
"496 825 OFFCURVE",
"628 825 CURVE SMOOTH",
"771 825 OFFCURVE",
"844 724 OFFCURVE",
"844 520 CURVE SMOOTH",
"844 331 OFFCURVE",
"768 235 OFFCURVE",
"623 235 CURVE SMOOTH",
"475 235 OFFCURVE",
"422 307 OFFCURVE",
"422 481 CURVE",
"337 194 LINE",
"445 194 LINE",
"462 52 OFFCURVE",
"564 -20 OFFCURVE",
"720 -20 CURVE SMOOTH"
);
},
{
closed = 1;
nodes = (
"422 -460 LINE",
"422 580 LINE",
"151 580 LINE",
"151 -460 LINE"
);
}
);
width = 1200;
}
);
unicode = 03C1;
}
{
glyphname = sigma;
layers = (
{
anchors = (
{
name = bottom;
position = "{570, 0}";
},
{
name = top;
position = "{566, 1060}";
}
);
layerId = master01;
paths = (
{
closed = 1;
nodes = (
"832 -20 OFFCURVE",
"990 169 OFFCURVE",
"990 490 CURVE SMOOTH",
"990 724 OFFCURVE",
"904 915 OFFCURVE",
"789 956 CURVE",
"789 1047 LINE",
"565 1060 LINE",
"289 1060 OFFCURVE",
"130 860 OFFCURVE",
"130 510 CURVE SMOOTH",
"130 177 OFFCURVE",
"292 -20 OFFCURVE",
"565 -20 CURVE SMOOTH"
);
},
{
closed = 1;
nodes = (
"352 72 OFFCURVE",
"226 227 OFFCURVE",
"226 490 CURVE SMOOTH",
"226 797 OFFCURVE",
"348 970 OFFCURVE",
"565 970 CURVE SMOOTH",
"775 970 OFFCURVE",
"894 797 OFFCURVE",
"894 490 CURVE SMOOTH",
"894 227 OFFCURVE",
"772 72 OFFCURVE",
"565 72 CURVE SMOOTH"
);
},
{
closed = 1;
nodes = (
"1106 970 LINE",
"1106 1060 LINE",
"565 1060 LINE",
"565 970 LINE"
);
}
);
width = 1200;
},
{
anchors = (
{
name = bottom;
position = "{570, 0}";
},
{
name = top;
position = "{566, 1060}";
}
);
layerId = "1F90C004-9C90-48FA-B407-176B3E9F1E65";
paths = (
{
closed = 1;
nodes = (
"860 -20 OFFCURVE",
"1014 148 OFFCURVE",
"1014 470 CURVE SMOOTH",
"1014 663 OFFCURVE",
"918 825 OFFCURVE",
"789 846 CURVE",
"789 997 LINE",
"565 1060 LINE",
"274 1060 OFFCURVE",
"106 860 OFFCURVE",
"106 510 CURVE SMOOTH",
"106 162 OFFCURVE",
"263 -20 OFFCURVE",
"565 -20 CURVE SMOOTH"
);
},
{
closed = 1;
nodes = (
"408 170 OFFCURVE",
"326 287 OFFCURVE",
"326 510 CURVE SMOOTH",
"326 740 OFFCURVE",
"412 870 OFFCURVE",
"565 870 CURVE SMOOTH",
"711 870 OFFCURVE",
"794 740 OFFCURVE",
"794 510 CURVE SMOOTH",
"794 287 OFFCURVE",
"715 170 OFFCURVE",
"565 170 CURVE SMOOTH"
);
},
{
closed = 1;
nodes = (
"1130 870 LINE",
"1130 1060 LINE",
"565 1060 LINE",
"565 870 LINE"
);
}
);
width = 1200;
},
{
anchors = (
{
name = bottom;
position = "{570, 0}";
},
{
name = top;
position = "{566, 1060}";
}
);
layerId = "8E053A5E-67DA-4970-A6F5-068DBFE5AD21";
paths = (
{
closed = 1;
nodes = (
"846 -20 OFFCURVE",
"1031 152 OFFCURVE",
"1031 412 CURVE SMOOTH",
"1031 592 OFFCURVE",
"927 739 OFFCURVE",
"789 763 CURVE",
"789 997 LINE",
"565 1060 LINE",
"263 1060 OFFCURVE",
"89 863 OFFCURVE",
"89 520 CURVE SMOOTH",
"89 176 OFFCURVE",
"263 -20 OFFCURVE",
"565 -20 CURVE SMOOTH"
);
},
{
closed = 1;
nodes = (
"438 237 OFFCURVE",
"366 339 OFFCURVE",
"366 520 CURVE SMOOTH",
"366 701 OFFCURVE",
"438 803 OFFCURVE",
"565 803 CURVE SMOOTH",
"685 803 OFFCURVE",
"754 701 OFFCURVE",
"754 520 CURVE SMOOTH",
"754 339 OFFCURVE",
"685 237 OFFCURVE",
"565 237 CURVE SMOOTH"
);
},
{
closed = 1;
nodes = (
"1130 803 LINE",
"1130 1060 LINE",
"565 1060 LINE",
"565 803 LINE"
);
}
);
width = 1200;
}
);
unicode = 03C3;
}
{
glyphname = sigmafinal;
production = uni03C2;
layers = (
{
anchors = (
{
name = bottom;
position = "{600, -480}";
},
{
name = top;
position = "{666, 1060}";
}
);
layerId = master01;
paths = (
{
closed = 1;
nodes = (
"886 -433 OFFCURVE",
"994 -315 OFFCURVE",
"994 -156 CURVE SMOOTH",
"994 -5 OFFCURVE",
"912 70 OFFCURVE",
"746 70 CURVE SMOOTH",
"656 70 LINE SMOOTH",
"402 70 OFFCURVE",
"256 242 OFFCURVE",
"256 542 CURVE SMOOTH",
"256 811 OFFCURVE",
"419 988 OFFCURVE",
"666 988 CURVE SMOOTH",
"813 988 OFFCURVE",
"926 929 OFFCURVE",
"1006 809 CURVE",
"1073 860 LINE",
"989 1007 OFFCURVE",
"857 1080 OFFCURVE",
"674 1080 CURVE SMOOTH",
"364 1080 OFFCURVE",
"160 862 OFFCURVE",
"160 532 CURVE SMOOTH",
"160 181 OFFCURVE",
"341 -20 OFFCURVE",
"656 -20 CURVE SMOOTH",
"746 -20 LINE SMOOTH",
"848 -20 OFFCURVE",
"898 -65 OFFCURVE",
"898 -156 CURVE SMOOTH",
"898 -262 OFFCURVE",
"811 -353 OFFCURVE",
"659 -406 CURVE",
"697 -480 LINE"
);
}
);
width = 1200;
},
{
anchors = (
{
name = bottom;
position = "{600, -480}";
},
{
name = top;
position = "{666, 1060}";
}
);
layerId = "1F90C004-9C90-48FA-B407-176B3E9F1E65";
paths = (
{
closed = 1;
nodes = (
"901 -428 OFFCURVE",
"1018 -300 OFFCURVE",
"1018 -126 CURVE SMOOTH",
"1018 59 OFFCURVE",
"919 167 OFFCURVE",
"746 170 CURVE SMOOTH",
"656 170 LINE SMOOTH",
"464 170 OFFCURVE",
"356 300 OFFCURVE",
"356 542 CURVE SMOOTH",
"356 764 OFFCURVE",
"470 890 OFFCURVE",
"666 890 CURVE SMOOTH",
"777 890 OFFCURVE",
"874 834 OFFCURVE",
"934 737 CURVE",
"1097 860 LINE",
"1034 1000 OFFCURVE",
"880 1080 OFFCURVE",
"674 1080 CURVE SMOOTH",
"329 1080 OFFCURVE",
"136 878 OFFCURVE",
"136 532 CURVE SMOOTH",
"136 176 OFFCURVE",
"305 -20 OFFCURVE",
"602 -20 CURVE SMOOTH",
"691 -20 LINE SMOOTH",
"765 -22 OFFCURVE",
"808 -61 OFFCURVE",
"808 -126 CURVE SMOOTH",
"808 -200 OFFCURVE",
"733 -263 OFFCURVE",
"602 -300 CURVE",
"697 -480 LINE"
);
}
);
width = 1200;
},
{
anchors = (
{
name = bottom;
position = "{600, -480}";
},
{
name = top;
position = "{666, 1060}";
}
);
layerId = "8E053A5E-67DA-4970-A6F5-068DBFE5AD21";
paths = (
{
closed = 1;
nodes = (
"905 -421 OFFCURVE",
"1035 -274 OFFCURVE",
"1035 -76 CURVE SMOOTH",
"1035 120 OFFCURVE",
"930 234 OFFCURVE",
"746 237 CURVE SMOOTH",
"656 237 LINE SMOOTH",
"490 237 OFFCURVE",
"396 343 OFFCURVE",
"396 542 CURVE SMOOTH",
"396 722 OFFCURVE",
"496 823 OFFCURVE",
"666 823 CURVE SMOOTH",
"774 823 OFFCURVE",
"871 771 OFFCURVE",
"926 679 CURVE",
"1114 860 LINE",
"1048 1000 OFFCURVE",
"888 1080 OFFCURVE",
"674 1080 CURVE SMOOTH",
"318 1080 OFFCURVE",
"119 878 OFFCURVE",
"119 532 CURVE SMOOTH",
"119 176 OFFCURVE",
"294 -20 OFFCURVE",
"602 -20 CURVE SMOOTH",
"674 -20 LINE SMOOTH",
"722 -21 OFFCURVE",
"750 -51 OFFCURVE",
"750 -101 CURVE SMOOTH",
"750 -161 OFFCURVE",
"690 -212 OFFCURVE",
"585 -242 CURVE",
"680 -480 LINE"
);
}
);
width = 1200;
}
);
unicode = 03C2;
}
{
glyphname = tau;
layers = (
{
anchors = (
{
name = bottom;
position = "{560, 0}";
},
{
name = top;
position = "{576, 1060}";
}
);
layerId = master01;
paths = (
{
closed = 1;
nodes = (
"856 -20 OFFCURVE",
"932 -9 OFFCURVE",
"1020 18 CURVE",
"1006 110 LINE",
"918 84 OFFCURVE",
"853 72 OFFCURVE",
"794 72 CURVE SMOOTH",
"630 72 OFFCURVE",
"561 144 OFFCURVE",
"561 312 CURVE SMOOTH",
"561 1060 LINE",
"467 1060 LINE",
"467 312 LINE SMOOTH",
"467 79 OFFCURVE",
"556 -20 OFFCURVE",
"764 -20 CURVE SMOOTH"
);
},
{
closed = 1;
nodes = (
"1026 970 LINE",
"1026 1060 LINE",
"134 1060 LINE",
"134 970 LINE"
);
}
);
width = 1200;
},
{
anchors = (
{
name = bottom;
position = "{560, 0}";
},
{
name = top;
position = "{576, 1060}";
}
);
layerId = "1F90C004-9C90-48FA-B407-176B3E9F1E65";
paths = (
{
closed = 1;
nodes = (
"852 -20 OFFCURVE",
"941 -8 OFFCURVE",
"1044 22 CURVE",
"1020 208 LINE",
"939 182 OFFCURVE",
"879 170 OFFCURVE",
"824 170 CURVE SMOOTH",
"654 170 OFFCURVE",
"622 242 OFFCURVE",
"622 410 CURVE SMOOTH",
"622 1060 LINE",
"410 1060 LINE",
"410 400 LINE SMOOTH",
"410 106 OFFCURVE",
"508 -20 OFFCURVE",
"744 -20 CURVE SMOOTH"
);
},
{
closed = 1;
nodes = (
"1050 870 LINE",
"1050 1060 LINE",
"110 1060 LINE",
"110 870 LINE"
);
}
);
width = 1200;
},
{
anchors = (
{
name = bottom;
position = "{560, 0}";
},
{
name = top;
position = "{576, 1060}";
}
);
layerId = "8E053A5E-67DA-4970-A6F5-068DBFE5AD21";
paths = (
{
closed = 1;
nodes = (
"852 -20 OFFCURVE",
"958 -8 OFFCURVE",
"1061 22 CURVE",
"1037 275 LINE",
"956 249 OFFCURVE",
"879 237 OFFCURVE",
"824 237 CURVE SMOOTH",
"678 237 OFFCURVE",
"651 309 OFFCURVE",
"651 477 CURVE SMOOTH",
"651 1060 LINE",
"381 1060 LINE",
"381 400 LINE SMOOTH",
"381 106 OFFCURVE",
"487 -20 OFFCURVE",
"744 -20 CURVE SMOOTH"
);
},
{
closed = 1;
nodes = (
"1067 808 LINE",
"1067 1060 LINE",
"93 1060 LINE",
"93 808 LINE"
);
}
);
width = 1200;
}
);
unicode = 03C4;
}
{
glyphname = theta;
layers = (
{
anchors = (
{
name = bottom;
position = "{600, 0}";
},
{
name = top;
position = "{600, 1500}";
}
);
layerId = master01;
paths = (
{
closed = 1;
nodes = (
"908 -20 OFFCURVE",
"1040 210 OFFCURVE",
"1040 750 CURVE SMOOTH",
"1040 1290 OFFCURVE",
"908 1520 OFFCURVE",
"600 1520 CURVE SMOOTH",
"292 1520 OFFCURVE",
"160 1290 OFFCURVE",
"160 750 CURVE SMOOTH",
"160 210 OFFCURVE",
"292 -20 OFFCURVE",
"600 -20 CURVE SMOOTH"
);
},
{
closed = 1;
nodes = (
"356 70 OFFCURVE",
"252 273 OFFCURVE",
"252 750 CURVE SMOOTH",
"252 1227 OFFCURVE",
"356 1430 OFFCURVE",
"600 1430 CURVE SMOOTH",
"844 1430 OFFCURVE",
"948 1227 OFFCURVE",
"948 750 CURVE SMOOTH",
"948 273 OFFCURVE",
"844 70 OFFCURVE",
"600 70 CURVE SMOOTH"
);
},
{
closed = 1;
nodes = (
"1009 709 LINE",
"1009 797 LINE",
"216 797 LINE",
"216 709 LINE"
);
}
);
width = 1200;
},
{
anchors = (
{
name = bottom;
position = "{600, 0}";
},
{
name = top;
position = "{600, 1500}";
}
);
layerId = "1F90C004-9C90-48FA-B407-176B3E9F1E65";
paths = (
{
closed = 1;
nodes = (
"925 -20 OFFCURVE",
"1064 210 OFFCURVE",
"1064 750 CURVE SMOOTH",
"1064 1290 OFFCURVE",
"925 1520 OFFCURVE",
"600 1520 CURVE SMOOTH",
"275 1520 OFFCURVE",
"136 1290 OFFCURVE",
"136 750 CURVE SMOOTH",
"136 210 OFFCURVE",
"275 -20 OFFCURVE",
"600 -20 CURVE SMOOTH"
);
},
{
closed = 1;
nodes = (
"415 164 OFFCURVE",
"336 339 OFFCURVE",
"336 750 CURVE SMOOTH",
"336 1161 OFFCURVE",
"415 1336 OFFCURVE",
"600 1336 CURVE SMOOTH",
"785 1336 OFFCURVE",
"864 1161 OFFCURVE",
"864 750 CURVE SMOOTH",
"864 339 OFFCURVE",
"785 164 OFFCURVE",
"600 164 CURVE SMOOTH"
);
},
{
closed = 1;
nodes = (
"1033 658 LINE",
"1033 848 LINE",
"192 848 LINE",
"192 658 LINE"
);
}
);
width = 1200;
},
{
anchors = (
{
name = bottom;
position = "{600, 0}";
},
{
name = top;
position = "{600, 1500}";
}
);
layerId = "8E053A5E-67DA-4970-A6F5-068DBFE5AD21";
paths = (
{
closed = 1;
nodes = (
"937 -20 OFFCURVE",
"1081 210 OFFCURVE",
"1081 750 CURVE SMOOTH",
"1081 1290 OFFCURVE",
"937 1520 OFFCURVE",
"600 1520 CURVE SMOOTH",
"263 1520 OFFCURVE",
"119 1290 OFFCURVE",
"119 750 CURVE SMOOTH",
"119 210 OFFCURVE",
"263 -20 OFFCURVE",
"600 -20 CURVE SMOOTH"
);
},
{
closed = 1;
nodes = (
"456 236 OFFCURVE",
"394 389 OFFCURVE",
"394 750 CURVE SMOOTH",
"394 1111 OFFCURVE",
"456 1264 OFFCURVE",
"600 1264 CURVE SMOOTH",
"744 1264 OFFCURVE",
"806 1111 OFFCURVE",
"806 750 CURVE SMOOTH",
"806 389 OFFCURVE",
"744 236 OFFCURVE",
"600 236 CURVE SMOOTH"
);
},
{
closed = 1;
nodes = (
"1033 627 LINE",
"1033 879 LINE",
"192 879 LINE",
"192 627 LINE"
);
}
);
width = 1200;
}
);
unicode = 03B8;
}
{
glyphname = upsilon;
layers = (
{
anchors = (
{
name = bottom;
position = "{600, 0}";
},
{
name = top;
position = "{600, 1060}";
}
);
layerId = master01;
paths = (
{
closed = 1;
nodes = (
"890 -20 OFFCURVE",
"1020 127 OFFCURVE",
"1020 410 CURVE SMOOTH",
"1020 1060 LINE",
"926 1060 LINE",
"926 410 LINE SMOOTH",
"926 188 OFFCURVE",
"828 72 OFFCURVE",
"640 72 CURVE SMOOTH",
"451 72 OFFCURVE",
"353 188 OFFCURVE",
"353 410 CURVE SMOOTH",
"353 830 LINE SMOOTH",
"353 984 OFFCURVE",
"290 1060 OFFCURVE",
"163 1060 CURVE SMOOTH",
"29 1060 LINE",
"29 970 LINE",
"147 970 LINE SMOOTH",
"222 970 OFFCURVE",
"259 924 OFFCURVE",
"259 830 CURVE SMOOTH",
"259 410 LINE SMOOTH",
"259 127 OFFCURVE",
"390 -20 OFFCURVE",
"640 -20 CURVE SMOOTH"
);
}
);
width = 1200;
},
{
anchors = (
{
name = bottom;
position = "{600, 0}";
},
{
name = top;
position = "{600, 1060}";
}
);
layerId = "1F90C004-9C90-48FA-B407-176B3E9F1E65";
paths = (
{
closed = 1;
nodes = (
"910 -20 OFFCURVE",
"1044 122 OFFCURVE",
"1044 410 CURVE SMOOTH",
"1044 1060 LINE",
"832 1060 LINE",
"832 410 LINE SMOOTH",
"832 250 OFFCURVE",
"768 170 OFFCURVE",
"640 170 CURVE SMOOTH",
"512 170 OFFCURVE",
"447 250 OFFCURVE",
"447 410 CURVE SMOOTH",
"447 780 LINE SMOOTH",
"447 986 OFFCURVE",
"372 1060 OFFCURVE",
"163 1060 CURVE SMOOTH",
"5 1060 LINE",
"5 870 LINE",
"123 870 LINE SMOOTH",
"205 870 OFFCURVE",
"235 833 OFFCURVE",
"235 730 CURVE SMOOTH",
"235 410 LINE SMOOTH",
"235 122 OFFCURVE",
"370 -20 OFFCURVE",
"640 -20 CURVE SMOOTH"
);
}
);
width = 1200;
},
{
anchors = (
{
name = bottom;
position = "{600, 0}";
},
{
name = top;
position = "{600, 1060}";
}
);
layerId = "8E053A5E-67DA-4970-A6F5-068DBFE5AD21";
paths = (
{
closed = 1;
nodes = (
"921 -20 OFFCURVE",
"1061 122 OFFCURVE",
"1061 410 CURVE SMOOTH",
"1061 1060 LINE",
"790 1060 LINE",
"790 418 LINE SMOOTH",
"790 298 OFFCURVE",
"741 237 OFFCURVE",
"640 237 CURVE SMOOTH",
"540 237 OFFCURVE",
"489 298 OFFCURVE",
"489 418 CURVE SMOOTH",
"489 780 LINE SMOOTH",
"489 986 OFFCURVE",
"414 1060 OFFCURVE",
"205 1060 CURVE SMOOTH",
"5 1060 LINE",
"5 808 LINE",
"106 808 LINE SMOOTH",
"188 808 OFFCURVE",
"218 771 OFFCURVE",
"218 668 CURVE SMOOTH",
"218 410 LINE SMOOTH",
"218 122 OFFCURVE",
"359 -20 OFFCURVE",
"640 -20 CURVE SMOOTH"
);
}
);
width = 1200;
}
);
unicode = 03C5;
}
{
glyphname = xi;
layers = (
{
anchors = (
{
name = bottom;
position = "{600, -460}";
},
{
name = top;
position = "{610, 1460}";
}
);
layerId = master01;
paths = (
{
closed = 1;
nodes = (
"712 -20 LINE",
"765 70 LINE",
"680 70 LINE SMOOTH",
"415 70 OFFCURVE",
"276 163 OFFCURVE",
"276 340 CURVE SMOOTH",
"276 573 OFFCURVE",
"469 695 OFFCURVE",
"838 695 CURVE SMOOTH",
"956 695 LINE",
"970 785 LINE",
"628 736 LINE",
"334 719 OFFCURVE",
"180 584 OFFCURVE",
"180 340 CURVE SMOOTH",
"180 103 OFFCURVE",
"329 -20 OFFCURVE",
"614 -20 CURVE SMOOTH"
);
},
{
closed = 1;
nodes = (
"942 -437 OFFCURVE",
"1048 -330 OFFCURVE",
"1048 -186 CURVE SMOOTH",
"1048 -23 OFFCURVE",
"945 70 OFFCURVE",
"765 70 CURVE",
"712 -20 LINE",
"865 -20 OFFCURVE",
"952 -80 OFFCURVE",
"952 -186 CURVE SMOOTH",
"952 -287 OFFCURVE",
"869 -366 OFFCURVE",
"725 -404 CURVE",
"757 -480 LINE"
);
},
{
closed = 1;
nodes = (
"956 695 LINE",
"970 785 LINE",
"534 785 OFFCURVE",
"306 885 OFFCURVE",
"306 1076 CURVE SMOOTH",
"306 1296 OFFCURVE",
"504 1411 OFFCURVE",
"884 1411 CURVE",
"442 1461 LINE",
"442 1399 LINE",
"290 1346 OFFCURVE",
"210 1235 OFFCURVE",
"210 1076 CURVE SMOOTH",
"210 892 OFFCURVE",
"344 780 OFFCURVE",
"602 750 CURVE",
"602 695 LINE"
);
},
{
closed = 1;
nodes = (
"1022 1410 LINE",
"1022 1500 LINE",
"166 1500 LINE",
"166 1410 LINE"
);
}
);
width = 1200;
},
{
anchors = (
{
name = bottom;
position = "{600, -460}";
},
{
name = top;
position = "{610, 1460}";
}
);
layerId = "1F90C004-9C90-48FA-B407-176B3E9F1E65";
paths = (
{
closed = 1;
nodes = (
"722 -20 LINE",
"776 170 LINE",
"681 170 LINE SMOOTH",
"471 170 OFFCURVE",
"366 236 OFFCURVE",
"366 370 CURVE SMOOTH",
"366 554 OFFCURVE",
"559 645 OFFCURVE",
"948 645 CURVE SMOOTH",
"980 645 LINE",
"994 835 LINE",
"588 741 LINE",
"276 699 OFFCURVE",
"156 566 OFFCURVE",
"156 340 CURVE SMOOTH",
"156 100 OFFCURVE",
"308 -20 OFFCURVE",
"614 -20 CURVE SMOOTH"
);
},
{
closed = 1;
nodes = (
"968 -426 OFFCURVE",
"1072 -309 OFFCURVE",
"1072 -126 CURVE SMOOTH",
"1072 62 OFFCURVE",
"964 170 OFFCURVE",
"776 170 CURVE",
"722 -20 LINE",
"811 -20 OFFCURVE",
"862 -59 OFFCURVE",
"862 -126 CURVE SMOOTH",
"862 -204 OFFCURVE",
"795 -261 OFFCURVE",
"682 -300 CURVE",
"757 -480 LINE"
);
},
{
closed = 1;
nodes = (
"980 645 LINE",
"994 835 LINE",
"594 835 OFFCURVE",
"396 910 OFFCURVE",
"396 1062 CURVE SMOOTH",
"396 1231 OFFCURVE",
"558 1315 OFFCURVE",
"884 1315 CURVE",
"442 1365 LINE",
"442 1293 LINE",
"271 1262 OFFCURVE",
"186 1181 OFFCURVE",
"186 1032 CURVE SMOOTH",
"186 865 OFFCURVE",
"287 773 OFFCURVE",
"562 755 CURVE",
"562 645 LINE"
);
},
{
closed = 1;
nodes = (
"1046 1314 LINE",
"1046 1500 LINE",
"142 1500 LINE",
"142 1314 LINE"
);
}
);
width = 1200;
},
{
anchors = (
{
name = bottom;
position = "{600, -460}";
},
{
name = top;
position = "{610, 1460}";
}
);
layerId = "8E053A5E-67DA-4970-A6F5-068DBFE5AD21";
paths = (
{
closed = 1;
nodes = (
"730 -20 LINE",
"776 237 LINE",
"681 237 LINE SMOOTH",
"505 237 OFFCURVE",
"416 291 OFFCURVE",
"416 402 CURVE SMOOTH",
"416 542 OFFCURVE",
"532 612 OFFCURVE",
"765 612 CURVE SMOOTH",
"997 612 LINE",
"1011 869 LINE",
"588 741 LINE",
"264 699 OFFCURVE",
"139 568 OFFCURVE",
"139 342 CURVE SMOOTH",
"139 101 OFFCURVE",
"297 -20 OFFCURVE",
"614 -20 CURVE SMOOTH"
);
},
{
closed = 1;
nodes = (
"974 -419 OFFCURVE",
"1089 -289 OFFCURVE",
"1089 -84 CURVE SMOOTH",
"1089 119 OFFCURVE",
"975 237 OFFCURVE",
"776 237 CURVE",
"730 -20 LINE",
"782 -20 OFFCURVE",
"812 -47 OFFCURVE",
"812 -93 CURVE SMOOTH",
"812 -160 OFFCURVE",
"748 -209 OFFCURVE",
"640 -242 CURVE",
"740 -480 LINE"
);
},
{
closed = 1;
nodes = (
"997 612 LINE",
"1011 869 LINE",
"633 869 OFFCURVE",
"446 927 OFFCURVE",
"446 1045 CURVE SMOOTH",
"446 1182 OFFCURVE",
"592 1250 OFFCURVE",
"884 1250 CURVE",
"432 1300 LINE",
"432 1211 LINE",
"257 1186 OFFCURVE",
"169 1121 OFFCURVE",
"169 1000 CURVE SMOOTH",
"169 862 OFFCURVE",
"275 787 OFFCURVE",
"562 772 CURVE",
"562 612 LINE"
);
},
{
closed = 1;
nodes = (
"1063 1249 LINE",
"1063 1500 LINE",
"125 1500 LINE",
"125 1249 LINE"
);
}
);
width = 1200;
}
);
unicode = 03BE;
}
{
glyphname = zeta;
layers = (
{
anchors = (
{
name = bottom;
position = "{600, -480}";
},
{
name = top;
position = "{660, 1460}";
}
);
layerId = master01;
paths = (
{
closed = 1;
nodes = (
"971 -424 OFFCURVE",
"1058 -337 OFFCURVE",
"1058 -186 CURVE SMOOTH",
"1058 -19 OFFCURVE",
"965 57 OFFCURVE",
"746 72 CURVE SMOOTH",
"445 94 OFFCURVE",
"296 240 OFFCURVE",
"296 512 CURVE SMOOTH",
"296 778 OFFCURVE",
"547 1076 OFFCURVE",
"1052 1410 CURVE",
"922 1457 LINE",
"922 1393 LINE",
"439 1113 OFFCURVE",
"200 818 OFFCURVE",
"200 502 CURVE SMOOTH",
"200 176 OFFCURVE",
"373 3 OFFCURVE",
"722 -20 CURVE SMOOTH",
"890 -32 OFFCURVE",
"962 -82 OFFCURVE",
"962 -186 CURVE SMOOTH",
"962 -288 OFFCURVE",
"891 -352 OFFCURVE",
"723 -399 CURVE",
"767 -480 LINE"
);
},
{
closed = 1;
nodes = (
"1052 1410 LINE",
"1052 1500 LINE",
"256 1500 LINE",
"256 1410 LINE"
);
}
);
width = 1200;
},
{
anchors = (
{
name = bottom;
position = "{600, -480}";
},
{
name = top;
position = "{660, 1460}";
}
);
layerId = "1F90C004-9C90-48FA-B407-176B3E9F1E65";
paths = (
{
closed = 1;
nodes = (
"978 -426 OFFCURVE",
"1082 -309 OFFCURVE",
"1082 -126 CURVE SMOOTH",
"1082 62 OFFCURVE",
"974 170 OFFCURVE",
"786 170 CURVE SMOOTH",
"531 170 OFFCURVE",
"386 289 OFFCURVE",
"386 512 CURVE SMOOTH",
"386 766 OFFCURVE",
"592 1006 OFFCURVE",
"1076 1314 CURVE",
"802 1361 LINE",
"802 1287 LINE",
"383 1073 OFFCURVE",
"176 813 OFFCURVE",
"176 502 CURVE SMOOTH",
"176 166 OFFCURVE",
"378 -20 OFFCURVE",
"732 -20 CURVE SMOOTH",
"821 -20 OFFCURVE",
"872 -59 OFFCURVE",
"872 -126 CURVE SMOOTH",
"872 -204 OFFCURVE",
"806 -261 OFFCURVE",
"672 -300 CURVE",
"767 -480 LINE"
);
},
{
closed = 1;
nodes = (
"1076 1314 LINE",
"1076 1500 LINE",
"232 1500 LINE",
"232 1314 LINE"
);
}
);
width = 1200;
},
{
anchors = (
{
name = bottom;
position = "{600, -480}";
},
{
name = top;
position = "{660, 1460}";
}
);
layerId = "8E053A5E-67DA-4970-A6F5-068DBFE5AD21";
paths = (
{
closed = 1;
nodes = (
"970 -419 OFFCURVE",
"1099 -289 OFFCURVE",
"1099 -84 CURVE SMOOTH",
"1099 120 OFFCURVE",
"984 237 OFFCURVE",
"786 237 CURVE SMOOTH",
"564 237 OFFCURVE",
"436 327 OFFCURVE",
"436 495 CURVE SMOOTH",
"436 734 OFFCURVE",
"632 959 OFFCURVE",
"1093 1249 CURVE",
"710 1288 LINE",
"710 1205 LINE",
"341 1009 OFFCURVE",
"159 771 OFFCURVE",
"159 485 CURVE SMOOTH",
"159 160 OFFCURVE",
"358 -20 OFFCURVE",
"707 -20 CURVE SMOOTH",
"780 -20 OFFCURVE",
"822 -50 OFFCURVE",
"822 -101 CURVE SMOOTH",
"822 -164 OFFCURVE",
"742 -210 OFFCURVE",
"580 -242 CURVE",
"709 -480 LINE"
);
},
{
closed = 1;
nodes = (
"1093 1249 LINE",
"1093 1500 LINE",
"215 1500 LINE",
"215 1249 LINE"
);
}
);
width = 1200;
}
);
unicode = 03B6;
}
{
glyphname = "Chedescender-cy";
production = uni04B6;
layers = (
{
anchors = (
{
name = bottom;
position = "{570, -290}";
}
);
components = (
{
name = "Che-cy";
}
);
layerId = master01;
paths = (
{
closed = 1;
nodes = (
"1076 -290 LINE",
"1076 88 LINE",
"982 88 LINE",
"982 -290 LINE"
);
}
);
width = 1200;
},
{
anchors = (
{
name = bottom;
position = "{570, -290}";
}
);
components = (
{
name = "Che-cy";
}
);
layerId = "1F90C004-9C90-48FA-B407-176B3E9F1E65";
paths = (
{
closed = 1;
nodes = (
"1140 -290 LINE",
"1140 190 LINE",
"942 190 LINE",
"942 -290 LINE"
);
}
);
width = 1200;
},
{
anchors = (
{
name = bottom;
position = "{570, -290}";
}
);
components = (
{
alignment = -1;
name = "Che-cy";
}
);
layerId = "8E053A5E-67DA-4970-A6F5-068DBFE5AD21";
paths = (
{
closed = 1;
nodes = (
"1177 -290 LINE",
"1177 243 LINE",
"915 243 LINE",
"915 -290 LINE"
);
}
);
width = 1200;
}
);
unicode = 04B6;
}
{
glyphname = "Endescender-cy";
production = uni04A2;
layers = (
{
anchors = (
{
name = bottom;
position = "{600, -290}";
}
);
components = (
{
name = "En-cy";
}
);
layerId = master01;
paths = (
{
closed = 1;
nodes = (
"1120 -290 LINE",
"1120 88 LINE",
"1026 88 LINE",
"1026 -290 LINE"
);
}
);
width = 1200;
},
{
anchors = (
{
name = bottom;
position = "{600, -290}";
}
);
components = (
{
name = "En-cy";
}
);
layerId = "1F90C004-9C90-48FA-B407-176B3E9F1E65";
paths = (
{
closed = 1;
nodes = (
"1160 -290 LINE",
"1160 190 LINE",
"962 190 LINE",
"962 -290 LINE"
);
}
);
width = 1200;
},
{
anchors = (
{
name = bottom;
position = "{600, -290}";
}
);
components = (
{
alignment = -1;
name = "En-cy";
}
);
layerId = "8E053A5E-67DA-4970-A6F5-068DBFE5AD21";
paths = (
{
closed = 1;
nodes = (
"1177 -290 LINE",
"1177 243 LINE",
"915 243 LINE",
"915 -290 LINE"
);
}
);
width = 1200;
}
);
unicode = 04A2;
}
{
glyphname = "Hadescender-cy";
production = uni04B2;
layers = (
{
anchors = (
{
name = bottom;
position = "{600, -290}";
}
);
components = (
{
name = "Ha-cy";
}
);
layerId = master01;
paths = (
{
closed = 1;
nodes = (
"1136 -290 LINE",
"1136 88 LINE",
"1042 88 LINE",
"1042 -290 LINE"
);
}
);
width = 1200;
},
{
anchors = (
{
name = bottom;
position = "{600, -290}";
}
);
components = (
{
name = "Ha-cy";
}
);
layerId = "1F90C004-9C90-48FA-B407-176B3E9F1E65";
paths = (
{
closed = 1;
nodes = (
"1160 -290 LINE",
"1160 190 LINE",
"962 190 LINE",
"962 -290 LINE"
);
}
);
width = 1200;
},
{
anchors = (
{
name = bottom;
position = "{600, -290}";
}
);
components = (
{
alignment = -1;
name = "Ha-cy";
}
);
layerId = "8E053A5E-67DA-4970-A6F5-068DBFE5AD21";
paths = (
{
closed = 1;
nodes = (
"1177 -290 LINE",
"1177 243 LINE",
"915 243 LINE",
"915 -290 LINE"
);
}
);
width = 1200;
}
);
unicode = 04B2;
}
{
glyphname = L;
layers = (
{
anchors = (
{
name = bottom;
position = "{620, 0}";
},
{
name = center;
position = "{600, 710}";
},
{
name = top;
position = "{229, 1420}";
},
{
name = topright;
position = "{1180, 1420}";
}
);
layerId = master01;
paths = (
{
closed = 1;
nodes = (
"278 0 LINE",
"278 1420 LINE",
"184 1420 LINE",
"184 0 LINE"
);
},
{
closed = 1;
nodes = (
"1076 0 LINE",
"1076 90 LINE",
"184 90 LINE",
"184 0 LINE"
);
}
);
width = 1200;
},
{
anchors = (
{
name = bottom;
position = "{620, 0}";
},
{
name = center;
position = "{600, 710}";
},
{
name = top;
position = "{264, 1420}";
},
{
name = topright;
position = "{1180, 1420}";
}
);
layerId = "1F90C004-9C90-48FA-B407-176B3E9F1E65";
paths = (
{
closed = 1;
nodes = (
"368 0 LINE",
"368 1420 LINE",
"160 1420 LINE",
"160 0 LINE"
);
},
{
closed = 1;
nodes = (
"1100 0 LINE",
"1100 190 LINE",
"160 190 LINE",
"160 0 LINE"
);
}
);
width = 1200;
},
{
anchors = (
{
name = bottom;
position = "{620, 0}";
},
{
name = center;
position = "{600, 710}";
},
{
name = top;
position = "{275, 1420}";
},
{
name = topright;
position = "{1180, 1420}";
}
);
layerId = "8E053A5E-67DA-4970-A6F5-068DBFE5AD21";
paths = (
{
closed = 1;
nodes = (
"407 0 LINE",
"407 1420 LINE",
"143 1420 LINE",
"143 0 LINE"
);
},
{
closed = 1;
nodes = (
"1117 0 LINE",
"1117 243 LINE",
"143 243 LINE",
"143 0 LINE"
);
}
);
width = 1200;
}
);
unicode = 004C;
}
{
glyphname = "Obarred-cy";
production = uni04E8;
layers = (
{
components = (
{
name = O;
}
);
layerId = master01;
paths = (
{
closed = 1;
nodes = (
"1023 662 LINE",
"1023 752 LINE",
"182 752 LINE",
"182 662 LINE"
);
}
);
width = 1200;
},
{
components = (
{
name = O;
}
);
layerId = "1F90C004-9C90-48FA-B407-176B3E9F1E65";
paths = (
{
closed = 1;
nodes = (
"1023 612 LINE",
"1023 802 LINE",
"182 802 LINE",
"182 612 LINE"
);
}
);
width = 1200;
},
{
components = (
{
alignment = -1;
name = O;
}
);
layerId = "8E053A5E-67DA-4970-A6F5-068DBFE5AD21";
paths = (
{
closed = 1;
nodes = (
"1023 612 LINE",
"1023 802 LINE",
"182 802 LINE",
"182 612 LINE"
);
}
);
width = 1200;
}
);
unicode = 04E8;
}
{
glyphname = "Shha-cy";
production = uni04BA;
layers = (
{
anchors = (
{
name = bottom;
position = "{600, 0}";
},
{
name = top;
position = "{211, 1420}";
}
);
layerId = master01;
paths = (
{
closed = 1;
nodes = (
"1036 0 LINE",
"1036 395 LINE SMOOTH",
"1036 697 OFFCURVE",
"912 825 OFFCURVE",
"620 825 CURVE SMOOTH",
"240 825 LINE",
"240 735 LINE",
"620 735 LINE SMOOTH",
"845 735 OFFCURVE",
"942 633 OFFCURVE",
"942 395 CURVE SMOOTH",
"942 0 LINE"
);
},
{
closed = 1;
nodes = (
"258 0 LINE",
"258 1420 LINE",
"164 1420 LINE",
"164 0 LINE"
);
}
);
width = 1200;
},
{
anchors = (
{
name = bottom;
position = "{600, 0}";
},
{
name = top;
position = "{209, 1420}";
}
);
layerId = "1F90C004-9C90-48FA-B407-176B3E9F1E65";
paths = (
{
closed = 1;
nodes = (
"1060 0 LINE",
"1060 445 LINE SMOOTH",
"1060 747 OFFCURVE",
"929 875 OFFCURVE",
"620 875 CURVE SMOOTH",
"330 875 LINE",
"330 685 LINE",
"620 685 LINE SMOOTH",
"782 685 OFFCURVE",
"852 613 OFFCURVE",
"852 445 CURVE SMOOTH",
"852 0 LINE"
);
},
{
closed = 1;
nodes = (
"348 0 LINE",
"348 1420 LINE",
"140 1420 LINE",
"140 0 LINE"
);
}
);
width = 1200;
},
{
anchors = (
{
name = bottom;
position = "{600, 0}";
},
{
name = top;
position = "{209, 1420}";
}
);
layerId = "8E053A5E-67DA-4970-A6F5-068DBFE5AD21";
paths = (
{
closed = 1;
nodes = (
"1077 0 LINE",
"1077 487 LINE SMOOTH",
"1077 778 OFFCURVE",
"956 902 OFFCURVE",
"670 902 CURVE SMOOTH",
"369 902 LINE",
"369 658 LINE",
"653 658 LINE SMOOTH",
"766 658 OFFCURVE",
"813 602 OFFCURVE",
"813 470 CURVE SMOOTH",
"813 0 LINE"
);
},
{
closed = 1;
nodes = (
"387 0 LINE",
"387 1420 LINE",
"123 1420 LINE",
"123 0 LINE"
);
}
);
width = 1200;
}
);
unicode = 04BA;
}
{
glyphname = "Ustraightstroke-cy";
production = uni04B0;
layers = (
{
components = (
{
name = Y;
}
);
layerId = master01;
paths = (
{
closed = 1;
nodes = (
"946 345 LINE",
"946 435 LINE",
"257 435 LINE",
"257 345 LINE"
);
}
);
width = 1200;
},
{
components = (
{
name = Y;
}
);
layerId = "1F90C004-9C90-48FA-B407-176B3E9F1E65";
paths = (
{
closed = 1;
nodes = (
"946 295 LINE",
"946 485 LINE",
"257 485 LINE",
"257 295 LINE"
);
}
);
width = 1200;
},
{
components = (
{
alignment = -1;
name = Y;
}
);
layerId = "8E053A5E-67DA-4970-A6F5-068DBFE5AD21";
paths = (
{
closed = 1;
nodes = (
"963 268 LINE",
"963 512 LINE",
"240 512 LINE",
"240 268 LINE"
);
}
);
width = 1200;
}
);
unicode = 04B0;
}
{
glyphname = "chedescender-cy";
production = uni04B7;
layers = (
{
anchors = (
{
name = bottom;
position = "{560, -270}";
}
);
components = (
{
name = "che-cy";
}
);
layerId = master01;
paths = (
{
closed = 1;
nodes = (
"1052 -270 LINE",
"1052 90 LINE",
"958 90 LINE",
"958 -270 LINE"
);
}
);
width = 1200;
},
{
anchors = (
{
name = bottom;
position = "{560, -270}";
}
);
components = (
{
name = "che-cy";
}
);
layerId = "1F90C004-9C90-48FA-B407-176B3E9F1E65";
paths = (
{
closed = 1;
nodes = (
"1146 -270 LINE",
"1146 190 LINE",
"946 190 LINE",
"946 -270 LINE"
);
}
);
width = 1200;
},
{
anchors = (
{
name = bottom;
position = "{560, -270}";
}
);
components = (
{
alignment = -1;
name = "che-cy";
}
);
layerId = "8E053A5E-67DA-4970-A6F5-068DBFE5AD21";
paths = (
{
closed = 1;
nodes = (
"1183 -270 LINE",
"1183 252 LINE",
"914 252 LINE",
"914 -270 LINE"
);
}
);
width = 1200;
}
);
unicode = 04B7;
}
{
glyphname = "endescender-cy";
production = uni04A3;
layers = (
{
anchors = (
{
name = bottom;
position = "{600, -270}";
}
);
components = (
{
name = "en-cy";
}
);
layerId = master01;
paths = (
{
closed = 1;
nodes = (
"1100 -270 LINE",
"1100 90 LINE",
"1006 90 LINE",
"1006 -270 LINE"
);
}
);
width = 1200;
},
{
anchors = (
{
name = bottom;
position = "{600, -270}";
}
);
components = (
{
name = "en-cy";
}
);
layerId = "1F90C004-9C90-48FA-B407-176B3E9F1E65";
paths = (
{
closed = 1;
nodes = (
"1166 -270 LINE",
"1166 190 LINE",
"966 190 LINE",
"966 -270 LINE"
);
}
);
width = 1200;
},
{
anchors = (
{
name = bottom;
position = "{600, -270}";
}
);
components = (
{
alignment = -1;
name = "en-cy";
}
);
layerId = "8E053A5E-67DA-4970-A6F5-068DBFE5AD21";
paths = (
{
closed = 1;
nodes = (
"1183 -270 LINE",
"1183 252 LINE",
"914 252 LINE",
"914 -270 LINE"
);
}
);
width = 1200;
}
);
unicode = 04A3;
}
{
glyphname = "hadescender-cy";
production = uni04B3;
layers = (
{
anchors = (
{
name = bottom;
position = "{600, -270}";
}
);
components = (
{
name = "ha-cy";
}
);
layerId = master01;
paths = (
{
closed = 1;
nodes = (
"1098 -270 LINE",
"1097 90 LINE",
"1001 90 LINE",
"1002 -270 LINE"
);
}
);
width = 1200;
},
{
anchors = (
{
name = bottom;
position = "{600, -270}";
}
);
components = (
{
name = "ha-cy";
}
);
layerId = "1F90C004-9C90-48FA-B407-176B3E9F1E65";
paths = (
{
closed = 1;
nodes = (
"1156 -270 LINE",
"1156 190 LINE",
"956 190 LINE",
"956 -270 LINE"
);
}
);
width = 1200;
},
{
anchors = (
{
name = bottom;
position = "{600, -270}";
}
);
components = (
{
alignment = -1;
name = "ha-cy";
}
);
layerId = "8E053A5E-67DA-4970-A6F5-068DBFE5AD21";
paths = (
{
closed = 1;
nodes = (
"1173 -270 LINE",
"1173 252 LINE",
"904 252 LINE",
"904 -270 LINE"
);
}
);
width = 1200;
}
);
unicode = 04B3;
}
{
glyphname = "obarred-cy";
production = uni04E9;
layers = (
{
components = (
{
name = o;
}
);
layerId = master01;
paths = (
{
closed = 1;
nodes = (
"1001 485 LINE",
"1001 575 LINE",
"230 575 LINE",
"230 485 LINE"
);
}
);
width = 1200;
},
{
components = (
{
name = o;
}
);
layerId = "1F90C004-9C90-48FA-B407-176B3E9F1E65";
paths = (
{
closed = 1;
nodes = (
"1001 449 LINE",
"1001 611 LINE",
"230 611 LINE",
"230 449 LINE"
);
}
);
width = 1200;
},
{
components = (
{
alignment = -1;
name = o;
}
);
layerId = "8E053A5E-67DA-4970-A6F5-068DBFE5AD21";
paths = (
{
closed = 1;
nodes = (
"1001 449 LINE",
"1001 611 LINE",
"230 611 LINE",
"230 449 LINE"
);
}
);
width = 1200;
}
);
unicode = 04E9;
}
{
glyphname = "ustraight-cy";
production = uni04AF;
layers = (
{
anchors = (
{
name = bottom;
position = "{600, -460}";
},
{
name = top;
position = "{600, 1060}";
}
);
layerId = master01;
paths = (
{
closed = 1;
nodes = (
"637 0 LINE",
"1096 1060 LINE",
"994 1060 LINE",
"569 70 LINE",
"631 70 LINE",
"206 1060 LINE",
"104 1060 LINE",
"563 0 LINE"
);
},
{
closed = 1;
nodes = (
"647 -460 LINE",
"647 36 LINE",
"553 36 LINE",
"553 -460 LINE"
);
}
);
width = 1200;
},
{
anchors = (
{
name = bottom;
position = "{600, -460}";
},
{
name = top;
position = "{600, 1060}";
}
);
layerId = "1F90C004-9C90-48FA-B407-176B3E9F1E65";
paths = (
{
closed = 1;
nodes = (
"701 0 LINE",
"1120 1060 LINE",
"894 1060 LINE",
"569 160 LINE",
"631 160 LINE",
"306 1060 LINE",
"80 1060 LINE",
"499 0 LINE"
);
},
{
closed = 1;
nodes = (
"706 -460 LINE",
"706 96 LINE",
"494 96 LINE",
"494 -460 LINE"
);
}
);
width = 1200;
},
{
anchors = (
{
name = bottom;
position = "{600, -460}";
},
{
name = top;
position = "{600, 1060}";
}
);
layerId = "8E053A5E-67DA-4970-A6F5-068DBFE5AD21";
paths = (
{
closed = 1;
nodes = (
"730 0 LINE",
"1137 1060 LINE",
"861 1060 LINE",
"569 243 LINE",
"631 243 LINE",
"339 1060 LINE",
"63 1060 LINE",
"470 0 LINE"
);
},
{
closed = 1;
nodes = (
"735 -460 LINE",
"735 96 LINE",
"465 96 LINE",
"465 -460 LINE"
);
}
);
width = 1200;
}
);
unicode = 04AF;
}
